  0
SECTION
  2
HEADER
  9
$ACADVER
  1
AC1009
  9
$INSBASE
 10
0.0
 20
0.0
 30
0.0
  9
$EXTMIN
 10
-3.6499999999999999
 20
-3.300000000000018
 30
0.0
  9
$EXTMAX
 10
3.6499999999999999
 20
3.3000000000000052
 30
6.0
  9
$LIMMIN
 10
0.0
 20
0.0
  9
$LIMMAX
 10
420.0
 20
297.0
  9
$ORTHOMODE
 70
     0
  9
$REGENMODE
 70
     1
  9
$FILLMODE
 70
     1
  9
$QTEXTMODE
 70
     0
  9
$MIRRTEXT
 70
     0
  9
$DRAGMODE
 70
     2
  9
$LTSCALE
 40
1.0
  9
$OSMODE
 70
  2295
  9
$ATTMODE
 70
     1
  9
$TEXTSIZE
 40
2.5
  9
$TRACEWID
 40
1.0
  9
$TEXTSTYLE
  7
STANDARD
  9
$CLAYER
  8
0
  9
$CELTYPE
  6
BYLAYER
  9
$CECOLOR
 62
   256
  9
$DIMSCALE
 40
1.0
  9
$DIMASZ
 40
2.5
  9
$DIMEXO
 40
0.625
  9
$DIMDLI
 40
3.75
  9
$DIMRND
 40
0.0
  9
$DIMDLE
 40
0.0
  9
$DIMEXE
 40
1.25
  9
$DIMTP
 40
0.0
  9
$DIMTM
 40
0.0
  9
$DIMTXT
 40
2.5
  9
$DIMCEN
 40
2.5
  9
$DIMTSZ
 40
0.0
  9
$DIMTOL
 70
     0
  9
$DIMLIM
 70
     0
  9
$DIMTIH
 70
     0
  9
$DIMTOH
 70
     0
  9
$DIMSE1
 70
     0
  9
$DIMSE2
 70
     0
  9
$DIMTAD
 70
     1
  9
$DIMZIN
 70
     8
  9
$DIMBLK
  1

  9
$DIMASO
 70
     1
  9
$DIMSHO
 70
     1
  9
$DIMPOST
  1

  9
$DIMAPOST
  1

  9
$DIMALT
 70
     0
  9
$DIMALTD
 70
     3
  9
$DIMALTF
 40
0.03937007874016
  9
$DIMLFAC
 40
1.0
  9
$DIMTOFL
 70
     1
  9
$DIMTVP
 40
0.0
  9
$DIMTIX
 70
     0
  9
$DIMSOXD
 70
     0
  9
$DIMSAH
 70
     0
  9
$DIMBLK1
  1

  9
$DIMBLK2
  1

  9
$DIMSTYLE
  2
ISO-25
  9
$DIMCLRD
 70
     0
  9
$DIMCLRE
 70
     0
  9
$DIMCLRT
 70
     0
  9
$DIMTFAC
 40
1.0
  9
$DIMGAP
 40
0.625
  9
$LUNITS
 70
     2
  9
$LUPREC
 70
     4
  9
$SKETCHINC
 40
1.0
  9
$FILLETRAD
 40
0.0
  9
$AUNITS
 70
     0
  9
$AUPREC
 70
     0
  9
$MENU
  1
.
  9
$ELEVATION
 40
0.0
  9
$PELEVATION
 40
0.0
  9
$THICKNESS
 40
0.0
  9
$LIMCHECK
 70
     0
  9
$BLIPMODE
 70
     0
  9
$CHAMFERA
 40
1.0
  9
$CHAMFERB
 40
1.0
  9
$SKPOLY
 70
     0
  9
$TDCREATE
 40
2458313.3831154401
  9
$TDUPDATE
 40
2458313.52808228
  9
$TDINDWG
 40
0.0192559259
  9
$TDUSRTIMER
 40
0.019255544
  9
$USRTIMER
 70
     1
  9
$ANGBASE
 50
0.0
  9
$ANGDIR
 70
     0
  9
$PDMODE
 70
     0
  9
$PDSIZE
 40
0.0
  9
$PLINEWID
 40
0.0
  9
$COORDS
 70
     1
  9
$SPLFRAME
 70
     0
  9
$SPLINETYPE
 70
     6
  9
$SPLINESEGS
 70
     8
  9
$ATTDIA
 70
     1
  9
$ATTREQ
 70
     1
  9
$HANDLING
 70
     1
  9
$HANDSEED
  5
529
  9
$SURFTAB1
 70
     6
  9
$SURFTAB2
 70
     6
  9
$SURFTYPE
 70
     6
  9
$SURFU
 70
     6
  9
$SURFV
 70
     6
  9
$UCSNAME
  2

  9
$UCSORG
 10
0.0
 20
0.0
 30
0.0
  9
$UCSXDIR
 10
1.0
 20
0.0
 30
0.0
  9
$UCSYDIR
 10
0.0
 20
0.0
 30
1.0
  9
$PUCSNAME
  2

  9
$PUCSORG
 10
0.0
 20
0.0
 30
0.0
  9
$PUCSXDIR
 10
1.0
 20
0.0
 30
0.0
  9
$PUCSYDIR
 10
0.0
 20
1.0
 30
0.0
  9
$USERI1
 70
     0
  9
$USERI2
 70
     0
  9
$USERI3
 70
     0
  9
$USERI4
 70
     0
  9
$USERI5
 70
     0
  9
$USERR1
 40
0.0
  9
$USERR2
 40
0.0
  9
$USERR3
 40
0.0
  9
$USERR4
 40
0.0
  9
$USERR5
 40
0.0
  9
$WORLDVIEW
 70
     1
  9
$SHADEDGE
 70
     3
  9
$SHADEDIF
 70
    70
  9
$TILEMODE
 70
     1
  9
$MAXACTVP
 70
    48
  9
$PLIMCHECK
 70
     0
  9
$PEXTMIN
 10
0.0
 20
0.0
 30
0.0
  9
$PEXTMAX
 10
0.0
 20
0.0
 30
0.0
  9
$PLIMMIN
 10
0.0
 20
0.0
  9
$PLIMMAX
 10
12.0
 20
9.0
  9
$UNITMODE
 70
     0
  9
$VISRETAIN
 70
     1
  9
$PLINEGEN
 70
     0
  9
$PSLTSCALE
 70
     1
  0
ENDSEC
  0
SECTION
  2
TABLES
  0
TABLE
  2
VPORT
 70
     1
  0
VPORT
  2
*ACTIVE
 70
     0
 10
0.0
 20
0.0
 11
1.0
 21
1.0
 12
0.0
 22
0.0
 13
0.0
 23
0.0
 14
10.0
 24
10.0
 15
10.0
 25
10.0
 16
-28.62021536696388
 26
-28.62021536696388
 36
28.620215366963869
 17
-1.1472804215111281
 27
1.7313722224685191
 37
0.5840918009573886
 40
15.0246406993781
 41
2.5847619047619039
 42
50.0
 43
0.0
 44
0.0
 50
0.0
 51
0.0000000000000086
 71
     0
 72
  1000
 73
     1
 74
     3
 75
     0
 76
     1
 77
     0
 78
     0
  0
ENDTAB
  0
TABLE
  2
LTYPE
 70
     2
  0
LTYPE
  2
CONTINUOUS
 70
     0
  3
Solid line
 72
    65
 73
     0
 40
0.0
  0
ENDTAB
  0
TABLE
  2
LAYER
 70
     1
  0
LAYER
  2
0
 70
     0
 62
     7
  6
CONTINUOUS
  0
ENDTAB
  0
TABLE
  2
STYLE
 70
     2
  0
STYLE
  2
STANDARD
 70
     0
 40
0.0
 41
1.0
 50
0.0
 71
     0
 42
2.5
  3
txt
  4

  0
STYLE
  2
ANNOTATIVE
 70
     0
 40
0.0
 41
1.0
 50
0.0
 71
     0
 42
2.5
  3
txt
  4

  0
ENDTAB
  0
TABLE
  2
VIEW
 70
     3
  0
ENDTAB
  0
TABLE
  2
UCS
 70
     0
  0
ENDTAB
  0
TABLE
  2
APPID
 70
    10
  0
APPID
  2
ACAD
 70
     0
  0
APPID
  2
ACAD_PSEXT
 70
     0
  0
APPID
  2
ACADANNOPO
 70
     0
  0
APPID
  2
ACADANNOTATIVE
 70
     0
  0
APPID
  2
ACAD_DSTYLE_DIMJAG
 70
     0
  0
APPID
  2
ACAD_DSTYLE_DIMTALN
 70
     0
  0
APPID
  2
ACAD_MLEADERVER
 70
     0
  0
APPID
  2
ACAD_NAV_VCDISPLAY
 70
     0
  0
APPID
  2
ACAD_EXEMPT_FROM_CAD_STANDARDS
 70
     0
  0
APPID
  2
ACAD_OBJECT_CHANGE_GUID
 70
     0
  0
ENDTAB
  0
TABLE
  2
DIMSTYLE
 70
     4
  0
DIMSTYLE
  2
STANDARD
 70
     0
  3

  4

  5

  6

  7

 40
1.0
 41
0.18
 42
0.0625
 43
0.38
 44
0.18
 45
0.0
 46
0.0
 47
0.0
 48
0.0
140
0.18
141
0.09
142
0.0
143
25.399999999999999
144
1.0
145
0.0
146
1.0
147
0.09
 71
     0
 72
     0
 73
     1
 74
     1
 75
     0
 76
     0
 77
     0
 78
     0
170
     0
171
     2
172
     0
173
     0
174
     0
175
     0
176
     0
177
     0
178
     0
  0
DIMSTYLE
  2
ANNOTATIVE
 70
     0
  3

  4

  5

  6

  7

 40
0.0
 41
2.5
 42
0.625
 43
3.75
 44
1.25
 45
0.0
 46
0.0
 47
0.0
 48
0.0
140
2.5
141
2.5
142
0.0
143
0.03937007874016
144
1.0
145
0.0
146
1.0
147
0.625
 71
     0
 72
     0
 73
     0
 74
     0
 75
     0
 76
     0
 77
     1
 78
     8
170
     0
171
     3
172
     1
173
     0
174
     0
175
     0
176
     0
177
     0
178
     0
  0
DIMSTYLE
  2
ISO-25
 70
     0
  3

  4

  5

  6

  7

 40
1.0
 41
2.5
 42
0.625
 43
3.75
 44
1.25
 45
0.0
 46
0.0
 47
0.0
 48
0.0
140
2.5
141
2.5
142
0.0
143
0.03937007874016
144
1.0
145
0.0
146
1.0
147
0.625
 71
     0
 72
     0
 73
     0
 74
     0
 75
     0
 76
     0
 77
     1
 78
     8
170
     0
171
     3
172
     1
173
     0
174
     0
175
     0
176
     0
177
     0
178
     0
  0
ENDTAB
  0
ENDSEC
  0
SECTION
  2
BLOCKS
  0
BLOCK
  8
0
  2
$MODEL_SPACE
 70
     0
 10
0.0
 20
0.0
 30
0.0
  3
$MODEL_SPACE
  1

  0
ENDBLK
  5
21
  8
0
  0
BLOCK
 67
     1
  8
0
  2
$PAPER_SPACE
 70
     0
 10
0.0
 20
0.0
 30
0.0
  3
$PAPER_SPACE
  1

  0
ENDBLK
  5
D5
 67
     1
  8
0
  0
BLOCK
  8
0
  2
*U2
 70
     1
 10
0.0
 20
0.0
 30
0.0
  3
*U2
  1

  0
LINE
  5
4B4
  8
0
 62
   250
 10
-3.2999999999999989
 20
-2.2999999999999989
 30
0.3
 11
-2.2999999999999989
 21
-3.2999999999999989
 31
0.3
210
-0.7071067811865476
220
-0.7071067811865476
230
0.0
  0
LINE
  5
4B5
  8
0
 62
   250
 10
-2.2999999999999989
 20
-3.2999999999999989
 30
0.3
 11
-2.2999999999999989
 21
-3.2999999999999989
 31
0.6
210
-0.7071067811865476
220
-0.7071067811865476
230
0.0
  0
LINE
  5
4B6
  8
0
 62
   250
 10
-3.2999999999999989
 20
-2.2999999999999989
 30
0.6
 11
-2.2999999999999989
 21
-3.2999999999999989
 31
0.6
210
-0.7071067811865476
220
-0.7071067811865476
230
0.0
  0
LINE
  5
4B7
  8
0
 62
   250
 10
-3.2999999999999989
 20
-2.2999999999999989
 30
0.3
 11
-3.2999999999999989
 21
-2.2999999999999989
 31
0.6
210
-0.7071067811865476
220
-0.7071067811865476
230
0.0
  0
LINE
  5
4B8
  8
0
 62
   250
 10
-3.2999999999999989
 20
2.2999999999999998
 30
0.3
 11
-3.2999999999999989
 21
-2.2999999999999989
 31
0.3
210
-1.0
220
0.0
230
0.0
  0
LINE
  5
4B9
  8
0
 62
   250
 10
-3.2999999999999989
 20
-2.2999999999999989
 30
0.3
 11
-3.2999999999999989
 21
-2.2999999999999989
 31
0.6
210
-1.0
220
0.0
230
0.0
  0
LINE
  5
4BA
  8
0
 62
   250
 10
-3.2999999999999989
 20
2.2999999999999998
 30
0.6
 11
-3.2999999999999989
 21
-2.2999999999999989
 31
0.6
210
-1.0
220
0.0
230
0.0
  0
LINE
  5
4BB
  8
0
 62
   250
 10
-3.2999999999999989
 20
2.2999999999999998
 30
0.3
 11
-3.2999999999999989
 21
2.2999999999999998
 31
0.6
210
-1.0
220
0.0
230
0.0
  0
LINE
  5
4BC
  8
0
 62
   250
 10
-2.2999999999999989
 20
3.2999999999999998
 30
0.3
 11
-3.2999999999999989
 21
2.2999999999999998
 31
0.3
210
-0.7071067811865476
220
0.7071067811865476
230
0.0
  0
LINE
  5
4BD
  8
0
 62
   250
 10
-3.2999999999999989
 20
2.2999999999999998
 30
0.3
 11
-3.2999999999999989
 21
2.2999999999999998
 31
0.6
210
-0.7071067811865476
220
0.7071067811865476
230
0.0
  0
LINE
  5
4BE
  8
0
 62
   250
 10
-2.2999999999999989
 20
3.2999999999999998
 30
0.6
 11
-3.2999999999999989
 21
2.2999999999999998
 31
0.6
210
-0.7071067811865476
220
0.7071067811865476
230
0.0
  0
LINE
  5
4BF
  8
0
 62
   250
 10
-2.2999999999999989
 20
3.2999999999999998
 30
0.3
 11
-2.2999999999999989
 21
3.2999999999999998
 31
0.6
210
-0.7071067811865476
220
0.7071067811865476
230
0.0
  0
LINE
  5
4C0
  8
0
 62
   250
 10
3.2999999999999989
 20
3.2999999999999989
 30
0.3
 11
-2.2999999999999989
 21
3.2999999999999998
 31
0.3
210
0.0000000000000002
220
1.0
230
0.0
  0
LINE
  5
4C1
  8
0
 62
   250
 10
-2.2999999999999989
 20
3.2999999999999998
 30
0.3
 11
-2.2999999999999989
 21
3.2999999999999998
 31
0.6
210
0.0000000000000002
220
1.0
230
0.0
  0
LINE
  5
4C2
  8
0
 62
   250
 10
3.2999999999999989
 20
3.2999999999999989
 30
0.6
 11
-2.2999999999999989
 21
3.2999999999999998
 31
0.6
210
0.0000000000000002
220
1.0
230
0.0
  0
LINE
  5
4C3
  8
0
 62
   250
 10
3.2999999999999989
 20
3.2999999999999989
 30
0.3
 11
3.2999999999999989
 21
3.2999999999999989
 31
0.6
210
0.0000000000000002
220
1.0
230
0.0
  0
LINE
  5
4C4
  8
0
 62
   250
 10
3.2999999999999989
 20
-3.2999999999999989
 30
0.3
 11
3.2999999999999989
 21
3.2999999999999989
 31
0.3
210
1.0
220
0.0
230
0.0
  0
LINE
  5
4C5
  8
0
 62
   250
 10
3.2999999999999989
 20
3.2999999999999989
 30
0.3
 11
3.2999999999999989
 21
3.2999999999999989
 31
0.6
210
1.0
220
0.0
230
0.0
  0
LINE
  5
4C6
  8
0
 62
   250
 10
3.2999999999999989
 20
-3.2999999999999989
 30
0.6
 11
3.2999999999999989
 21
3.2999999999999989
 31
0.6
210
1.0
220
0.0
230
0.0
  0
LINE
  5
4C7
  8
0
 62
   250
 10
3.2999999999999989
 20
-3.2999999999999989
 30
0.3
 11
3.2999999999999989
 21
-3.2999999999999989
 31
0.6
210
1.0
220
0.0
230
0.0
  0
LINE
  5
4C8
  8
0
 62
   250
 10
-2.2999999999999989
 20
-3.2999999999999989
 30
0.3
 11
3.2999999999999989
 21
-3.2999999999999989
 31
0.3
210
0.0
220
-1.0
230
0.0
  0
LINE
  5
4C9
  8
0
 62
   250
 10
3.2999999999999989
 20
-3.2999999999999989
 30
0.3
 11
3.2999999999999989
 21
-3.2999999999999989
 31
0.6
210
0.0
220
-1.0
230
0.0
  0
LINE
  5
4CA
  8
0
 62
   250
 10
-2.2999999999999989
 20
-3.2999999999999989
 30
0.6
 11
3.2999999999999989
 21
-3.2999999999999989
 31
0.6
210
0.0
220
-1.0
230
0.0
  0
LINE
  5
4CB
  8
0
 62
   250
 10
-2.2999999999999989
 20
-3.2999999999999989
 30
0.3
 11
-2.2999999999999989
 21
-3.2999999999999989
 31
0.6
210
0.0
220
-1.0
230
0.0
  0
LINE
  5
4CC
  8
0
 62
   250
 10
-2.2999999999999989
 20
-3.2999999999999989
 30
0.6
 11
3.2999999999999989
 21
-3.2999999999999989
 31
0.6
  0
LINE
  5
4CD
  8
0
 62
   250
 10
3.2999999999999989
 20
-3.2999999999999989
 30
0.6
 11
3.2999999999999989
 21
3.2999999999999989
 31
0.6
  0
LINE
  5
4CE
  8
0
 62
   250
 10
3.2999999999999989
 20
3.2999999999999989
 30
0.6
 11
-2.2999999999999989
 21
3.2999999999999998
 31
0.6
  0
LINE
  5
4CF
  8
0
 62
   250
 10
-2.2999999999999989
 20
3.2999999999999998
 30
0.6
 11
-3.2999999999999989
 21
2.2999999999999998
 31
0.6
  0
LINE
  5
4D0
  8
0
 62
   250
 10
-3.2999999999999989
 20
2.2999999999999998
 30
0.6
 11
-3.2999999999999989
 21
-2.2999999999999989
 31
0.6
  0
LINE
  5
4D1
  8
0
 62
   250
 10
-3.2999999999999989
 20
-2.2999999999999989
 30
0.6
 11
-2.2999999999999989
 21
-3.2999999999999989
 31
0.6
  0
LINE
  5
4D2
  8
0
 62
   250
 10
-2.2999999999999989
 20
-3.2999999999999989
 30
0.3
 11
3.2999999999999989
 21
-3.2999999999999989
 31
0.3
210
0.0
220
0.0
230
-1.0
  0
LINE
  5
4D3
  8
0
 62
   250
 10
-3.2999999999999989
 20
-2.2999999999999989
 30
0.3
 11
-2.2999999999999989
 21
-3.2999999999999989
 31
0.3
210
0.0
220
0.0
230
-1.0
  0
LINE
  5
4D4
  8
0
 62
   250
 10
-3.2999999999999989
 20
2.2999999999999998
 30
0.3
 11
-3.2999999999999989
 21
-2.2999999999999989
 31
0.3
210
0.0
220
0.0
230
-1.0
  0
LINE
  5
4D5
  8
0
 62
   250
 10
-2.2999999999999989
 20
3.2999999999999998
 30
0.3
 11
-3.2999999999999989
 21
2.2999999999999998
 31
0.3
210
0.0
220
0.0
230
-1.0
  0
LINE
  5
4D6
  8
0
 62
   250
 10
3.2999999999999989
 20
3.2999999999999989
 30
0.3
 11
-2.2999999999999989
 21
3.2999999999999998
 31
0.3
210
0.0
220
0.0
230
-1.0
  0
LINE
  5
4D7
  8
0
 62
   250
 10
3.2999999999999989
 20
-3.2999999999999989
 30
0.3
 11
3.2999999999999989
 21
3.2999999999999989
 31
0.3
210
0.0
220
0.0
230
-1.0
  0
ENDBLK
  5
4D9
  8
0
  0
BLOCK
  8
0
  2
*U3
 70
     1
 10
0.0
 20
0.0
 30
0.0
  3
*U3
  1

  0
CIRCLE
  5
4E1
  8
0
 62
   254
 10
0.0
 20
0.0
 30
6.0
 40
3.2999999999999989
  0
CIRCLE
  5
4E2
  8
0
 62
   254
 10
0.0
 20
0.0
 30
0.3
 40
3.2999999999999989
  0
CIRCLE
  5
4E3
  8
0
 62
   254
 10
0.0
 20
0.0
 30
6.0
 40
3.2999999999999989
  0
CIRCLE
  5
4E4
  8
0
 62
   254
 10
0.0
 20
0.0
 30
-0.3
 40
3.2999999999999989
210
0.0
220
0.0
230
-1.0
  0
ENDBLK
  5
4E6
  8
0
  0
BLOCK
  8
0
  2
*U4
 70
     1
 10
0.0
 20
0.0
 30
0.0
  3
*U4
  1

  0
LINE
  5
4EE
  8
0
 10
-3.649999999999999
 20
0.4000000000000021
 30
0.0
 11
-1.4500000000000011
 21
0.4000000000000007
 31
0.0
210
0.0000000000000006
220
1.0
230
0.0
  0
LINE
  5
4EF
  8
0
 10
-3.649999999999999
 20
0.4000000000000021
 30
0.0
 11
-3.649999999999999
 21
0.4000000000000021
 31
0.3
210
0.0000000000000006
220
1.0
230
0.0
  0
LINE
  5
4F0
  8
0
 10
-1.4500000000000011
 20
0.4000000000000007
 30
0.3
 11
-3.649999999999999
 21
0.4000000000000021
 31
0.3
210
0.0000000000000006
220
1.0
230
0.0
  0
LINE
  5
4F1
  8
0
 10
-1.4500000000000011
 20
0.4000000000000007
 30
0.0
 11
-1.4500000000000011
 21
0.4000000000000007
 31
0.3
210
0.0000000000000006
220
1.0
230
0.0
  0
ARC
  5
4F2
  8
0
 10
1.4500000000000011
 20
0.0000000000000006
 30
0.0
 40
0.4
210
0.0
220
0.0
230
-1.0
 50
90.000000000000057
 51
270.0
  0
LINE
  5
4F3
  8
0
 10
-1.4500000000000011
 20
0.4000000000000007
 30
0.0
 11
-1.4500000000000011
 21
0.4000000000000007
 31
0.3
  0
ARC
  5
4F4
  8
0
 10
-1.4500000000000011
 20
0.0000000000000006
 30
0.3
 40
0.4
 50
270.0
 51
89.999999999999915
  0
LINE
  5
4F5
  8
0
 10
-1.4500000000000011
 20
-0.3999999999999994
 30
0.0
 11
-1.4500000000000011
 21
-0.3999999999999994
 31
0.3
  0
LINE
  5
4F6
  8
0
 10
-1.4500000000000011
 20
-0.3999999999999994
 30
0.0
 11
-3.6499999999999999
 21
-0.399999999999998
 31
0.0
210
-0.0000000000000006
220
-1.0
230
0.0
  0
LINE
  5
4F7
  8
0
 10
-1.4500000000000011
 20
-0.3999999999999994
 30
0.0
 11
-1.4500000000000011
 21
-0.3999999999999994
 31
0.3
210
-0.0000000000000006
220
-1.0
230
0.0
  0
LINE
  5
4F8
  8
0
 10
-3.6499999999999999
 20
-0.399999999999998
 30
0.3
 11
-1.4500000000000011
 21
-0.3999999999999994
 31
0.3
210
-0.0000000000000006
220
-1.0
230
0.0
  0
LINE
  5
4F9
  8
0
 10
-3.6499999999999999
 20
-0.399999999999998
 30
0.0
 11
-3.6499999999999999
 21
-0.399999999999998
 31
0.3
210
-0.0000000000000006
220
-1.0
230
0.0
  0
LINE
  5
4FA
  8
0
 10
-3.6499999999999999
 20
-0.399999999999998
 30
0.0
 11
-3.649999999999999
 21
0.4000000000000021
 31
0.0
210
-1.0
220
0.0000000000000011
230
0.0
  0
LINE
  5
4FB
  8
0
 10
-3.6499999999999999
 20
-0.399999999999998
 30
0.0
 11
-3.6499999999999999
 21
-0.399999999999998
 31
0.3
210
-1.0
220
0.0000000000000011
230
0.0
  0
LINE
  5
4FC
  8
0
 10
-3.649999999999999
 20
0.4000000000000021
 30
0.3
 11
-3.6499999999999999
 21
-0.399999999999998
 31
0.3
210
-1.0
220
0.0000000000000011
230
0.0
  0
LINE
  5
4FD
  8
0
 10
-3.649999999999999
 20
0.4000000000000021
 30
0.0
 11
-3.649999999999999
 21
0.4000000000000021
 31
0.3
210
-1.0
220
0.0000000000000011
230
0.0
  0
LINE
  5
4FE
  8
0
 10
-3.6499999999999999
 20
-0.399999999999998
 30
0.0
 11
-3.649999999999999
 21
0.4000000000000021
 31
0.0
210
0.0
220
0.0
230
-1.0
  0
LINE
  5
4FF
  8
0
 10
-3.649999999999999
 20
0.4000000000000021
 30
0.0
 11
-1.4500000000000011
 21
0.4000000000000007
 31
0.0
210
0.0
220
0.0
230
-1.0
  0
ARC
  5
500
  8
0
 10
1.4500000000000011
 20
0.0000000000000006
 30
0.0
 40
0.4
210
0.0
220
0.0
230
-1.0
 50
90.000000000000057
 51
270.0
  0
LINE
  5
501
  8
0
 10
-1.4500000000000011
 20
-0.3999999999999994
 30
0.0
 11
-3.6499999999999999
 21
-0.399999999999998
 31
0.0
210
0.0
220
0.0
230
-1.0
  0
LINE
  5
502
  8
0
 10
-3.649999999999999
 20
0.4000000000000021
 30
0.3
 11
-3.6499999999999999
 21
-0.399999999999998
 31
0.3
  0
LINE
  5
503
  8
0
 10
-3.6499999999999999
 20
-0.399999999999998
 30
0.3
 11
-1.4500000000000011
 21
-0.3999999999999994
 31
0.3
  0
ARC
  5
504
  8
0
 10
-1.4500000000000011
 20
0.0000000000000006
 30
0.3
 40
0.4
 50
270.0
 51
89.999999999999915
  0
LINE
  5
505
  8
0
 10
-1.4500000000000011
 20
0.4000000000000007
 30
0.3
 11
-3.649999999999999
 21
0.4000000000000021
 31
0.3
  0
ENDBLK
  5
507
  8
0
  0
BLOCK
  8
0
  2
*U5
 70
     1
 10
0.0
 20
0.0
 30
0.0
  3
*U5
  1

  0
LINE
  5
50F
  8
0
 10
3.649999999999999
 20
0.4000000000000021
 30
0.0
 11
1.4500000000000011
 21
0.4000000000000007
 31
0.0
210
-0.0000000000000006
220
1.0
230
0.0
  0
LINE
  5
510
  8
0
 10
1.4500000000000011
 20
0.4000000000000007
 30
0.0
 11
1.4500000000000011
 21
0.4000000000000007
 31
0.3
210
-0.0000000000000006
220
1.0
230
0.0
  0
LINE
  5
511
  8
0
 10
1.4500000000000011
 20
0.4000000000000007
 30
0.3
 11
3.649999999999999
 21
0.4000000000000021
 31
0.3
210
-0.0000000000000006
220
1.0
230
0.0
  0
LINE
  5
512
  8
0
 10
3.649999999999999
 20
0.4000000000000021
 30
0.0
 11
3.649999999999999
 21
0.4000000000000021
 31
0.3
210
-0.0000000000000006
220
1.0
230
0.0
  0
ARC
  5
513
  8
0
 10
1.4500000000000011
 20
0.0000000000000006
 30
0.0
 40
0.4
 50
90.000000000000057
 51
270.0
  0
LINE
  5
514
  8
0
 10
1.4500000000000011
 20
-0.3999999999999994
 30
0.0
 11
1.4500000000000011
 21
-0.3999999999999994
 31
0.3
  0
ARC
  5
515
  8
0
 10
-1.4500000000000011
 20
0.0000000000000006
 30
-0.3
 40
0.4
210
0.0
220
0.0
230
-1.0
 50
270.0
 51
89.999999999999915
  0
LINE
  5
516
  8
0
 10
1.4500000000000011
 20
0.4000000000000007
 30
0.0
 11
1.4500000000000011
 21
0.4000000000000007
 31
0.3
  0
LINE
  5
517
  8
0
 10
1.4500000000000011
 20
-0.3999999999999994
 30
0.0
 11
3.6499999999999999
 21
-0.399999999999998
 31
0.0
210
0.0000000000000006
220
-1.0
230
0.0
  0
LINE
  5
518
  8
0
 10
3.6499999999999999
 20
-0.399999999999998
 30
0.0
 11
3.6499999999999999
 21
-0.399999999999998
 31
0.3
210
0.0000000000000006
220
-1.0
230
0.0
  0
LINE
  5
519
  8
0
 10
3.6499999999999999
 20
-0.399999999999998
 30
0.3
 11
1.4500000000000011
 21
-0.3999999999999994
 31
0.3
210
0.0000000000000006
220
-1.0
230
0.0
  0
LINE
  5
51A
  8
0
 10
1.4500000000000011
 20
-0.3999999999999994
 30
0.0
 11
1.4500000000000011
 21
-0.3999999999999994
 31
0.3
210
0.0000000000000006
220
-1.0
230
0.0
  0
LINE
  5
51B
  8
0
 10
3.6499999999999999
 20
-0.399999999999998
 30
0.0
 11
3.649999999999999
 21
0.4000000000000021
 31
0.0
210
1.0
220
0.0000000000000011
230
0.0
  0
LINE
  5
51C
  8
0
 10
3.649999999999999
 20
0.4000000000000021
 30
0.0
 11
3.649999999999999
 21
0.4000000000000021
 31
0.3
210
1.0
220
0.0000000000000011
230
0.0
  0
LINE
  5
51D
  8
0
 10
3.649999999999999
 20
0.4000000000000021
 30
0.3
 11
3.6499999999999999
 21
-0.399999999999998
 31
0.3
210
1.0
220
0.0000000000000011
230
0.0
  0
LINE
  5
51E
  8
0
 10
3.6499999999999999
 20
-0.399999999999998
 30
0.0
 11
3.6499999999999999
 21
-0.399999999999998
 31
0.3
210
1.0
220
0.0000000000000011
230
0.0
  0
LINE
  5
51F
  8
0
 10
3.6499999999999999
 20
-0.399999999999998
 30
0.0
 11
3.649999999999999
 21
0.4000000000000021
 31
0.0
210
0.0
220
0.0
230
-1.0
  0
LINE
  5
520
  8
0
 10
1.4500000000000011
 20
-0.3999999999999994
 30
0.0
 11
3.6499999999999999
 21
-0.399999999999998
 31
0.0
210
0.0
220
0.0
230
-1.0
  0
ARC
  5
521
  8
0
 10
-1.4500000000000011
 20
0.0000000000000006
 30
0.0
 40
0.4
210
0.0
220
0.0
230
-1.0
 50
270.0
 51
89.999999999999915
  0
LINE
  5
522
  8
0
 10
3.649999999999999
 20
0.4000000000000021
 30
0.0
 11
1.4500000000000011
 21
0.4000000000000007
 31
0.0
210
0.0
220
0.0
230
-1.0
  0
LINE
  5
523
  8
0
 10
3.649999999999999
 20
0.4000000000000021
 30
0.3
 11
3.6499999999999999
 21
-0.399999999999998
 31
0.3
  0
LINE
  5
524
  8
0
 10
1.4500000000000011
 20
0.4000000000000007
 30
0.3
 11
3.649999999999999
 21
0.4000000000000021
 31
0.3
  0
ARC
  5
525
  8
0
 10
1.4500000000000011
 20
0.0000000000000006
 30
0.3
 40
0.4
 50
90.000000000000057
 51
270.0
  0
LINE
  5
526
  8
0
 10
3.6499999999999999
 20
-0.399999999999998
 30
0.3
 11
1.4500000000000011
 21
-0.3999999999999994
 31
0.3
  0
ENDBLK
  5
528
  8
0
  0
ENDSEC
  0
SECTION
  2
ENTITIES
  0
INSERT
  5
408
  8
0
  2
*U2
 10
0.0
 20
0.0
 30
0.0
  0
INSERT
  5
427
  8
0
  2
*U3
 10
0.0
 20
0.0
 30
0.0
  0
INSERT
  5
442
  8
0
  2
*U4
 10
0.0
 20
0.0
 30
0.0
  0
INSERT
  5
446
  8
0
  2
*U5
 10
0.0
 20
0.0
 30
0.0
  0
ENDSEC
  0
EOF
