  0
SECTION
  2
HEADER
  9
$ACADVER
  1
AC1009
  9
$INSBASE
 10
0.0
 20
0.0
 30
0.0
  9
$EXTMIN
 10
-1.612865229338581
 20
-0.8090874414065183
 30
-0.0000289894873613
  9
$EXTMAX
 10
1.603687017974039
 20
0.8040561346850836
 30
1.600022891152211
  9
$LIMMIN
 10
0.0
 20
0.0
  9
$LIMMAX
 10
420.0
 20
297.0
  9
$ORTHOMODE
 70
     1
  9
$REGENMODE
 70
     1
  9
$FILLMODE
 70
     1
  9
$QTEXTMODE
 70
     0
  9
$MIRRTEXT
 70
     1
  9
$DRAGMODE
 70
     2
  9
$LTSCALE
 40
1.0
  9
$OSMODE
 70
  2295
  9
$ATTMODE
 70
     1
  9
$TEXTSIZE
 40
2.5
  9
$TRACEWID
 40
1.0
  9
$TEXTSTYLE
  7
STANDARD
  9
$CLAYER
  8
0
  9
$CELTYPE
  6
BYLAYER
  9
$CECOLOR
 62
   256
  9
$DIMSCALE
 40
1.0
  9
$DIMASZ
 40
2.5
  9
$DIMEXO
 40
0.625
  9
$DIMDLI
 40
3.75
  9
$DIMRND
 40
0.0
  9
$DIMDLE
 40
0.0
  9
$DIMEXE
 40
1.25
  9
$DIMTP
 40
0.0
  9
$DIMTM
 40
0.0
  9
$DIMTXT
 40
2.5
  9
$DIMCEN
 40
2.5
  9
$DIMTSZ
 40
0.0
  9
$DIMTOL
 70
     0
  9
$DIMLIM
 70
     0
  9
$DIMTIH
 70
     0
  9
$DIMTOH
 70
     0
  9
$DIMSE1
 70
     0
  9
$DIMSE2
 70
     0
  9
$DIMTAD
 70
     1
  9
$DIMZIN
 70
     8
  9
$DIMBLK
  1

  9
$DIMASO
 70
     1
  9
$DIMSHO
 70
     1
  9
$DIMPOST
  1

  9
$DIMAPOST
  1

  9
$DIMALT
 70
     0
  9
$DIMALTD
 70
     4
  9
$DIMALTF
 40
0.0394
  9
$DIMLFAC
 40
1.0
  9
$DIMTOFL
 70
     1
  9
$DIMTVP
 40
0.0
  9
$DIMTIX
 70
     0
  9
$DIMSOXD
 70
     0
  9
$DIMSAH
 70
     0
  9
$DIMBLK1
  1

  9
$DIMBLK2
  1

  9
$DIMSTYLE
  2
STANDARD
  9
$DIMCLRD
 70
     0
  9
$DIMCLRE
 70
     0
  9
$DIMCLRT
 70
     0
  9
$DIMTFAC
 40
1.0
  9
$DIMGAP
 40
0.625
  9
$LUNITS
 70
     2
  9
$LUPREC
 70
     4
  9
$SKETCHINC
 40
1.0
  9
$FILLETRAD
 40
0.0
  9
$AUNITS
 70
     0
  9
$AUPREC
 70
     0
  9
$MENU
  1
.
  9
$ELEVATION
 40
0.0
  9
$PELEVATION
 40
0.0
  9
$THICKNESS
 40
0.0
  9
$LIMCHECK
 70
     0
  9
$BLIPMODE
 70
     0
  9
$CHAMFERA
 40
1.149999999999999
  9
$CHAMFERB
 40
1.149999999999999
  9
$SKPOLY
 70
     0
  9
$TDCREATE
 40
2452949.7610655092
  9
$TDUPDATE
 40
2458563.7760240752
  9
$TDINDWG
 40
0.1624536343
  9
$TDUSRTIMER
 40
0.1624536343
  9
$USRTIMER
 70
     1
  9
$ANGBASE
 50
0.0
  9
$ANGDIR
 70
     0
  9
$PDMODE
 70
     0
  9
$PDSIZE
 40
0.0
  9
$PLINEWID
 40
0.0
  9
$COORDS
 70
     1
  9
$SPLFRAME
 70
     0
  9
$SPLINETYPE
 70
     6
  9
$SPLINESEGS
 70
     8
  9
$ATTDIA
 70
     1
  9
$ATTREQ
 70
     1
  9
$HANDLING
 70
     1
  9
$HANDSEED
  5
7CA
  9
$SURFTAB1
 70
     6
  9
$SURFTAB2
 70
     6
  9
$SURFTYPE
 70
     6
  9
$SURFU
 70
     6
  9
$SURFV
 70
     6
  9
$UCSNAME
  2

  9
$UCSORG
 10
0.0
 20
0.0
 30
0.0
  9
$UCSXDIR
 10
1.0
 20
0.0
 30
0.0
  9
$UCSYDIR
 10
0.0
 20
1.0
 30
0.0
  9
$PUCSNAME
  2

  9
$PUCSORG
 10
0.0
 20
0.0
 30
0.0
  9
$PUCSXDIR
 10
1.0
 20
0.0
 30
0.0
  9
$PUCSYDIR
 10
0.0
 20
1.0
 30
0.0
  9
$USERI1
 70
     0
  9
$USERI2
 70
     0
  9
$USERI3
 70
     0
  9
$USERI4
 70
     0
  9
$USERI5
 70
     0
  9
$USERR1
 40
0.0
  9
$USERR2
 40
0.0
  9
$USERR3
 40
0.0
  9
$USERR4
 40
0.0
  9
$USERR5
 40
0.0
  9
$WORLDVIEW
 70
     1
  9
$SHADEDGE
 70
     3
  9
$SHADEDIF
 70
    70
  9
$TILEMODE
 70
     1
  9
$MAXACTVP
 70
    48
  9
$PLIMCHECK
 70
     0
  9
$PEXTMIN
 10
1.0000000000000000E+020
 20
1.0000000000000000E+020
 30
1.0000000000000000E+020
  9
$PEXTMAX
 10
-1.0000000000000000E+020
 20
-1.0000000000000000E+020
 30
-1.0000000000000000E+020
  9
$PLIMMIN
 10
0.0
 20
0.0
  9
$PLIMMAX
 10
420.0
 20
297.0
  9
$UNITMODE
 70
     0
  9
$VISRETAIN
 70
     1
  9
$PLINEGEN
 70
     0
  9
$PSLTSCALE
 70
     1
  0
ENDSEC
  0
SECTION
  2
TABLES
  0
TABLE
  2
VPORT
 70
     1
  0
VPORT
  2
*ACTIVE
 70
     0
 10
0.0
 20
0.0
 11
1.0
 21
1.0
 12
0.0
 22
0.0
 13
0.0
 23
0.0
 14
0.5
 24
0.5
 15
10.0
 25
10.0
 16
-6.3622361685164028
 26
-6.3622361685164028
 36
6.3622361685164028
 17
0.6714698455954248
 27
0.6735432979169805
 37
0.2360905869098747
 40
3.4986897297373889
 41
2.5847619047619039
 42
50.0
 43
0.0
 44
0.0
 50
0.0
 51
0.0
 71
     0
 72
   100
 73
     1
 74
     3
 75
     0
 76
     0
 77
     0
 78
     0
  0
ENDTAB
  0
TABLE
  2
LTYPE
 70
     1
  0
LTYPE
  2
CONTINUOUS
 70
     0
  3
Solid line
 72
    65
 73
     0
 40
0.0
  0
ENDTAB
  0
TABLE
  2
LAYER
 70
     3
  0
LAYER
  2
0
 70
     0
 62
     7
  6
CONTINUOUS
  0
LAYER
  2
ASHADE
 70
     4
 62
     7
  6
CONTINUOUS
  0
LAYER
  2
DEFPOINTS
 70
     0
 62
     7
  6
CONTINUOUS
  0
ENDTAB
  0
TABLE
  2
STYLE
 70
     1
  0
STYLE
  2
STANDARD
 70
     0
 40
0.0
 41
1.0
 50
0.0
 71
     0
 42
2.5
  3
isocp.shx
  4

  0
ENDTAB
  0
TABLE
  2
VIEW
 70
     0
  0
ENDTAB
  0
TABLE
  2
UCS
 70
     0
  0
ENDTAB
  0
TABLE
  2
APPID
 70
     9
  0
APPID
  2
ACAD
 70
     0
  0
APPID
  2
AVE_RENDER
 70
     0
  0
APPID
  2
AVE_ENTITY_MATERIAL
 70
     0
  0
APPID
  2
AVE_FINISH
 70
     0
  0
APPID
  2
AVE_MATERIAL
 70
     0
  0
APPID
  2
AVE_GLOBAL
 70
     0
  0
APPID
  2
ACAD_EXEMPT_FROM_CAD_STANDARDS
 70
     0
  0
APPID
  2
ACAD_NAV_VCDISPLAY
 70
     0
  0
APPID
  2
ACAD_MLEADERVER
 70
     0
  0
ENDTAB
  0
TABLE
  2
DIMSTYLE
 70
     1
  0
DIMSTYLE
  2
STANDARD
 70
     0
  3

  4

  5

  6

  7

 40
1.0
 41
0.18
 42
0.0625
 43
0.38
 44
0.18
 45
0.0
 46
0.0
 47
0.0
 48
0.0
140
0.18
141
0.09
142
0.0
143
25.399999999999999
144
1.0
145
0.0
146
1.0
147
0.09
 71
     0
 72
     0
 73
     1
 74
     1
 75
     0
 76
     0
 77
     0
 78
     0
170
     0
171
     2
172
     0
173
     0
174
     0
175
     0
176
     0
177
     0
178
     0
  0
ENDTAB
  0
ENDSEC
  0
SECTION
  2
BLOCKS
  0
BLOCK
  8
0
  2
$MODEL_SPACE
 70
     0
 10
0.0
 20
0.0
 30
0.0
  3
$MODEL_SPACE
  1

  0
ENDBLK
  5
1A
  8
0
  0
BLOCK
 67
     1
  8
0
  2
$PAPER_SPACE
 70
     0
 10
0.0
 20
0.0
 30
0.0
  3
$PAPER_SPACE
  1

  0
ENDBLK
  5
17
 67
     1
  8
0
  0
BLOCK
  8
ASHADE
  2
AVE_RENDER
 70
     0
 10
0.0
 20
0.0
 30
0.0
  3
AVE_RENDER
  1
AVE_RENDER
  0
ENDBLK
  5
41
  8
0
  0
BLOCK
  8
ASHADE
  2
AVE_GLOBAL
 70
     0
 10
0.0
 20
0.0
 30
0.0
  3
AVE_GLOBAL
  1
AVE_GLOBAL
  0
ENDBLK
  5
4F
  8
0
  0
BLOCK
  8
0
  2
*U2
 70
     1
 10
0.0
 20
0.0
 30
0.0
  3
*U2
  1

  0
LINE
  5
76E
  8
0
 62
   254
 10
1.599999999999999
 20
0.8
 30
1.6000000000000001
 11
1.599999999999999
 21
-0.8
 31
1.6000000000000001
210
1.0
220
0.0
230
0.0
  0
LINE
  5
76F
  8
0
 62
   254
 10
1.599999999999999
 20
-0.8
 30
1.6000000000000001
 11
1.599999999999999
 21
-0.8
 31
0.0
210
1.0
220
0.0
230
0.0
  0
LINE
  5
770
  8
0
 62
   254
 10
1.599999999999999
 20
0.8
 30
0.0
 11
1.599999999999999
 21
-0.8
 31
0.0
210
1.0
220
0.0
230
0.0
  0
LINE
  5
771
  8
0
 62
   254
 10
1.599999999999999
 20
0.8
 30
1.6000000000000001
 11
1.599999999999999
 21
0.8
 31
0.0
210
1.0
220
0.0
230
0.0
  0
LINE
  5
772
  8
0
 62
   254
 10
1.099999999999999
 20
0.8
 30
1.6000000000000001
 11
1.599999999999999
 21
0.8
 31
1.6000000000000001
210
0.0
220
1.0
230
0.0
  0
LINE
  5
773
  8
0
 62
   254
 10
1.599999999999999
 20
0.8
 30
1.6000000000000001
 11
1.599999999999999
 21
0.8
 31
0.0
210
0.0
220
1.0
230
0.0
  0
LINE
  5
774
  8
0
 62
   254
 10
1.099999999999999
 20
0.8
 30
0.0
 11
1.599999999999999
 21
0.8
 31
0.0
210
0.0
220
1.0
230
0.0
  0
LINE
  5
775
  8
0
 62
   254
 10
1.099999999999999
 20
0.8
 30
1.6000000000000001
 11
1.099999999999999
 21
0.8
 31
0.0
210
0.0
220
1.0
230
0.0
  0
LINE
  5
776
  8
0
 62
   254
 10
1.099999999999999
 20
-0.8
 30
1.6000000000000001
 11
1.099999999999999
 21
0.8
 31
1.6000000000000001
210
-1.0
220
0.0
230
0.0
  0
LINE
  5
777
  8
0
 62
   254
 10
1.099999999999999
 20
0.8
 30
1.6000000000000001
 11
1.099999999999999
 21
0.8
 31
0.0
210
-1.0
220
0.0
230
0.0
  0
LINE
  5
778
  8
0
 62
   254
 10
1.099999999999999
 20
-0.8
 30
0.0
 11
1.099999999999999
 21
0.8
 31
0.0
210
-1.0
220
0.0
230
0.0
  0
LINE
  5
779
  8
0
 62
   254
 10
1.099999999999999
 20
-0.8
 30
1.6000000000000001
 11
1.099999999999999
 21
-0.8
 31
0.0
210
-1.0
220
0.0
230
0.0
  0
LINE
  5
77A
  8
0
 62
   254
 10
1.599999999999999
 20
-0.8
 30
1.6000000000000001
 11
1.099999999999999
 21
-0.8
 31
1.6000000000000001
210
0.0
220
-1.0
230
0.0
  0
LINE
  5
77B
  8
0
 62
   254
 10
1.099999999999999
 20
-0.8
 30
1.6000000000000001
 11
1.099999999999999
 21
-0.8
 31
0.0
210
0.0
220
-1.0
230
0.0
  0
LINE
  5
77C
  8
0
 62
   254
 10
1.599999999999999
 20
-0.8
 30
0.0
 11
1.099999999999999
 21
-0.8
 31
0.0
210
0.0
220
-1.0
230
0.0
  0
LINE
  5
77D
  8
0
 62
   254
 10
1.599999999999999
 20
-0.8
 30
1.6000000000000001
 11
1.599999999999999
 21
-0.8
 31
0.0
210
0.0
220
-1.0
230
0.0
  0
LINE
  5
77E
  8
0
 62
   254
 10
1.599999999999999
 20
-0.8
 30
0.0
 11
1.099999999999999
 21
-0.8
 31
0.0
210
0.0
220
0.0
230
-1.0
  0
LINE
  5
77F
  8
0
 62
   254
 10
1.099999999999999
 20
-0.8
 30
0.0
 11
1.099999999999999
 21
0.8
 31
0.0
210
0.0
220
0.0
230
-1.0
  0
LINE
  5
780
  8
0
 62
   254
 10
1.099999999999999
 20
0.8
 30
0.0
 11
1.599999999999999
 21
0.8
 31
0.0
210
0.0
220
0.0
230
-1.0
  0
LINE
  5
781
  8
0
 62
   254
 10
1.599999999999999
 20
0.8
 30
0.0
 11
1.599999999999999
 21
-0.8
 31
0.0
210
0.0
220
0.0
230
-1.0
  0
LINE
  5
782
  8
0
 62
   254
 10
1.599999999999999
 20
-0.8
 30
1.6000000000000001
 11
1.099999999999999
 21
-0.8
 31
1.6000000000000001
  0
LINE
  5
783
  8
0
 62
   254
 10
1.599999999999999
 20
0.8
 30
1.6000000000000001
 11
1.599999999999999
 21
-0.8
 31
1.6000000000000001
  0
LINE
  5
784
  8
0
 62
   254
 10
1.099999999999999
 20
0.8
 30
1.6000000000000001
 11
1.599999999999999
 21
0.8
 31
1.6000000000000001
  0
LINE
  5
785
  8
0
 62
   254
 10
1.099999999999999
 20
-0.8
 30
1.6000000000000001
 11
1.099999999999999
 21
0.8
 31
1.6000000000000001
  0
ENDBLK
  5
787
  8
0
  0
BLOCK
  8
0
  2
*U3
 70
     1
 10
0.0
 20
0.0
 30
0.0
  3
*U3
  1

  0
LINE
  5
78F
  8
0
 62
    61
 10
1.099999999999999
 20
0.8
 30
1.6000000000000001
 11
1.099999999999999
 21
-0.8
 31
1.6000000000000001
210
1.0
220
0.0
230
0.0
  0
LINE
  5
790
  8
0
 62
    61
 10
1.099999999999999
 20
-0.8
 30
1.6000000000000001
 11
1.099999999999999
 21
-0.8
 31
0.0
210
1.0
220
0.0
230
0.0
  0
LINE
  5
791
  8
0
 62
    61
 10
1.099999999999999
 20
0.8
 30
0.0
 11
1.099999999999999
 21
-0.8
 31
0.0
210
1.0
220
0.0
230
0.0
  0
LINE
  5
792
  8
0
 62
    61
 10
1.099999999999999
 20
0.8
 30
1.6000000000000001
 11
1.099999999999999
 21
0.8
 31
0.0
210
1.0
220
0.0
230
0.0
  0
LINE
  5
793
  8
0
 62
    61
 10
-1.099999999999999
 20
0.8
 30
1.6000000000000001
 11
1.099999999999999
 21
0.8
 31
1.6000000000000001
210
0.0
220
1.0
230
0.0
  0
LINE
  5
794
  8
0
 62
    61
 10
1.099999999999999
 20
0.8
 30
1.6000000000000001
 11
1.099999999999999
 21
0.8
 31
0.0
210
0.0
220
1.0
230
0.0
  0
LINE
  5
795
  8
0
 62
    61
 10
-1.099999999999999
 20
0.8
 30
0.0
 11
1.099999999999999
 21
0.8
 31
0.0
210
0.0
220
1.0
230
0.0
  0
LINE
  5
796
  8
0
 62
    61
 10
-1.099999999999999
 20
0.8
 30
1.6000000000000001
 11
-1.099999999999999
 21
0.8
 31
0.0
210
0.0
220
1.0
230
0.0
  0
LINE
  5
797
  8
0
 62
    61
 10
-1.099999999999999
 20
-0.8
 30
1.6000000000000001
 11
-1.099999999999999
 21
0.8
 31
1.6000000000000001
210
-1.0
220
0.0
230
0.0
  0
LINE
  5
798
  8
0
 62
    61
 10
-1.099999999999999
 20
0.8
 30
1.6000000000000001
 11
-1.099999999999999
 21
0.8
 31
0.0
210
-1.0
220
0.0
230
0.0
  0
LINE
  5
799
  8
0
 62
    61
 10
-1.099999999999999
 20
-0.8
 30
0.0
 11
-1.099999999999999
 21
0.8
 31
0.0
210
-1.0
220
0.0
230
0.0
  0
LINE
  5
79A
  8
0
 62
    61
 10
-1.099999999999999
 20
-0.8
 30
1.6000000000000001
 11
-1.099999999999999
 21
-0.8
 31
0.0
210
-1.0
220
0.0
230
0.0
  0
LINE
  5
79B
  8
0
 62
    61
 10
1.099999999999999
 20
-0.8
 30
1.6000000000000001
 11
-1.099999999999999
 21
-0.8
 31
1.6000000000000001
210
0.0
220
-1.0
230
0.0
  0
LINE
  5
79C
  8
0
 62
    61
 10
-1.099999999999999
 20
-0.8
 30
1.6000000000000001
 11
-1.099999999999999
 21
-0.8
 31
0.0
210
0.0
220
-1.0
230
0.0
  0
LINE
  5
79D
  8
0
 62
    61
 10
1.099999999999999
 20
-0.8
 30
0.0
 11
-1.099999999999999
 21
-0.8
 31
0.0
210
0.0
220
-1.0
230
0.0
  0
LINE
  5
79E
  8
0
 62
    61
 10
1.099999999999999
 20
-0.8
 30
1.6000000000000001
 11
1.099999999999999
 21
-0.8
 31
0.0
210
0.0
220
-1.0
230
0.0
  0
LINE
  5
79F
  8
0
 62
    61
 10
1.099999999999999
 20
-0.8
 30
0.0
 11
-1.099999999999999
 21
-0.8
 31
0.0
210
0.0
220
0.0
230
-1.0
  0
LINE
  5
7A0
  8
0
 62
    61
 10
-1.099999999999999
 20
-0.8
 30
0.0
 11
-1.099999999999999
 21
0.8
 31
0.0
210
0.0
220
0.0
230
-1.0
  0
LINE
  5
7A1
  8
0
 62
    61
 10
-1.099999999999999
 20
0.8
 30
0.0
 11
1.099999999999999
 21
0.8
 31
0.0
210
0.0
220
0.0
230
-1.0
  0
LINE
  5
7A2
  8
0
 62
    61
 10
1.099999999999999
 20
0.8
 30
0.0
 11
1.099999999999999
 21
-0.8
 31
0.0
210
0.0
220
0.0
230
-1.0
  0
LINE
  5
7A3
  8
0
 62
    61
 10
1.099999999999999
 20
-0.8
 30
1.6000000000000001
 11
-1.099999999999999
 21
-0.8
 31
1.6000000000000001
  0
LINE
  5
7A4
  8
0
 62
    61
 10
1.099999999999999
 20
0.8
 30
1.6000000000000001
 11
1.099999999999999
 21
-0.8
 31
1.6000000000000001
  0
LINE
  5
7A5
  8
0
 62
    61
 10
-1.099999999999999
 20
0.8
 30
1.6000000000000001
 11
1.099999999999999
 21
0.8
 31
1.6000000000000001
  0
LINE
  5
7A6
  8
0
 62
    61
 10
-1.099999999999999
 20
-0.8
 30
1.6000000000000001
 11
-1.099999999999999
 21
0.8
 31
1.6000000000000001
  0
ENDBLK
  5
7A8
  8
0
  0
BLOCK
  8
0
  2
*U4
 70
     1
 10
0.0
 20
0.0
 30
0.0
  3
*U4
  1

  0
LINE
  5
7B0
  8
0
 62
   254
 10
-1.6000000000000001
 20
-0.8
 30
1.6000000000000001
 11
-1.6000000000000001
 21
0.8
 31
1.6000000000000001
210
-1.0
220
0.0
230
0.0
  0
LINE
  5
7B1
  8
0
 62
   254
 10
-1.6000000000000001
 20
0.8
 30
1.6000000000000001
 11
-1.6000000000000001
 21
0.8
 31
0.0
210
-1.0
220
0.0
230
0.0
  0
LINE
  5
7B2
  8
0
 62
   254
 10
-1.6000000000000001
 20
-0.8
 30
0.0
 11
-1.6000000000000001
 21
0.8
 31
0.0
210
-1.0
220
0.0
230
0.0
  0
LINE
  5
7B3
  8
0
 62
   254
 10
-1.6000000000000001
 20
-0.8
 30
1.6000000000000001
 11
-1.6000000000000001
 21
-0.8
 31
0.0
210
-1.0
220
0.0
230
0.0
  0
LINE
  5
7B4
  8
0
 62
   254
 10
-1.099999999999999
 20
-0.8
 30
1.6000000000000001
 11
-1.6000000000000001
 21
-0.8
 31
1.6000000000000001
210
0.0
220
-1.0
230
0.0
  0
LINE
  5
7B5
  8
0
 62
   254
 10
-1.6000000000000001
 20
-0.8
 30
1.6000000000000001
 11
-1.6000000000000001
 21
-0.8
 31
0.0
210
0.0
220
-1.0
230
0.0
  0
LINE
  5
7B6
  8
0
 62
   254
 10
-1.099999999999999
 20
-0.8
 30
0.0
 11
-1.6000000000000001
 21
-0.8
 31
0.0
210
0.0
220
-1.0
230
0.0
  0
LINE
  5
7B7
  8
0
 62
   254
 10
-1.099999999999999
 20
-0.8
 30
1.6000000000000001
 11
-1.099999999999999
 21
-0.8
 31
0.0
210
0.0
220
-1.0
230
0.0
  0
LINE
  5
7B8
  8
0
 62
   254
 10
-1.099999999999999
 20
0.8
 30
1.6000000000000001
 11
-1.099999999999999
 21
-0.8
 31
1.6000000000000001
210
1.0
220
0.0
230
0.0
  0
LINE
  5
7B9
  8
0
 62
   254
 10
-1.099999999999999
 20
-0.8
 30
1.6000000000000001
 11
-1.099999999999999
 21
-0.8
 31
0.0
210
1.0
220
0.0
230
0.0
  0
LINE
  5
7BA
  8
0
 62
   254
 10
-1.099999999999999
 20
0.8
 30
0.0
 11
-1.099999999999999
 21
-0.8
 31
0.0
210
1.0
220
0.0
230
0.0
  0
LINE
  5
7BB
  8
0
 62
   254
 10
-1.099999999999999
 20
0.8
 30
1.6000000000000001
 11
-1.099999999999999
 21
0.8
 31
0.0
210
1.0
220
0.0
230
0.0
  0
LINE
  5
7BC
  8
0
 62
   254
 10
-1.6000000000000001
 20
0.8
 30
1.6000000000000001
 11
-1.099999999999999
 21
0.8
 31
1.6000000000000001
210
0.0
220
1.0
230
0.0
  0
LINE
  5
7BD
  8
0
 62
   254
 10
-1.099999999999999
 20
0.8
 30
1.6000000000000001
 11
-1.099999999999999
 21
0.8
 31
0.0
210
0.0
220
1.0
230
0.0
  0
LINE
  5
7BE
  8
0
 62
   254
 10
-1.6000000000000001
 20
0.8
 30
0.0
 11
-1.099999999999999
 21
0.8
 31
0.0
210
0.0
220
1.0
230
0.0
  0
LINE
  5
7BF
  8
0
 62
   254
 10
-1.6000000000000001
 20
0.8
 30
1.6000000000000001
 11
-1.6000000000000001
 21
0.8
 31
0.0
210
0.0
220
1.0
230
0.0
  0
LINE
  5
7C0
  8
0
 62
   254
 10
-1.6000000000000001
 20
0.8
 30
0.0
 11
-1.099999999999999
 21
0.8
 31
0.0
210
0.0
220
0.0
230
-1.0
  0
LINE
  5
7C1
  8
0
 62
   254
 10
-1.099999999999999
 20
0.8
 30
0.0
 11
-1.099999999999999
 21
-0.8
 31
0.0
210
0.0
220
0.0
230
-1.0
  0
LINE
  5
7C2
  8
0
 62
   254
 10
-1.099999999999999
 20
-0.8
 30
0.0
 11
-1.6000000000000001
 21
-0.8
 31
0.0
210
0.0
220
0.0
230
-1.0
  0
LINE
  5
7C3
  8
0
 62
   254
 10
-1.6000000000000001
 20
-0.8
 30
0.0
 11
-1.6000000000000001
 21
0.8
 31
0.0
210
0.0
220
0.0
230
-1.0
  0
LINE
  5
7C4
  8
0
 62
   254
 10
-1.6000000000000001
 20
0.8
 30
1.6000000000000001
 11
-1.099999999999999
 21
0.8
 31
1.6000000000000001
  0
LINE
  5
7C5
  8
0
 62
   254
 10
-1.6000000000000001
 20
-0.8
 30
1.6000000000000001
 11
-1.6000000000000001
 21
0.8
 31
1.6000000000000001
  0
LINE
  5
7C6
  8
0
 62
   254
 10
-1.099999999999999
 20
-0.8
 30
1.6000000000000001
 11
-1.6000000000000001
 21
-0.8
 31
1.6000000000000001
  0
LINE
  5
7C7
  8
0
 62
   254
 10
-1.099999999999999
 20
0.8
 30
1.6000000000000001
 11
-1.099999999999999
 21
-0.8
 31
1.6000000000000001
  0
ENDBLK
  5
7C9
  8
0
  0
ENDSEC
  0
SECTION
  2
ENTITIES
  0
INSERT
  5
42
  8
ASHADE
 62
     1
  2
AVE_RENDER
 10
0.0
 20
0.0
 30
0.0
1001
AVE_RENDER
1002
{
1070
     7
1000
Pref
1070
    30
1070
    20
1070
     1
1070
     0
1000

1070
    10
1070
     1
1070
    10
1040
1.0
1070
     1
1040
0.3
1040
0.7
1040
0.0
1040
10.0
1010
-1.0
1020
-1.0
1030
-1.0
1040
0.3
1070
    49
1070
     0
1070
     0
1010
1.0
1020
1.0
1030
1.0
1040
45.0
1070
     1
1070
     0
1000
WCS
1040
0.0
1070
     0
1040
10.0
1002
}
  0
INSERT
  5
43
  8
ASHADE
 62
     3
  2
AVE_RENDER
 10
0.0
 20
0.0
 30
0.0
1001
AVE_RENDER
1002
{
1070
     0
1000
Full Opt
1070
     0
1070
     1
1070
     1
1070
     1
1070
     0
1070
     0
1070
     0
1070
     1
1070
     1
1040
0.0001
1040
0.0001
1002
}
  0
INSERT
  5
44
  8
ASHADE
 62
     4
  2
AVE_RENDER
 10
0.0
 20
0.0
 30
0.0
1001
AVE_RENDER
1002
{
1070
     0
1000
Quick Opt
1070
     0
1070
     1
1070
     1
1070
     1
1070
     0
1070
     0
1070
     1
1002
}
  0
INSERT
  5
45
  8
ASHADE
 62
     5
  2
AVE_RENDER
 10
0.0
 20
0.0
 30
0.0
1001
AVE_RENDER
1002
{
1070
     1
1000
Scanl Opt
1070
     2
1070
     0
1070
     2
1040
2.0
1040
4.0
1070
     0
1070
     1
1070
     0
1040
0.03
1002
}
  0
INSERT
  5
46
  8
ASHADE
 62
     6
  2
AVE_RENDER
 10
0.0
 20
0.0
 30
0.0
1001
AVE_RENDER
1002
{
1070
     2
1000
Raytr Opt
1070
     2
1070
     0
1070
     2
1040
2.0
1040
4.0
1070
     0
1070
     1
1070
     1
1040
0.03
1070
     3
1040
0.03
1002
}
  0
INSERT
  5
47
  8
ASHADE
 62
     7
  2
AVE_RENDER
 10
0.0
 20
0.0
 30
0.0
1001
AVE_RENDER
1002
{
1070
     0
1000
RFile Opt
1070
     1
1070
   640
1070
   480
1070
 10000
1070
     1
1070
     8
1070
     8
1070
     0
1070
     0
1070
     0
1070
     0
1070
     0
1070
     0
1070
     0
1002
}
  0
INSERT
  5
48
  8
ASHADE
 62
     8
  2
AVE_RENDER
 10
0.0
 20
0.0
 30
0.0
1001
AVE_RENDER
1002
{
1070
     0
1000
Fog Opt
1070
     0
1070
     0
1040
0.0
1040
1.0
1040
0.0
1040
1.0
1010
0.5
1020
0.5
1030
0.5
1002
}
  0
INSERT
  5
49
  8
ASHADE
 62
     9
  2
AVE_RENDER
 10
0.0
 20
0.0
 30
0.0
1001
AVE_RENDER
1002
{
1070
     0
1000
BG Opt
1070
     0
1070
     1
1010
0.0
1020
0.0
1030
0.0
1010
1.0
1020
0.0
1030
0.0
1010
0.0
1020
1.0
1030
0.0
1010
0.0
1020
0.0
1030
1.0
1040
0.5
1040
0.33
1040
0.0
1000

1070
     1
1000

1070
     1
1070
     1
1040
1.0
1040
1.0
1040
0.0
1040
0.0
1070
     0
1002
}
  0
INSERT
  5
50
  8
ASHADE
 62
     1
  2
AVE_GLOBAL
 10
0.0
 20
0.0
 30
0.0
1001
AVE_MATERIAL
1002
{
1000
*GLOBAL*
1000
1
1000
Global finish.
1002
{
1002
}
1002
{
1070
    63
1002
{
1002
{
1010
-1.0
1020
-1.0
1030
-1.0
1002
}
1040
0.1000000014901161
1000

1040
0.0
1002
{
1002
}
1040
0.0
1002
{
1002
}
1040
0.0
1002
}
1002
{
1002
{
1010
-1.0
1020
-1.0
1030
-1.0
1002
}
1040
0.699999988079071
1000

1040
0.0
1002
{
1002
}
1040
0.0
1002
{
1002
}
1040
0.0
1002
}
1002
{
1002
{
1010
-1.0
1020
-1.0
1030
-1.0
1002
}
1040
0.2000000029802322
1000

1040
0.0
1002
{
1002
}
1040
0.0
1002
{
1002
}
1040
0.0
1002
}
1002
{
1070
     0
1002
{
1070
     1
1002
{
1040
1.0
1040
1.0
1000

1040
0.0
1002
{
1002
}
1040
0.0
1002
{
1002
}
1040
0.0
1002
}
1002
}
1040
1.0
1040
0.0
1040
0.0
1002
}
1002
{
1040
1.0
1040
1.0
1000

1040
0.0
1002
{
1002
}
1040
0.0
1002
{
1002
}
1040
0.0
1002
}
1002
{
1040
0.5
1040
1.0
1000

1040
0.0
1002
{
1002
}
1040
0.0
1002
{
1002
}
1040
0.0
1002
}
1002
{
1070
     0
1040
0.0
1002
{
1002
}
1040
1.0
1002
{
1002
}
1040
0.0
1002
}
1002
{
1040
0.0
1002
{
1002
{
1010
0.0
1020
0.0
1030
0.0
1002
}
1040
1.0
1000

1040
0.0
1002
{
1002
}
1040
0.0
1002
{
1002
}
1040
0.0
1002
}
1002
}
1002
{
1002
{
1070
     1
1002
{
1040
0.0
1040
1.0
1000

1040
0.0
1002
{
1002
}
1040
0.0
1002
{
1002
}
1040
0.0
1002
}
1002
}
1040
0.0
1002
{
1002
}
1010
1.0
1020
0.0
1030
0.0
1010
0.0
1020
1.0
1030
0.0
1010
0.0
1020
0.0
1030
1.0
1070
     0
1002
}
1002
{
1002
{
1040
1.0
1040
1.0
1002
{
1070
     1
1002
{
1040
1.0
1040
1.0
1000

1040
0.0
1002
{
1002
}
1040
0.0
1002
{
1002
}
1040
0.0
1002
}
1002
}
1002
}
1070
     0
1040
0.0
1002
{
1002
}
1002
}
1002
{
1002
}
1002
}
1002
{
1071
        3
1070
     3
1070
     0
1002
{
1070
     2
1070
     0
1070
     0
1040
0.0
1002
}
1070
     0
1070
     2
1002
{
1002
}
1002
}
1002
{
1040
8030.0
1040
190.30000305175781
1040
0.3050000071525574
1040
228.0
1040
545.0
1040
14.0
1040
17.39999961853027
1040
0.4560000002384186
1002
}
1002
}
  0
INSERT
  5
6F1
  8
0
  2
*U2
 10
0.0
 20
0.0
 30
0.0
  0
INSERT
  5
6F5
  8
0
  2
*U3
 10
0.0
 20
0.0
 30
0.0
  0
INSERT
  5
6F9
  8
0
  2
*U4
 10
0.0
 20
0.0
 30
0.0
  0
ENDSEC
  0
EOF
