  0
SECTION
  2
HEADER
  9
$ACADVER
  1
AC1009
  9
$INSBASE
 10
0.0
 20
0.0
 30
0.0
  9
$EXTMIN
 10
-1.27
 20
-1.25
 30
-3.0
  9
$EXTMAX
 10
19.050000000000001
 20
1.25
 30
9.4000000000000004
  9
$LIMMIN
 10
0.0
 20
0.0
  9
$LIMMAX
 10
420.0
 20
297.0
  9
$ORTHOMODE
 70
     0
  9
$REGENMODE
 70
     1
  9
$FILLMODE
 70
     1
  9
$QTEXTMODE
 70
     0
  9
$MIRRTEXT
 70
     1
  9
$DRAGMODE
 70
     2
  9
$LTSCALE
 40
1.0
  9
$OSMODE
 70
  2295
  9
$ATTMODE
 70
     1
  9
$TEXTSIZE
 40
2.5
  9
$TRACEWID
 40
1.0
  9
$TEXTSTYLE
  7
STANDARD
  9
$CLAYER
  8
0
  9
$CELTYPE
  6
BYLAYER
  9
$CECOLOR
 62
   256
  9
$DIMSCALE
 40
1.0
  9
$DIMASZ
 40
2.5
  9
$DIMEXO
 40
0.625
  9
$DIMDLI
 40
3.75
  9
$DIMRND
 40
0.0
  9
$DIMDLE
 40
0.0
  9
$DIMEXE
 40
1.25
  9
$DIMTP
 40
0.0
  9
$DIMTM
 40
0.0
  9
$DIMTXT
 40
2.5
  9
$DIMCEN
 40
2.5
  9
$DIMTSZ
 40
0.0
  9
$DIMTOL
 70
     0
  9
$DIMLIM
 70
     0
  9
$DIMTIH
 70
     0
  9
$DIMTOH
 70
     0
  9
$DIMSE1
 70
     0
  9
$DIMSE2
 70
     0
  9
$DIMTAD
 70
     1
  9
$DIMZIN
 70
     8
  9
$DIMBLK
  1

  9
$DIMASO
 70
     1
  9
$DIMSHO
 70
     1
  9
$DIMPOST
  1

  9
$DIMAPOST
  1

  9
$DIMALT
 70
     0
  9
$DIMALTD
 70
     4
  9
$DIMALTF
 40
0.0394
  9
$DIMLFAC
 40
1.0
  9
$DIMTOFL
 70
     1
  9
$DIMTVP
 40
0.0
  9
$DIMTIX
 70
     0
  9
$DIMSOXD
 70
     0
  9
$DIMSAH
 70
     0
  9
$DIMBLK1
  1

  9
$DIMBLK2
  1

  9
$DIMSTYLE
  2
STANDARD
  9
$DIMCLRD
 70
     0
  9
$DIMCLRE
 70
     0
  9
$DIMCLRT
 70
     0
  9
$DIMTFAC
 40
1.0
  9
$DIMGAP
 40
0.625
  9
$LUNITS
 70
     2
  9
$LUPREC
 70
     4
  9
$SKETCHINC
 40
1.0
  9
$FILLETRAD
 40
1.0
  9
$AUNITS
 70
     0
  9
$AUPREC
 70
     0
  9
$MENU
  1
.
  9
$ELEVATION
 40
0.0
  9
$PELEVATION
 40
0.0
  9
$THICKNESS
 40
0.0
  9
$LIMCHECK
 70
     0
  9
$BLIPMODE
 70
     0
  9
$CHAMFERA
 40
0.1
  9
$CHAMFERB
 40
0.3
  9
$SKPOLY
 70
     0
  9
$TDCREATE
 40
2452949.8443988431
  9
$TDUPDATE
 40
2458394.8744511688
  9
$TDINDWG
 40
0.1146417708
  9
$TDUSRTIMER
 40
0.1146417708
  9
$USRTIMER
 70
     1
  9
$ANGBASE
 50
0.0
  9
$ANGDIR
 70
     0
  9
$PDMODE
 70
    98
  9
$PDSIZE
 40
0.0
  9
$PLINEWID
 40
0.0
  9
$COORDS
 70
     1
  9
$SPLFRAME
 70
     0
  9
$SPLINETYPE
 70
     6
  9
$SPLINESEGS
 70
     8
  9
$ATTDIA
 70
     1
  9
$ATTREQ
 70
     1
  9
$HANDLING
 70
     1
  9
$HANDSEED
  5
628
  9
$SURFTAB1
 70
     6
  9
$SURFTAB2
 70
     6
  9
$SURFTYPE
 70
     6
  9
$SURFU
 70
     6
  9
$SURFV
 70
     6
  9
$UCSNAME
  2

  9
$UCSORG
 10
0.0
 20
0.0
 30
0.0
  9
$UCSXDIR
 10
1.0
 20
0.0
 30
0.0
  9
$UCSYDIR
 10
0.0
 20
1.0
 30
0.0
  9
$PUCSNAME
  2

  9
$PUCSORG
 10
0.0
 20
0.0
 30
0.0
  9
$PUCSXDIR
 10
1.0
 20
0.0
 30
0.0
  9
$PUCSYDIR
 10
0.0
 20
1.0
 30
0.0
  9
$USERI1
 70
     0
  9
$USERI2
 70
     0
  9
$USERI3
 70
     0
  9
$USERI4
 70
     0
  9
$USERI5
 70
     0
  9
$USERR1
 40
0.0
  9
$USERR2
 40
0.0
  9
$USERR3
 40
0.0
  9
$USERR4
 40
0.0
  9
$USERR5
 40
0.0
  9
$WORLDVIEW
 70
     1
  9
$SHADEDGE
 70
     3
  9
$SHADEDIF
 70
    70
  9
$TILEMODE
 70
     1
  9
$MAXACTVP
 70
    48
  9
$PLIMCHECK
 70
     0
  9
$PEXTMIN
 10
1.0000000000000000E+020
 20
1.0000000000000000E+020
 30
1.0000000000000000E+020
  9
$PEXTMAX
 10
-1.0000000000000000E+020
 20
-1.0000000000000000E+020
 30
-1.0000000000000000E+020
  9
$PLIMMIN
 10
0.0
 20
0.0
  9
$PLIMMAX
 10
420.0
 20
297.0
  9
$UNITMODE
 70
     0
  9
$VISRETAIN
 70
     1
  9
$PLINEGEN
 70
     0
  9
$PSLTSCALE
 70
     1
  0
ENDSEC
  0
SECTION
  2
TABLES
  0
TABLE
  2
VPORT
 70
     1
  0
VPORT
  2
*ACTIVE
 70
     0
 10
0.0
 20
0.0
 11
1.0
 21
1.0
 12
0.0
 22
0.0
 13
0.0
 23
0.0
 14
1.0
 24
1.0
 15
10.0
 25
10.0
 16
-35.6629218170455
 26
-35.662921817045493
 36
35.662921817045493
 17
12.59858108057437
 27
-9.2582317022903418
 37
5.9764994822865383
 40
19.611579166326401
 41
2.5847619047619039
 42
50.0
 43
0.0
 44
0.0
 50
0.0
 51
0.0000000000000045
 71
     0
 72
   100
 73
     1
 74
     3
 75
     0
 76
     0
 77
     0
 78
     0
  0
ENDTAB
  0
TABLE
  2
LTYPE
 70
     1
  0
LTYPE
  2
CONTINUOUS
 70
     0
  3
Solid line
 72
    65
 73
     0
 40
0.0
  0
ENDTAB
  0
TABLE
  2
LAYER
 70
     2
  0
LAYER
  2
0
 70
     0
 62
     7
  6
CONTINUOUS
  0
LAYER
  2
ASHADE
 70
     4
 62
     7
  6
CONTINUOUS
  0
ENDTAB
  0
TABLE
  2
STYLE
 70
     2
  0
STYLE
  2
STANDARD
 70
     0
 40
0.0
 41
1.0
 50
0.0
 71
     0
 42
2.5
  3
txt
  4

  0
STYLE
  2
ASHADE
 70
     0
 40
0.2
 41
1.0
 50
0.0
 71
     0
 42
2.5
  3
simplex.shx
  4

  0
ENDTAB
  0
TABLE
  2
VIEW
 70
     1
  0
ENDTAB
  0
TABLE
  2
UCS
 70
     0
  0
ENDTAB
  0
TABLE
  2
APPID
 70
     8
  0
APPID
  2
ACAD
 70
     0
  0
APPID
  2
AVE_RENDER
 70
     0
  0
APPID
  2
AVE_ENTITY_MATERIAL
 70
     0
  0
APPID
  2
AVE_FINISH
 70
     0
  0
APPID
  2
AVE_MATERIAL
 70
     0
  0
APPID
  2
AVE_GLOBAL
 70
     0
  0
APPID
  2
ACAD_NAV_VCDISPLAY
 70
     0
  0
APPID
  2
ACAD_MLEADERVER
 70
     0
  0
ENDTAB
  0
TABLE
  2
DIMSTYLE
 70
     1
  0
DIMSTYLE
  2
STANDARD
 70
     0
  3

  4

  5

  6

  7

 40
1.0
 41
0.18
 42
0.0625
 43
0.38
 44
0.18
 45
0.0
 46
0.0
 47
0.0
 48
0.0
140
0.18
141
0.09
142
0.0
143
25.399999999999999
144
1.0
145
0.0
146
1.0
147
0.09
 71
     0
 72
     0
 73
     1
 74
     1
 75
     0
 76
     0
 77
     0
 78
     0
170
     0
171
     2
172
     0
173
     0
174
     0
175
     0
176
     0
177
     0
178
     0
  0
ENDTAB
  0
ENDSEC
  0
SECTION
  2
BLOCKS
  0
BLOCK
  8
0
  2
$MODEL_SPACE
 70
     0
 10
0.0
 20
0.0
 30
0.0
  3
$MODEL_SPACE
  1

  0
ENDBLK
  5
1A
  8
0
  0
BLOCK
 67
     1
  8
0
  2
$PAPER_SPACE
 70
     0
 10
0.0
 20
0.0
 30
0.0
  3
$PAPER_SPACE
  1

  0
ENDBLK
  5
17
 67
     1
  8
0
  0
BLOCK
  8
ASHADE
  2
AVE_RENDER
 70
     0
 10
0.0
 20
0.0
 30
0.0
  3
AVE_RENDER
  1
AVE_RENDER
  0
ENDBLK
  5
41
  8
0
  0
BLOCK
  8
ASHADE
  2
AVE_GLOBAL
 70
     0
 10
0.0
 20
0.0
 30
0.0
  3
AVE_GLOBAL
  1
AVE_GLOBAL
  0
ENDBLK
  5
4F
  8
0
  0
BLOCK
  8
0
  2
*U2
 70
     1
 10
0.0
 20
0.0
 30
0.0
  3
*U2
  1

  0
LINE
  5
2AA
  8
0
 62
    50
 10
-0.2
 20
-0.2
 30
-3.0
 11
0.2
 21
-0.2
 31
-3.0
210
0.0
220
-0.9486832980505138
230
-0.316227766016838
  0
LINE
  5
2AB
  8
0
 62
    50
 10
0.2
 20
-0.2
 30
-3.0
 11
0.3
 21
-0.3
 31
-2.7000000000000002
210
0.0
220
-0.9486832980505138
230
-0.316227766016838
  0
LINE
  5
2AC
  8
0
 62
    50
 10
0.3
 20
-0.3
 30
-2.7000000000000002
 11
-0.3
 21
-0.3
 31
-2.7000000000000002
210
0.0
220
-0.9486832980505138
230
-0.316227766016838
  0
LINE
  5
2AD
  8
0
 62
    50
 10
-0.3
 20
-0.3
 30
-2.7000000000000002
 11
-0.2
 21
-0.2
 31
-3.0
210
0.0
220
-0.9486832980505138
230
-0.316227766016838
  0
LINE
  5
2AE
  8
0
 62
    50
 10
0.2
 20
-0.2
 30
-3.0
 11
0.2
 21
0.2
 31
-3.0
210
0.9486832980505138
220
0.0
230
-0.316227766016838
  0
LINE
  5
2AF
  8
0
 62
    50
 10
0.2
 20
0.2
 30
-3.0
 11
0.3
 21
0.3
 31
-2.7000000000000002
210
0.9486832980505138
220
0.0
230
-0.316227766016838
  0
LINE
  5
2B0
  8
0
 62
    50
 10
0.3
 20
0.3
 30
-2.7000000000000002
 11
0.3
 21
-0.3
 31
-2.7000000000000002
210
0.9486832980505138
220
0.0
230
-0.316227766016838
  0
LINE
  5
2B1
  8
0
 62
    50
 10
0.2
 20
-0.2
 30
-3.0
 11
0.3
 21
-0.3
 31
-2.7000000000000002
210
0.9486832980505138
220
0.0
230
-0.316227766016838
  0
LINE
  5
2B2
  8
0
 62
    50
 10
0.2
 20
0.2
 30
-3.0
 11
-0.2
 21
0.2
 31
-3.0
210
0.0
220
0.9486832980505138
230
-0.316227766016838
  0
LINE
  5
2B3
  8
0
 62
    50
 10
-0.2
 20
0.2
 30
-3.0
 11
-0.3
 21
0.3
 31
-2.7000000000000002
210
0.0
220
0.9486832980505138
230
-0.316227766016838
  0
LINE
  5
2B4
  8
0
 62
    50
 10
-0.3
 20
0.3
 30
-2.7000000000000002
 11
0.3
 21
0.3
 31
-2.7000000000000002
210
0.0
220
0.9486832980505138
230
-0.316227766016838
  0
LINE
  5
2B5
  8
0
 62
    50
 10
0.2
 20
0.2
 30
-3.0
 11
0.3
 21
0.3
 31
-2.7000000000000002
210
0.0
220
0.9486832980505138
230
-0.316227766016838
  0
LINE
  5
2B6
  8
0
 62
    50
 10
-0.2
 20
0.2
 30
-3.0
 11
-0.2
 21
-0.2
 31
-3.0
210
-0.9486832980505138
220
0.0
230
-0.316227766016838
  0
LINE
  5
2B7
  8
0
 62
    50
 10
-0.3
 20
-0.3
 30
-2.7000000000000002
 11
-0.2
 21
-0.2
 31
-3.0
210
-0.9486832980505138
220
0.0
230
-0.316227766016838
  0
LINE
  5
2B8
  8
0
 62
    50
 10
-0.3
 20
-0.3
 30
-2.7000000000000002
 11
-0.3
 21
0.3
 31
-2.7000000000000002
210
-0.9486832980505138
220
0.0
230
-0.316227766016838
  0
LINE
  5
2B9
  8
0
 62
    50
 10
-0.2
 20
0.2
 30
-3.0
 11
-0.3
 21
0.3
 31
-2.7000000000000002
210
-0.9486832980505138
220
0.0
230
-0.316227766016838
  0
LINE
  5
2BA
  8
0
 62
    50
 10
-0.3
 20
-0.3
 30
-2.7000000000000002
 11
-0.3
 21
0.3
 31
-2.7000000000000002
210
-1.0
220
0.0
230
0.0
  0
LINE
  5
2BB
  8
0
 62
    50
 10
-0.3
 20
-0.3
 30
-2.7000000000000002
 11
-0.3
 21
-0.3
 31
9.0999999999999996
210
-1.0
220
0.0
230
0.0
  0
LINE
  5
2BC
  8
0
 62
    50
 10
-0.3
 20
0.3
 30
9.0999999999999996
 11
-0.3
 21
-0.3
 31
9.0999999999999996
210
-1.0
220
0.0
230
0.0
  0
LINE
  5
2BD
  8
0
 62
    50
 10
-0.3
 20
0.3
 30
-2.7000000000000002
 11
-0.3
 21
0.3
 31
9.0999999999999996
210
-1.0
220
0.0
230
0.0
  0
LINE
  5
2BE
  8
0
 62
    50
 10
0.3
 20
-0.3
 30
-2.7000000000000002
 11
-0.3
 21
-0.3
 31
-2.7000000000000002
210
0.0
220
-1.0
230
0.0
  0
LINE
  5
2BF
  8
0
 62
    50
 10
0.3
 20
-0.3
 30
-2.7000000000000002
 11
0.3
 21
-0.3
 31
9.0999999999999996
210
0.0
220
-1.0
230
0.0
  0
LINE
  5
2C0
  8
0
 62
    50
 10
-0.3
 20
-0.3
 30
9.0999999999999996
 11
0.3
 21
-0.3
 31
9.0999999999999996
210
0.0
220
-1.0
230
0.0
  0
LINE
  5
2C1
  8
0
 62
    50
 10
-0.3
 20
-0.3
 30
-2.7000000000000002
 11
-0.3
 21
-0.3
 31
9.0999999999999996
210
0.0
220
-1.0
230
0.0
  0
LINE
  5
2C2
  8
0
 62
    50
 10
-0.2
 20
-0.2
 30
-3.0
 11
0.2
 21
-0.2
 31
-3.0
210
0.0
220
0.0
230
-1.0
  0
LINE
  5
2C3
  8
0
 62
    50
 10
-0.2
 20
0.2
 30
-3.0
 11
-0.2
 21
-0.2
 31
-3.0
210
0.0
220
0.0
230
-1.0
  0
LINE
  5
2C4
  8
0
 62
    50
 10
0.2
 20
0.2
 30
-3.0
 11
-0.2
 21
0.2
 31
-3.0
210
0.0
220
0.0
230
-1.0
  0
LINE
  5
2C5
  8
0
 62
    50
 10
0.2
 20
-0.2
 30
-3.0
 11
0.2
 21
0.2
 31
-3.0
210
0.0
220
0.0
230
-1.0
  0
LINE
  5
2C6
  8
0
 62
    50
 10
0.2
 20
0.2
 30
9.4000000000000004
 11
0.2
 21
-0.2
 31
9.4000000000000004
210
0.9486832980505139
220
0.0
230
0.3162277660168373
  0
LINE
  5
2C7
  8
0
 62
    50
 10
0.2
 20
-0.2
 30
9.4000000000000004
 11
0.3
 21
-0.3
 31
9.0999999999999996
210
0.9486832980505139
220
0.0
230
0.3162277660168373
  0
LINE
  5
2C8
  8
0
 62
    50
 10
0.3
 20
-0.3
 30
9.0999999999999996
 11
0.3
 21
0.3
 31
9.0999999999999996
210
0.9486832980505139
220
0.0
230
0.3162277660168373
  0
LINE
  5
2C9
  8
0
 62
    50
 10
0.2
 20
0.2
 30
9.4000000000000004
 11
0.3
 21
0.3
 31
9.0999999999999996
210
0.9486832980505139
220
0.0
230
0.3162277660168373
  0
LINE
  5
2CA
  8
0
 62
    50
 10
0.2
 20
-0.2
 30
9.4000000000000004
 11
-0.2
 21
-0.2
 31
9.4000000000000004
210
0.0
220
-0.9486832980505139
230
0.3162277660168373
  0
LINE
  5
2CB
  8
0
 62
    50
 10
-0.2
 20
-0.2
 30
9.4000000000000004
 11
-0.3
 21
-0.3
 31
9.0999999999999996
210
0.0
220
-0.9486832980505139
230
0.3162277660168373
  0
LINE
  5
2CC
  8
0
 62
    50
 10
-0.3
 20
-0.3
 30
9.0999999999999996
 11
0.3
 21
-0.3
 31
9.0999999999999996
210
0.0
220
-0.9486832980505139
230
0.3162277660168373
  0
LINE
  5
2CD
  8
0
 62
    50
 10
0.2
 20
-0.2
 30
9.4000000000000004
 11
0.3
 21
-0.3
 31
9.0999999999999996
210
0.0
220
-0.9486832980505139
230
0.3162277660168373
  0
LINE
  5
2CE
  8
0
 62
    50
 10
-0.2
 20
-0.2
 30
9.4000000000000004
 11
-0.2
 21
0.2
 31
9.4000000000000004
210
-0.9486832980505139
220
0.0
230
0.3162277660168373
  0
LINE
  5
2CF
  8
0
 62
    50
 10
-0.2
 20
0.2
 30
9.4000000000000004
 11
-0.3
 21
0.3
 31
9.0999999999999996
210
-0.9486832980505139
220
0.0
230
0.3162277660168373
  0
LINE
  5
2D0
  8
0
 62
    50
 10
-0.3
 20
0.3
 30
9.0999999999999996
 11
-0.3
 21
-0.3
 31
9.0999999999999996
210
-0.9486832980505139
220
0.0
230
0.3162277660168373
  0
LINE
  5
2D1
  8
0
 62
    50
 10
-0.2
 20
-0.2
 30
9.4000000000000004
 11
-0.3
 21
-0.3
 31
9.0999999999999996
210
-0.9486832980505139
220
0.0
230
0.3162277660168373
  0
LINE
  5
2D2
  8
0
 62
    50
 10
-0.2
 20
0.2
 30
9.4000000000000004
 11
0.2
 21
0.2
 31
9.4000000000000004
210
0.0
220
0.9486832980505139
230
0.3162277660168373
  0
LINE
  5
2D3
  8
0
 62
    50
 10
0.2
 20
0.2
 30
9.4000000000000004
 11
0.3
 21
0.3
 31
9.0999999999999996
210
0.0
220
0.9486832980505139
230
0.3162277660168373
  0
LINE
  5
2D4
  8
0
 62
    50
 10
0.3
 20
0.3
 30
9.0999999999999996
 11
-0.3
 21
0.3
 31
9.0999999999999996
210
0.0
220
0.9486832980505139
230
0.3162277660168373
  0
LINE
  5
2D5
  8
0
 62
    50
 10
-0.2
 20
0.2
 30
9.4000000000000004
 11
-0.3
 21
0.3
 31
9.0999999999999996
210
0.0
220
0.9486832980505139
230
0.3162277660168373
  0
LINE
  5
2D6
  8
0
 62
    50
 10
-0.3
 20
0.3
 30
-2.7000000000000002
 11
0.3
 21
0.3
 31
-2.7000000000000002
210
0.0
220
1.0
230
0.0
  0
LINE
  5
2D7
  8
0
 62
    50
 10
-0.3
 20
0.3
 30
-2.7000000000000002
 11
-0.3
 21
0.3
 31
9.0999999999999996
210
0.0
220
1.0
230
0.0
  0
LINE
  5
2D8
  8
0
 62
    50
 10
0.3
 20
0.3
 30
9.0999999999999996
 11
-0.3
 21
0.3
 31
9.0999999999999996
210
0.0
220
1.0
230
0.0
  0
LINE
  5
2D9
  8
0
 62
    50
 10
0.3
 20
0.3
 30
-2.7000000000000002
 11
0.3
 21
0.3
 31
9.0999999999999996
210
0.0
220
1.0
230
0.0
  0
LINE
  5
2DA
  8
0
 62
    50
 10
0.3
 20
0.3
 30
-2.7000000000000002
 11
0.3
 21
-0.3
 31
-2.7000000000000002
210
1.0
220
0.0
230
0.0
  0
LINE
  5
2DB
  8
0
 62
    50
 10
0.3
 20
0.3
 30
-2.7000000000000002
 11
0.3
 21
0.3
 31
9.0999999999999996
210
1.0
220
0.0
230
0.0
  0
LINE
  5
2DC
  8
0
 62
    50
 10
0.3
 20
-0.3
 30
9.0999999999999996
 11
0.3
 21
0.3
 31
9.0999999999999996
210
1.0
220
0.0
230
0.0
  0
LINE
  5
2DD
  8
0
 62
    50
 10
0.3
 20
-0.3
 30
-2.7000000000000002
 11
0.3
 21
-0.3
 31
9.0999999999999996
210
1.0
220
0.0
230
0.0
  0
LINE
  5
2DE
  8
0
 62
    50
 10
0.2
 20
0.2
 30
9.4000000000000004
 11
0.2
 21
-0.2
 31
9.4000000000000004
  0
LINE
  5
2DF
  8
0
 62
    50
 10
-0.2
 20
0.2
 30
9.4000000000000004
 11
0.2
 21
0.2
 31
9.4000000000000004
  0
LINE
  5
2E0
  8
0
 62
    50
 10
-0.2
 20
-0.2
 30
9.4000000000000004
 11
-0.2
 21
0.2
 31
9.4000000000000004
  0
LINE
  5
2E1
  8
0
 62
    50
 10
0.2
 20
-0.2
 30
9.4000000000000004
 11
-0.2
 21
-0.2
 31
9.4000000000000004
  0
ENDBLK
  5
2E3
  8
0
  0
BLOCK
  8
0
  2
*U3
 70
     1
 10
0.0
 20
0.0
 30
0.0
  3
*U3
  1

  0
LINE
  5
2EB
  8
0
 62
   250
 10
-1.27
 20
-1.25
 30
2.7999999999999989
 11
-1.27
 21
1.25
 31
2.7999999999999989
210
-1.0
220
0.0
230
0.0
  0
LINE
  5
2EC
  8
0
 62
   250
 10
-1.27
 20
1.25
 30
0.0
 11
-1.27
 21
1.25
 31
2.7999999999999989
210
-1.0
220
0.0
230
0.0
  0
LINE
  5
2ED
  8
0
 62
   250
 10
-1.27
 20
1.25
 30
0.0
 11
-1.27
 21
-1.25
 31
0.0
210
-1.0
220
0.0
230
0.0
  0
LINE
  5
2EE
  8
0
 62
   250
 10
-1.27
 20
-1.25
 30
0.0
 11
-1.27
 21
-1.25
 31
2.7999999999999989
210
-1.0
220
0.0
230
0.0
  0
LINE
  5
2EF
  8
0
 62
   250
 10
-1.27
 20
1.25
 30
2.7999999999999989
 11
1.27
 21
1.25
 31
2.7999999999999989
210
0.0
220
1.0
230
0.0
  0
LINE
  5
2F0
  8
0
 62
   250
 10
1.27
 20
1.25
 30
0.0
 11
1.27
 21
1.25
 31
2.7999999999999989
210
0.0
220
1.0
230
0.0
  0
LINE
  5
2F1
  8
0
 62
   250
 10
1.27
 20
1.25
 30
0.0
 11
-1.27
 21
1.25
 31
0.0
210
0.0
220
1.0
230
0.0
  0
LINE
  5
2F2
  8
0
 62
   250
 10
-1.27
 20
1.25
 30
0.0
 11
-1.27
 21
1.25
 31
2.7999999999999989
210
0.0
220
1.0
230
0.0
  0
LINE
  5
2F3
  8
0
 62
   250
 10
1.27
 20
1.25
 30
2.7999999999999989
 11
1.27
 21
-1.25
 31
2.7999999999999989
210
1.0
220
0.0
230
0.0
  0
LINE
  5
2F4
  8
0
 62
   250
 10
1.27
 20
-1.25
 30
0.0
 11
1.27
 21
-1.25
 31
2.7999999999999989
210
1.0
220
0.0
230
0.0
  0
LINE
  5
2F5
  8
0
 62
   250
 10
1.27
 20
-1.25
 30
0.0
 11
1.27
 21
1.25
 31
0.0
210
1.0
220
0.0
230
0.0
  0
LINE
  5
2F6
  8
0
 62
   250
 10
1.27
 20
1.25
 30
0.0
 11
1.27
 21
1.25
 31
2.7999999999999989
210
1.0
220
0.0
230
0.0
  0
LINE
  5
2F7
  8
0
 62
   250
 10
1.27
 20
-1.25
 30
2.7999999999999989
 11
-1.27
 21
-1.25
 31
2.7999999999999989
210
0.0
220
-1.0
230
0.0
  0
LINE
  5
2F8
  8
0
 62
   250
 10
-1.27
 20
-1.25
 30
0.0
 11
-1.27
 21
-1.25
 31
2.7999999999999989
210
0.0
220
-1.0
230
0.0
  0
LINE
  5
2F9
  8
0
 62
   250
 10
-1.27
 20
-1.25
 30
0.0
 11
1.27
 21
-1.25
 31
0.0
210
0.0
220
-1.0
230
0.0
  0
LINE
  5
2FA
  8
0
 62
   250
 10
1.27
 20
-1.25
 30
0.0
 11
1.27
 21
-1.25
 31
2.7999999999999989
210
0.0
220
-1.0
230
0.0
  0
LINE
  5
2FB
  8
0
 62
   250
 10
-1.27
 20
-1.25
 30
2.7999999999999989
 11
-1.27
 21
1.25
 31
2.7999999999999989
  0
LINE
  5
2FC
  8
0
 62
   250
 10
1.27
 20
-1.25
 30
2.7999999999999989
 11
-1.27
 21
-1.25
 31
2.7999999999999989
  0
LINE
  5
2FD
  8
0
 62
   250
 10
1.27
 20
1.25
 30
2.7999999999999989
 11
1.27
 21
-1.25
 31
2.7999999999999989
  0
LINE
  5
2FE
  8
0
 62
   250
 10
-1.27
 20
1.25
 30
2.7999999999999989
 11
1.27
 21
1.25
 31
2.7999999999999989
  0
LINE
  5
2FF
  8
0
 62
   250
 10
-1.27
 20
-1.25
 30
0.0
 11
1.27
 21
-1.25
 31
0.0
210
0.0
220
0.0
230
-1.0
  0
LINE
  5
300
  8
0
 62
   250
 10
-1.27
 20
1.25
 30
0.0
 11
-1.27
 21
-1.25
 31
0.0
210
0.0
220
0.0
230
-1.0
  0
LINE
  5
301
  8
0
 62
   250
 10
1.27
 20
1.25
 30
0.0
 11
-1.27
 21
1.25
 31
0.0
210
0.0
220
0.0
230
-1.0
  0
LINE
  5
302
  8
0
 62
   250
 10
1.27
 20
-1.25
 30
0.0
 11
1.27
 21
1.25
 31
0.0
210
0.0
220
0.0
230
-1.0
  0
ENDBLK
  5
304
  8
0
  0
BLOCK
  8
0
  2
*U4
 70
     1
 10
0.0
 20
0.0
 30
0.0
  3
*U4
  1

  0
LINE
  5
30C
  8
0
 62
   250
 10
1.27
 20
-1.25
 30
2.7999999999999989
 11
1.27
 21
1.25
 31
2.7999999999999989
210
-1.0
220
0.0
230
0.0
  0
LINE
  5
30D
  8
0
 62
   250
 10
1.27
 20
1.25
 30
0.0
 11
1.27
 21
1.25
 31
2.7999999999999989
210
-1.0
220
0.0
230
0.0
  0
LINE
  5
30E
  8
0
 62
   250
 10
1.27
 20
1.25
 30
0.0
 11
1.27
 21
-1.25
 31
0.0
210
-1.0
220
0.0
230
0.0
  0
LINE
  5
30F
  8
0
 62
   250
 10
1.27
 20
-1.25
 30
0.0
 11
1.27
 21
-1.25
 31
2.7999999999999989
210
-1.0
220
0.0
230
0.0
  0
LINE
  5
310
  8
0
 62
   250
 10
1.27
 20
1.25
 30
2.7999999999999989
 11
3.8100000000000001
 21
1.25
 31
2.7999999999999989
210
0.0
220
1.0
230
0.0
  0
LINE
  5
311
  8
0
 62
   250
 10
3.8100000000000001
 20
1.25
 30
0.0
 11
3.8100000000000001
 21
1.25
 31
2.7999999999999989
210
0.0
220
1.0
230
0.0
  0
LINE
  5
312
  8
0
 62
   250
 10
3.8100000000000001
 20
1.25
 30
0.0
 11
1.27
 21
1.25
 31
0.0
210
0.0
220
1.0
230
0.0
  0
LINE
  5
313
  8
0
 62
   250
 10
1.27
 20
1.25
 30
0.0
 11
1.27
 21
1.25
 31
2.7999999999999989
210
0.0
220
1.0
230
0.0
  0
LINE
  5
314
  8
0
 62
   250
 10
3.8100000000000001
 20
1.25
 30
2.7999999999999989
 11
3.8100000000000001
 21
-1.25
 31
2.7999999999999989
210
1.0
220
0.0
230
0.0
  0
LINE
  5
315
  8
0
 62
   250
 10
3.8100000000000001
 20
-1.25
 30
0.0
 11
3.8100000000000001
 21
-1.25
 31
2.7999999999999989
210
1.0
220
0.0
230
0.0
  0
LINE
  5
316
  8
0
 62
   250
 10
3.8100000000000001
 20
-1.25
 30
0.0
 11
3.8100000000000001
 21
1.25
 31
0.0
210
1.0
220
0.0
230
0.0
  0
LINE
  5
317
  8
0
 62
   250
 10
3.8100000000000001
 20
1.25
 30
0.0
 11
3.8100000000000001
 21
1.25
 31
2.7999999999999989
210
1.0
220
0.0
230
0.0
  0
LINE
  5
318
  8
0
 62
   250
 10
3.8100000000000001
 20
-1.25
 30
2.7999999999999989
 11
1.27
 21
-1.25
 31
2.7999999999999989
210
0.0
220
-1.0
230
0.0
  0
LINE
  5
319
  8
0
 62
   250
 10
1.27
 20
-1.25
 30
0.0
 11
1.27
 21
-1.25
 31
2.7999999999999989
210
0.0
220
-1.0
230
0.0
  0
LINE
  5
31A
  8
0
 62
   250
 10
1.27
 20
-1.25
 30
0.0
 11
3.8100000000000001
 21
-1.25
 31
0.0
210
0.0
220
-1.0
230
0.0
  0
LINE
  5
31B
  8
0
 62
   250
 10
3.8100000000000001
 20
-1.25
 30
0.0
 11
3.8100000000000001
 21
-1.25
 31
2.7999999999999989
210
0.0
220
-1.0
230
0.0
  0
LINE
  5
31C
  8
0
 62
   250
 10
1.27
 20
-1.25
 30
2.7999999999999989
 11
1.27
 21
1.25
 31
2.7999999999999989
  0
LINE
  5
31D
  8
0
 62
   250
 10
3.8100000000000001
 20
-1.25
 30
2.7999999999999989
 11
1.27
 21
-1.25
 31
2.7999999999999989
  0
LINE
  5
31E
  8
0
 62
   250
 10
3.8100000000000001
 20
1.25
 30
2.7999999999999989
 11
3.8100000000000001
 21
-1.25
 31
2.7999999999999989
  0
LINE
  5
31F
  8
0
 62
   250
 10
1.27
 20
1.25
 30
2.7999999999999989
 11
3.8100000000000001
 21
1.25
 31
2.7999999999999989
  0
LINE
  5
320
  8
0
 62
   250
 10
1.27
 20
-1.25
 30
0.0
 11
3.8100000000000001
 21
-1.25
 31
0.0
210
0.0
220
0.0
230
-1.0
  0
LINE
  5
321
  8
0
 62
   250
 10
1.27
 20
1.25
 30
0.0
 11
1.27
 21
-1.25
 31
0.0
210
0.0
220
0.0
230
-1.0
  0
LINE
  5
322
  8
0
 62
   250
 10
3.8100000000000001
 20
1.25
 30
0.0
 11
1.27
 21
1.25
 31
0.0
210
0.0
220
0.0
230
-1.0
  0
LINE
  5
323
  8
0
 62
   250
 10
3.8100000000000001
 20
-1.25
 30
0.0
 11
3.8100000000000001
 21
1.25
 31
0.0
210
0.0
220
0.0
230
-1.0
  0
ENDBLK
  5
325
  8
0
  0
BLOCK
  8
0
  2
*U5
 70
     1
 10
0.0
 20
0.0
 30
0.0
  3
*U5
  1

  0
LINE
  5
32D
  8
0
 62
   250
 10
3.8100000000000001
 20
-1.25
 30
2.7999999999999989
 11
3.8100000000000001
 21
1.25
 31
2.7999999999999989
210
-1.0
220
0.0
230
0.0
  0
LINE
  5
32E
  8
0
 62
   250
 10
3.8100000000000001
 20
1.25
 30
0.0
 11
3.8100000000000001
 21
1.25
 31
2.7999999999999989
210
-1.0
220
0.0
230
0.0
  0
LINE
  5
32F
  8
0
 62
   250
 10
3.8100000000000001
 20
1.25
 30
0.0
 11
3.8100000000000001
 21
-1.25
 31
0.0
210
-1.0
220
0.0
230
0.0
  0
LINE
  5
330
  8
0
 62
   250
 10
3.8100000000000001
 20
-1.25
 30
0.0
 11
3.8100000000000001
 21
-1.25
 31
2.7999999999999989
210
-1.0
220
0.0
230
0.0
  0
LINE
  5
331
  8
0
 62
   250
 10
3.8100000000000001
 20
1.25
 30
2.7999999999999989
 11
6.3499999999999988
 21
1.25
 31
2.7999999999999989
210
0.0
220
1.0
230
0.0
  0
LINE
  5
332
  8
0
 62
   250
 10
6.3499999999999988
 20
1.25
 30
0.0
 11
6.3499999999999988
 21
1.25
 31
2.7999999999999989
210
0.0
220
1.0
230
0.0
  0
LINE
  5
333
  8
0
 62
   250
 10
6.3499999999999988
 20
1.25
 30
0.0
 11
3.8100000000000001
 21
1.25
 31
0.0
210
0.0
220
1.0
230
0.0
  0
LINE
  5
334
  8
0
 62
   250
 10
3.8100000000000001
 20
1.25
 30
0.0
 11
3.8100000000000001
 21
1.25
 31
2.7999999999999989
210
0.0
220
1.0
230
0.0
  0
LINE
  5
335
  8
0
 62
   250
 10
6.3499999999999988
 20
1.25
 30
2.7999999999999989
 11
6.3499999999999988
 21
-1.25
 31
2.7999999999999989
210
1.0
220
0.0
230
0.0
  0
LINE
  5
336
  8
0
 62
   250
 10
6.3499999999999988
 20
-1.25
 30
0.0
 11
6.3499999999999988
 21
-1.25
 31
2.7999999999999989
210
1.0
220
0.0
230
0.0
  0
LINE
  5
337
  8
0
 62
   250
 10
6.3499999999999988
 20
-1.25
 30
0.0
 11
6.3499999999999988
 21
1.25
 31
0.0
210
1.0
220
0.0
230
0.0
  0
LINE
  5
338
  8
0
 62
   250
 10
6.3499999999999988
 20
1.25
 30
0.0
 11
6.3499999999999988
 21
1.25
 31
2.7999999999999989
210
1.0
220
0.0
230
0.0
  0
LINE
  5
339
  8
0
 62
   250
 10
6.3499999999999988
 20
-1.25
 30
2.7999999999999989
 11
3.8100000000000001
 21
-1.25
 31
2.7999999999999989
210
0.0
220
-1.0
230
0.0
  0
LINE
  5
33A
  8
0
 62
   250
 10
3.8100000000000001
 20
-1.25
 30
0.0
 11
3.8100000000000001
 21
-1.25
 31
2.7999999999999989
210
0.0
220
-1.0
230
0.0
  0
LINE
  5
33B
  8
0
 62
   250
 10
3.8100000000000001
 20
-1.25
 30
0.0
 11
6.3499999999999988
 21
-1.25
 31
0.0
210
0.0
220
-1.0
230
0.0
  0
LINE
  5
33C
  8
0
 62
   250
 10
6.3499999999999988
 20
-1.25
 30
0.0
 11
6.3499999999999988
 21
-1.25
 31
2.7999999999999989
210
0.0
220
-1.0
230
0.0
  0
LINE
  5
33D
  8
0
 62
   250
 10
3.8100000000000001
 20
-1.25
 30
2.7999999999999989
 11
3.8100000000000001
 21
1.25
 31
2.7999999999999989
  0
LINE
  5
33E
  8
0
 62
   250
 10
6.3499999999999988
 20
-1.25
 30
2.7999999999999989
 11
3.8100000000000001
 21
-1.25
 31
2.7999999999999989
  0
LINE
  5
33F
  8
0
 62
   250
 10
6.3499999999999988
 20
1.25
 30
2.7999999999999989
 11
6.3499999999999988
 21
-1.25
 31
2.7999999999999989
  0
LINE
  5
340
  8
0
 62
   250
 10
3.8100000000000001
 20
1.25
 30
2.7999999999999989
 11
6.3499999999999988
 21
1.25
 31
2.7999999999999989
  0
LINE
  5
341
  8
0
 62
   250
 10
3.8100000000000001
 20
-1.25
 30
0.0
 11
6.3499999999999988
 21
-1.25
 31
0.0
210
0.0
220
0.0
230
-1.0
  0
LINE
  5
342
  8
0
 62
   250
 10
3.8100000000000001
 20
1.25
 30
0.0
 11
3.8100000000000001
 21
-1.25
 31
0.0
210
0.0
220
0.0
230
-1.0
  0
LINE
  5
343
  8
0
 62
   250
 10
6.3499999999999988
 20
1.25
 30
0.0
 11
3.8100000000000001
 21
1.25
 31
0.0
210
0.0
220
0.0
230
-1.0
  0
LINE
  5
344
  8
0
 62
   250
 10
6.3499999999999988
 20
-1.25
 30
0.0
 11
6.3499999999999988
 21
1.25
 31
0.0
210
0.0
220
0.0
230
-1.0
  0
ENDBLK
  5
346
  8
0
  0
BLOCK
  8
0
  2
*U6
 70
     1
 10
0.0
 20
0.0
 30
0.0
  3
*U6
  1

  0
LINE
  5
356
  8
0
 62
    50
 10
2.339999999999999
 20
-0.2
 30
-3.0
 11
2.7400000000000002
 21
-0.2
 31
-3.0
210
0.0
220
-0.9486832980505138
230
-0.316227766016838
  0
LINE
  5
357
  8
0
 62
    50
 10
2.7400000000000002
 20
-0.2
 30
-3.0
 11
2.839999999999999
 21
-0.3
 31
-2.7000000000000002
210
0.0
220
-0.9486832980505138
230
-0.316227766016838
  0
LINE
  5
358
  8
0
 62
    50
 10
2.839999999999999
 20
-0.3
 30
-2.7000000000000002
 11
2.2400000000000002
 21
-0.3
 31
-2.7000000000000002
210
0.0
220
-0.9486832980505138
230
-0.316227766016838
  0
LINE
  5
359
  8
0
 62
    50
 10
2.2400000000000002
 20
-0.3
 30
-2.7000000000000002
 11
2.339999999999999
 21
-0.2
 31
-3.0
210
0.0
220
-0.9486832980505138
230
-0.316227766016838
  0
LINE
  5
35A
  8
0
 62
    50
 10
2.7400000000000002
 20
-0.2
 30
-3.0
 11
2.7400000000000002
 21
0.2
 31
-3.0
210
0.9486832980505138
220
0.0
230
-0.316227766016838
  0
LINE
  5
35B
  8
0
 62
    50
 10
2.7400000000000002
 20
0.2
 30
-3.0
 11
2.839999999999999
 21
0.3
 31
-2.7000000000000002
210
0.9486832980505138
220
0.0
230
-0.316227766016838
  0
LINE
  5
35C
  8
0
 62
    50
 10
2.839999999999999
 20
0.3
 30
-2.7000000000000002
 11
2.839999999999999
 21
-0.3
 31
-2.7000000000000002
210
0.9486832980505138
220
0.0
230
-0.316227766016838
  0
LINE
  5
35D
  8
0
 62
    50
 10
2.7400000000000002
 20
-0.2
 30
-3.0
 11
2.839999999999999
 21
-0.3
 31
-2.7000000000000002
210
0.9486832980505138
220
0.0
230
-0.316227766016838
  0
LINE
  5
35E
  8
0
 62
    50
 10
2.7400000000000002
 20
0.2
 30
-3.0
 11
2.339999999999999
 21
0.2
 31
-3.0
210
0.0
220
0.9486832980505138
230
-0.316227766016838
  0
LINE
  5
35F
  8
0
 62
    50
 10
2.339999999999999
 20
0.2
 30
-3.0
 11
2.2400000000000002
 21
0.3
 31
-2.7000000000000002
210
0.0
220
0.9486832980505138
230
-0.316227766016838
  0
LINE
  5
360
  8
0
 62
    50
 10
2.2400000000000002
 20
0.3
 30
-2.7000000000000002
 11
2.839999999999999
 21
0.3
 31
-2.7000000000000002
210
0.0
220
0.9486832980505138
230
-0.316227766016838
  0
LINE
  5
361
  8
0
 62
    50
 10
2.7400000000000002
 20
0.2
 30
-3.0
 11
2.839999999999999
 21
0.3
 31
-2.7000000000000002
210
0.0
220
0.9486832980505138
230
-0.316227766016838
  0
LINE
  5
362
  8
0
 62
    50
 10
2.339999999999999
 20
0.2
 30
-3.0
 11
2.339999999999999
 21
-0.2
 31
-3.0
210
-0.9486832980505138
220
0.0
230
-0.316227766016838
  0
LINE
  5
363
  8
0
 62
    50
 10
2.2400000000000002
 20
-0.3
 30
-2.7000000000000002
 11
2.339999999999999
 21
-0.2
 31
-3.0
210
-0.9486832980505138
220
0.0
230
-0.316227766016838
  0
LINE
  5
364
  8
0
 62
    50
 10
2.2400000000000002
 20
-0.3
 30
-2.7000000000000002
 11
2.2400000000000002
 21
0.3
 31
-2.7000000000000002
210
-0.9486832980505138
220
0.0
230
-0.316227766016838
  0
LINE
  5
365
  8
0
 62
    50
 10
2.339999999999999
 20
0.2
 30
-3.0
 11
2.2400000000000002
 21
0.3
 31
-2.7000000000000002
210
-0.9486832980505138
220
0.0
230
-0.316227766016838
  0
LINE
  5
366
  8
0
 62
    50
 10
2.2400000000000002
 20
-0.3
 30
-2.7000000000000002
 11
2.2400000000000002
 21
0.3
 31
-2.7000000000000002
210
-1.0
220
0.0
230
0.0
  0
LINE
  5
367
  8
0
 62
    50
 10
2.2400000000000002
 20
-0.3
 30
-2.7000000000000002
 11
2.2400000000000002
 21
-0.3
 31
9.0999999999999996
210
-1.0
220
0.0
230
0.0
  0
LINE
  5
368
  8
0
 62
    50
 10
2.2400000000000002
 20
0.3
 30
9.0999999999999996
 11
2.2400000000000002
 21
-0.3
 31
9.0999999999999996
210
-1.0
220
0.0
230
0.0
  0
LINE
  5
369
  8
0
 62
    50
 10
2.2400000000000002
 20
0.3
 30
-2.7000000000000002
 11
2.2400000000000002
 21
0.3
 31
9.0999999999999996
210
-1.0
220
0.0
230
0.0
  0
LINE
  5
36A
  8
0
 62
    50
 10
2.839999999999999
 20
-0.3
 30
-2.7000000000000002
 11
2.2400000000000002
 21
-0.3
 31
-2.7000000000000002
210
0.0
220
-1.0
230
0.0
  0
LINE
  5
36B
  8
0
 62
    50
 10
2.839999999999999
 20
-0.3
 30
-2.7000000000000002
 11
2.839999999999999
 21
-0.3
 31
9.0999999999999996
210
0.0
220
-1.0
230
0.0
  0
LINE
  5
36C
  8
0
 62
    50
 10
2.2400000000000002
 20
-0.3
 30
9.0999999999999996
 11
2.839999999999999
 21
-0.3
 31
9.0999999999999996
210
0.0
220
-1.0
230
0.0
  0
LINE
  5
36D
  8
0
 62
    50
 10
2.2400000000000002
 20
-0.3
 30
-2.7000000000000002
 11
2.2400000000000002
 21
-0.3
 31
9.0999999999999996
210
0.0
220
-1.0
230
0.0
  0
LINE
  5
36E
  8
0
 62
    50
 10
2.339999999999999
 20
-0.2
 30
-3.0
 11
2.7400000000000002
 21
-0.2
 31
-3.0
210
0.0
220
0.0
230
-1.0
  0
LINE
  5
36F
  8
0
 62
    50
 10
2.339999999999999
 20
0.2
 30
-3.0
 11
2.339999999999999
 21
-0.2
 31
-3.0
210
0.0
220
0.0
230
-1.0
  0
LINE
  5
370
  8
0
 62
    50
 10
2.7400000000000002
 20
0.2
 30
-3.0
 11
2.339999999999999
 21
0.2
 31
-3.0
210
0.0
220
0.0
230
-1.0
  0
LINE
  5
371
  8
0
 62
    50
 10
2.7400000000000002
 20
-0.2
 30
-3.0
 11
2.7400000000000002
 21
0.2
 31
-3.0
210
0.0
220
0.0
230
-1.0
  0
LINE
  5
372
  8
0
 62
    50
 10
2.7400000000000002
 20
0.2
 30
9.4000000000000004
 11
2.7400000000000002
 21
-0.2
 31
9.4000000000000004
210
0.9486832980505139
220
0.0
230
0.3162277660168373
  0
LINE
  5
373
  8
0
 62
    50
 10
2.7400000000000002
 20
-0.2
 30
9.4000000000000004
 11
2.839999999999999
 21
-0.3
 31
9.0999999999999996
210
0.9486832980505139
220
0.0
230
0.3162277660168373
  0
LINE
  5
374
  8
0
 62
    50
 10
2.839999999999999
 20
-0.3
 30
9.0999999999999996
 11
2.839999999999999
 21
0.3
 31
9.0999999999999996
210
0.9486832980505139
220
0.0
230
0.3162277660168373
  0
LINE
  5
375
  8
0
 62
    50
 10
2.7400000000000002
 20
0.2
 30
9.4000000000000004
 11
2.839999999999999
 21
0.3
 31
9.0999999999999996
210
0.9486832980505139
220
0.0
230
0.3162277660168373
  0
LINE
  5
376
  8
0
 62
    50
 10
2.7400000000000002
 20
-0.2
 30
9.4000000000000004
 11
2.339999999999999
 21
-0.2
 31
9.4000000000000004
210
0.0
220
-0.9486832980505139
230
0.3162277660168373
  0
LINE
  5
377
  8
0
 62
    50
 10
2.339999999999999
 20
-0.2
 30
9.4000000000000004
 11
2.2400000000000002
 21
-0.3
 31
9.0999999999999996
210
0.0
220
-0.9486832980505139
230
0.3162277660168373
  0
LINE
  5
378
  8
0
 62
    50
 10
2.2400000000000002
 20
-0.3
 30
9.0999999999999996
 11
2.839999999999999
 21
-0.3
 31
9.0999999999999996
210
0.0
220
-0.9486832980505139
230
0.3162277660168373
  0
LINE
  5
379
  8
0
 62
    50
 10
2.7400000000000002
 20
-0.2
 30
9.4000000000000004
 11
2.839999999999999
 21
-0.3
 31
9.0999999999999996
210
0.0
220
-0.9486832980505139
230
0.3162277660168373
  0
LINE
  5
37A
  8
0
 62
    50
 10
2.339999999999999
 20
-0.2
 30
9.4000000000000004
 11
2.339999999999999
 21
0.2
 31
9.4000000000000004
210
-0.9486832980505139
220
0.0
230
0.3162277660168373
  0
LINE
  5
37B
  8
0
 62
    50
 10
2.339999999999999
 20
0.2
 30
9.4000000000000004
 11
2.2400000000000002
 21
0.3
 31
9.0999999999999996
210
-0.9486832980505139
220
0.0
230
0.3162277660168373
  0
LINE
  5
37C
  8
0
 62
    50
 10
2.2400000000000002
 20
0.3
 30
9.0999999999999996
 11
2.2400000000000002
 21
-0.3
 31
9.0999999999999996
210
-0.9486832980505139
220
0.0
230
0.3162277660168373
  0
LINE
  5
37D
  8
0
 62
    50
 10
2.339999999999999
 20
-0.2
 30
9.4000000000000004
 11
2.2400000000000002
 21
-0.3
 31
9.0999999999999996
210
-0.9486832980505139
220
0.0
230
0.3162277660168373
  0
LINE
  5
37E
  8
0
 62
    50
 10
2.339999999999999
 20
0.2
 30
9.4000000000000004
 11
2.7400000000000002
 21
0.2
 31
9.4000000000000004
210
0.0
220
0.9486832980505139
230
0.3162277660168373
  0
LINE
  5
37F
  8
0
 62
    50
 10
2.7400000000000002
 20
0.2
 30
9.4000000000000004
 11
2.839999999999999
 21
0.3
 31
9.0999999999999996
210
0.0
220
0.9486832980505139
230
0.3162277660168373
  0
LINE
  5
380
  8
0
 62
    50
 10
2.839999999999999
 20
0.3
 30
9.0999999999999996
 11
2.2400000000000002
 21
0.3
 31
9.0999999999999996
210
0.0
220
0.9486832980505139
230
0.3162277660168373
  0
LINE
  5
381
  8
0
 62
    50
 10
2.339999999999999
 20
0.2
 30
9.4000000000000004
 11
2.2400000000000002
 21
0.3
 31
9.0999999999999996
210
0.0
220
0.9486832980505139
230
0.3162277660168373
  0
LINE
  5
382
  8
0
 62
    50
 10
2.2400000000000002
 20
0.3
 30
-2.7000000000000002
 11
2.839999999999999
 21
0.3
 31
-2.7000000000000002
210
0.0
220
1.0
230
0.0
  0
LINE
  5
383
  8
0
 62
    50
 10
2.2400000000000002
 20
0.3
 30
-2.7000000000000002
 11
2.2400000000000002
 21
0.3
 31
9.0999999999999996
210
0.0
220
1.0
230
0.0
  0
LINE
  5
384
  8
0
 62
    50
 10
2.839999999999999
 20
0.3
 30
9.0999999999999996
 11
2.2400000000000002
 21
0.3
 31
9.0999999999999996
210
0.0
220
1.0
230
0.0
  0
LINE
  5
385
  8
0
 62
    50
 10
2.839999999999999
 20
0.3
 30
-2.7000000000000002
 11
2.839999999999999
 21
0.3
 31
9.0999999999999996
210
0.0
220
1.0
230
0.0
  0
LINE
  5
386
  8
0
 62
    50
 10
2.839999999999999
 20
0.3
 30
-2.7000000000000002
 11
2.839999999999999
 21
-0.3
 31
-2.7000000000000002
210
1.0
220
0.0
230
0.0
  0
LINE
  5
387
  8
0
 62
    50
 10
2.839999999999999
 20
0.3
 30
-2.7000000000000002
 11
2.839999999999999
 21
0.3
 31
9.0999999999999996
210
1.0
220
0.0
230
0.0
  0
LINE
  5
388
  8
0
 62
    50
 10
2.839999999999999
 20
-0.3
 30
9.0999999999999996
 11
2.839999999999999
 21
0.3
 31
9.0999999999999996
210
1.0
220
0.0
230
0.0
  0
LINE
  5
389
  8
0
 62
    50
 10
2.839999999999999
 20
-0.3
 30
-2.7000000000000002
 11
2.839999999999999
 21
-0.3
 31
9.0999999999999996
210
1.0
220
0.0
230
0.0
  0
LINE
  5
38A
  8
0
 62
    50
 10
2.7400000000000002
 20
0.2
 30
9.4000000000000004
 11
2.7400000000000002
 21
-0.2
 31
9.4000000000000004
  0
LINE
  5
38B
  8
0
 62
    50
 10
2.339999999999999
 20
0.2
 30
9.4000000000000004
 11
2.7400000000000002
 21
0.2
 31
9.4000000000000004
  0
LINE
  5
38C
  8
0
 62
    50
 10
2.339999999999999
 20
-0.2
 30
9.4000000000000004
 11
2.339999999999999
 21
0.2
 31
9.4000000000000004
  0
LINE
  5
38D
  8
0
 62
    50
 10
2.7400000000000002
 20
-0.2
 30
9.4000000000000004
 11
2.339999999999999
 21
-0.2
 31
9.4000000000000004
  0
ENDBLK
  5
38F
  8
0
  0
BLOCK
  8
0
  2
*U7
 70
     1
 10
0.0
 20
0.0
 30
0.0
  3
*U7
  1

  0
LINE
  5
39F
  8
0
 62
    50
 10
4.879999999999999
 20
-0.2
 30
-3.0
 11
5.2800000000000002
 21
-0.2
 31
-3.0
210
0.0
220
-0.9486832980505138
230
-0.316227766016838
  0
LINE
  5
3A0
  8
0
 62
    50
 10
5.2800000000000002
 20
-0.2
 30
-3.0
 11
5.379999999999999
 21
-0.3
 31
-2.7000000000000002
210
0.0
220
-0.9486832980505138
230
-0.316227766016838
  0
LINE
  5
3A1
  8
0
 62
    50
 10
5.379999999999999
 20
-0.3
 30
-2.7000000000000002
 11
4.7800000000000002
 21
-0.3
 31
-2.7000000000000002
210
0.0
220
-0.9486832980505138
230
-0.316227766016838
  0
LINE
  5
3A2
  8
0
 62
    50
 10
4.7800000000000002
 20
-0.3
 30
-2.7000000000000002
 11
4.879999999999999
 21
-0.2
 31
-3.0
210
0.0
220
-0.9486832980505138
230
-0.316227766016838
  0
LINE
  5
3A3
  8
0
 62
    50
 10
5.2800000000000002
 20
-0.2
 30
-3.0
 11
5.2800000000000002
 21
0.2
 31
-3.0
210
0.9486832980505138
220
0.0
230
-0.316227766016838
  0
LINE
  5
3A4
  8
0
 62
    50
 10
5.2800000000000002
 20
0.2
 30
-3.0
 11
5.379999999999999
 21
0.3
 31
-2.7000000000000002
210
0.9486832980505138
220
0.0
230
-0.316227766016838
  0
LINE
  5
3A5
  8
0
 62
    50
 10
5.379999999999999
 20
0.3
 30
-2.7000000000000002
 11
5.379999999999999
 21
-0.3
 31
-2.7000000000000002
210
0.9486832980505138
220
0.0
230
-0.316227766016838
  0
LINE
  5
3A6
  8
0
 62
    50
 10
5.2800000000000002
 20
-0.2
 30
-3.0
 11
5.379999999999999
 21
-0.3
 31
-2.7000000000000002
210
0.9486832980505138
220
0.0
230
-0.316227766016838
  0
LINE
  5
3A7
  8
0
 62
    50
 10
5.2800000000000002
 20
0.2
 30
-3.0
 11
4.879999999999999
 21
0.2
 31
-3.0
210
0.0
220
0.9486832980505138
230
-0.316227766016838
  0
LINE
  5
3A8
  8
0
 62
    50
 10
4.879999999999999
 20
0.2
 30
-3.0
 11
4.7800000000000002
 21
0.3
 31
-2.7000000000000002
210
0.0
220
0.9486832980505138
230
-0.316227766016838
  0
LINE
  5
3A9
  8
0
 62
    50
 10
4.7800000000000002
 20
0.3
 30
-2.7000000000000002
 11
5.379999999999999
 21
0.3
 31
-2.7000000000000002
210
0.0
220
0.9486832980505138
230
-0.316227766016838
  0
LINE
  5
3AA
  8
0
 62
    50
 10
5.2800000000000002
 20
0.2
 30
-3.0
 11
5.379999999999999
 21
0.3
 31
-2.7000000000000002
210
0.0
220
0.9486832980505138
230
-0.316227766016838
  0
LINE
  5
3AB
  8
0
 62
    50
 10
4.879999999999999
 20
0.2
 30
-3.0
 11
4.879999999999999
 21
-0.2
 31
-3.0
210
-0.9486832980505138
220
0.0
230
-0.316227766016838
  0
LINE
  5
3AC
  8
0
 62
    50
 10
4.7800000000000002
 20
-0.3
 30
-2.7000000000000002
 11
4.879999999999999
 21
-0.2
 31
-3.0
210
-0.9486832980505138
220
0.0
230
-0.316227766016838
  0
LINE
  5
3AD
  8
0
 62
    50
 10
4.7800000000000002
 20
-0.3
 30
-2.7000000000000002
 11
4.7800000000000002
 21
0.3
 31
-2.7000000000000002
210
-0.9486832980505138
220
0.0
230
-0.316227766016838
  0
LINE
  5
3AE
  8
0
 62
    50
 10
4.879999999999999
 20
0.2
 30
-3.0
 11
4.7800000000000002
 21
0.3
 31
-2.7000000000000002
210
-0.9486832980505138
220
0.0
230
-0.316227766016838
  0
LINE
  5
3AF
  8
0
 62
    50
 10
4.7800000000000002
 20
-0.3
 30
-2.7000000000000002
 11
4.7800000000000002
 21
0.3
 31
-2.7000000000000002
210
-1.0
220
0.0
230
0.0
  0
LINE
  5
3B0
  8
0
 62
    50
 10
4.7800000000000002
 20
-0.3
 30
-2.7000000000000002
 11
4.7800000000000002
 21
-0.3
 31
9.0999999999999996
210
-1.0
220
0.0
230
0.0
  0
LINE
  5
3B1
  8
0
 62
    50
 10
4.7800000000000002
 20
0.3
 30
9.0999999999999996
 11
4.7800000000000002
 21
-0.3
 31
9.0999999999999996
210
-1.0
220
0.0
230
0.0
  0
LINE
  5
3B2
  8
0
 62
    50
 10
4.7800000000000002
 20
0.3
 30
-2.7000000000000002
 11
4.7800000000000002
 21
0.3
 31
9.0999999999999996
210
-1.0
220
0.0
230
0.0
  0
LINE
  5
3B3
  8
0
 62
    50
 10
5.379999999999999
 20
-0.3
 30
-2.7000000000000002
 11
4.7800000000000002
 21
-0.3
 31
-2.7000000000000002
210
0.0
220
-1.0
230
0.0
  0
LINE
  5
3B4
  8
0
 62
    50
 10
5.379999999999999
 20
-0.3
 30
-2.7000000000000002
 11
5.379999999999999
 21
-0.3
 31
9.0999999999999996
210
0.0
220
-1.0
230
0.0
  0
LINE
  5
3B5
  8
0
 62
    50
 10
4.7800000000000002
 20
-0.3
 30
9.0999999999999996
 11
5.379999999999999
 21
-0.3
 31
9.0999999999999996
210
0.0
220
-1.0
230
0.0
  0
LINE
  5
3B6
  8
0
 62
    50
 10
4.7800000000000002
 20
-0.3
 30
-2.7000000000000002
 11
4.7800000000000002
 21
-0.3
 31
9.0999999999999996
210
0.0
220
-1.0
230
0.0
  0
LINE
  5
3B7
  8
0
 62
    50
 10
4.879999999999999
 20
-0.2
 30
-3.0
 11
5.2800000000000002
 21
-0.2
 31
-3.0
210
0.0
220
0.0
230
-1.0
  0
LINE
  5
3B8
  8
0
 62
    50
 10
4.879999999999999
 20
0.2
 30
-3.0
 11
4.879999999999999
 21
-0.2
 31
-3.0
210
0.0
220
0.0
230
-1.0
  0
LINE
  5
3B9
  8
0
 62
    50
 10
5.2800000000000002
 20
0.2
 30
-3.0
 11
4.879999999999999
 21
0.2
 31
-3.0
210
0.0
220
0.0
230
-1.0
  0
LINE
  5
3BA
  8
0
 62
    50
 10
5.2800000000000002
 20
-0.2
 30
-3.0
 11
5.2800000000000002
 21
0.2
 31
-3.0
210
0.0
220
0.0
230
-1.0
  0
LINE
  5
3BB
  8
0
 62
    50
 10
5.2800000000000002
 20
0.2
 30
9.4000000000000004
 11
5.2800000000000002
 21
-0.2
 31
9.4000000000000004
210
0.9486832980505139
220
0.0
230
0.3162277660168373
  0
LINE
  5
3BC
  8
0
 62
    50
 10
5.2800000000000002
 20
-0.2
 30
9.4000000000000004
 11
5.379999999999999
 21
-0.3
 31
9.0999999999999996
210
0.9486832980505139
220
0.0
230
0.3162277660168373
  0
LINE
  5
3BD
  8
0
 62
    50
 10
5.379999999999999
 20
-0.3
 30
9.0999999999999996
 11
5.379999999999999
 21
0.3
 31
9.0999999999999996
210
0.9486832980505139
220
0.0
230
0.3162277660168373
  0
LINE
  5
3BE
  8
0
 62
    50
 10
5.2800000000000002
 20
0.2
 30
9.4000000000000004
 11
5.379999999999999
 21
0.3
 31
9.0999999999999996
210
0.9486832980505139
220
0.0
230
0.3162277660168373
  0
LINE
  5
3BF
  8
0
 62
    50
 10
5.2800000000000002
 20
-0.2
 30
9.4000000000000004
 11
4.879999999999999
 21
-0.2
 31
9.4000000000000004
210
0.0
220
-0.9486832980505139
230
0.3162277660168373
  0
LINE
  5
3C0
  8
0
 62
    50
 10
4.879999999999999
 20
-0.2
 30
9.4000000000000004
 11
4.7800000000000002
 21
-0.3
 31
9.0999999999999996
210
0.0
220
-0.9486832980505139
230
0.3162277660168373
  0
LINE
  5
3C1
  8
0
 62
    50
 10
4.7800000000000002
 20
-0.3
 30
9.0999999999999996
 11
5.379999999999999
 21
-0.3
 31
9.0999999999999996
210
0.0
220
-0.9486832980505139
230
0.3162277660168373
  0
LINE
  5
3C2
  8
0
 62
    50
 10
5.2800000000000002
 20
-0.2
 30
9.4000000000000004
 11
5.379999999999999
 21
-0.3
 31
9.0999999999999996
210
0.0
220
-0.9486832980505139
230
0.3162277660168373
  0
LINE
  5
3C3
  8
0
 62
    50
 10
4.879999999999999
 20
-0.2
 30
9.4000000000000004
 11
4.879999999999999
 21
0.2
 31
9.4000000000000004
210
-0.9486832980505139
220
0.0
230
0.3162277660168373
  0
LINE
  5
3C4
  8
0
 62
    50
 10
4.879999999999999
 20
0.2
 30
9.4000000000000004
 11
4.7800000000000002
 21
0.3
 31
9.0999999999999996
210
-0.9486832980505139
220
0.0
230
0.3162277660168373
  0
LINE
  5
3C5
  8
0
 62
    50
 10
4.7800000000000002
 20
0.3
 30
9.0999999999999996
 11
4.7800000000000002
 21
-0.3
 31
9.0999999999999996
210
-0.9486832980505139
220
0.0
230
0.3162277660168373
  0
LINE
  5
3C6
  8
0
 62
    50
 10
4.879999999999999
 20
-0.2
 30
9.4000000000000004
 11
4.7800000000000002
 21
-0.3
 31
9.0999999999999996
210
-0.9486832980505139
220
0.0
230
0.3162277660168373
  0
LINE
  5
3C7
  8
0
 62
    50
 10
4.879999999999999
 20
0.2
 30
9.4000000000000004
 11
5.2800000000000002
 21
0.2
 31
9.4000000000000004
210
0.0
220
0.9486832980505139
230
0.3162277660168373
  0
LINE
  5
3C8
  8
0
 62
    50
 10
5.2800000000000002
 20
0.2
 30
9.4000000000000004
 11
5.379999999999999
 21
0.3
 31
9.0999999999999996
210
0.0
220
0.9486832980505139
230
0.3162277660168373
  0
LINE
  5
3C9
  8
0
 62
    50
 10
5.379999999999999
 20
0.3
 30
9.0999999999999996
 11
4.7800000000000002
 21
0.3
 31
9.0999999999999996
210
0.0
220
0.9486832980505139
230
0.3162277660168373
  0
LINE
  5
3CA
  8
0
 62
    50
 10
4.879999999999999
 20
0.2
 30
9.4000000000000004
 11
4.7800000000000002
 21
0.3
 31
9.0999999999999996
210
0.0
220
0.9486832980505139
230
0.3162277660168373
  0
LINE
  5
3CB
  8
0
 62
    50
 10
4.7800000000000002
 20
0.3
 30
-2.7000000000000002
 11
5.379999999999999
 21
0.3
 31
-2.7000000000000002
210
0.0
220
1.0
230
0.0
  0
LINE
  5
3CC
  8
0
 62
    50
 10
4.7800000000000002
 20
0.3
 30
-2.7000000000000002
 11
4.7800000000000002
 21
0.3
 31
9.0999999999999996
210
0.0
220
1.0
230
0.0
  0
LINE
  5
3CD
  8
0
 62
    50
 10
5.379999999999999
 20
0.3
 30
9.0999999999999996
 11
4.7800000000000002
 21
0.3
 31
9.0999999999999996
210
0.0
220
1.0
230
0.0
  0
LINE
  5
3CE
  8
0
 62
    50
 10
5.379999999999999
 20
0.3
 30
-2.7000000000000002
 11
5.379999999999999
 21
0.3
 31
9.0999999999999996
210
0.0
220
1.0
230
0.0
  0
LINE
  5
3CF
  8
0
 62
    50
 10
5.379999999999999
 20
0.3
 30
-2.7000000000000002
 11
5.379999999999999
 21
-0.3
 31
-2.7000000000000002
210
1.0
220
0.0
230
0.0
  0
LINE
  5
3D0
  8
0
 62
    50
 10
5.379999999999999
 20
0.3
 30
-2.7000000000000002
 11
5.379999999999999
 21
0.3
 31
9.0999999999999996
210
1.0
220
0.0
230
0.0
  0
LINE
  5
3D1
  8
0
 62
    50
 10
5.379999999999999
 20
-0.3
 30
9.0999999999999996
 11
5.379999999999999
 21
0.3
 31
9.0999999999999996
210
1.0
220
0.0
230
0.0
  0
LINE
  5
3D2
  8
0
 62
    50
 10
5.379999999999999
 20
-0.3
 30
-2.7000000000000002
 11
5.379999999999999
 21
-0.3
 31
9.0999999999999996
210
1.0
220
0.0
230
0.0
  0
LINE
  5
3D3
  8
0
 62
    50
 10
5.2800000000000002
 20
0.2
 30
9.4000000000000004
 11
5.2800000000000002
 21
-0.2
 31
9.4000000000000004
  0
LINE
  5
3D4
  8
0
 62
    50
 10
4.879999999999999
 20
0.2
 30
9.4000000000000004
 11
5.2800000000000002
 21
0.2
 31
9.4000000000000004
  0
LINE
  5
3D5
  8
0
 62
    50
 10
4.879999999999999
 20
-0.2
 30
9.4000000000000004
 11
4.879999999999999
 21
0.2
 31
9.4000000000000004
  0
LINE
  5
3D6
  8
0
 62
    50
 10
5.2800000000000002
 20
-0.2
 30
9.4000000000000004
 11
4.879999999999999
 21
-0.2
 31
9.4000000000000004
  0
ENDBLK
  5
3D8
  8
0
  0
BLOCK
  8
0
  2
*U8
 70
     1
 10
0.0
 20
0.0
 30
0.0
  3
*U8
  1

  0
LINE
  5
3E8
  8
0
 62
    50
 10
9.9600000000000009
 20
-0.2
 30
-3.0
 11
10.359999999999999
 21
-0.2
 31
-3.0
210
0.0
220
-0.9486832980505138
230
-0.316227766016838
  0
LINE
  5
3E9
  8
0
 62
    50
 10
10.359999999999999
 20
-0.2
 30
-3.0
 11
10.460000000000001
 21
-0.3
 31
-2.7000000000000002
210
0.0
220
-0.9486832980505138
230
-0.316227766016838
  0
LINE
  5
3EA
  8
0
 62
    50
 10
10.460000000000001
 20
-0.3
 30
-2.7000000000000002
 11
9.8599999999999994
 21
-0.3
 31
-2.7000000000000002
210
0.0
220
-0.9486832980505138
230
-0.316227766016838
  0
LINE
  5
3EB
  8
0
 62
    50
 10
9.8599999999999994
 20
-0.3
 30
-2.7000000000000002
 11
9.9600000000000009
 21
-0.2
 31
-3.0
210
0.0
220
-0.9486832980505138
230
-0.316227766016838
  0
LINE
  5
3EC
  8
0
 62
    50
 10
10.359999999999999
 20
-0.2
 30
-3.0
 11
10.359999999999999
 21
0.2
 31
-3.0
210
0.9486832980505138
220
0.0
230
-0.316227766016838
  0
LINE
  5
3ED
  8
0
 62
    50
 10
10.359999999999999
 20
0.2
 30
-3.0
 11
10.460000000000001
 21
0.3
 31
-2.7000000000000002
210
0.9486832980505138
220
0.0
230
-0.316227766016838
  0
LINE
  5
3EE
  8
0
 62
    50
 10
10.460000000000001
 20
0.3
 30
-2.7000000000000002
 11
10.460000000000001
 21
-0.3
 31
-2.7000000000000002
210
0.9486832980505138
220
0.0
230
-0.316227766016838
  0
LINE
  5
3EF
  8
0
 62
    50
 10
10.359999999999999
 20
-0.2
 30
-3.0
 11
10.460000000000001
 21
-0.3
 31
-2.7000000000000002
210
0.9486832980505138
220
0.0
230
-0.316227766016838
  0
LINE
  5
3F0
  8
0
 62
    50
 10
10.359999999999999
 20
0.2
 30
-3.0
 11
9.9600000000000009
 21
0.2
 31
-3.0
210
0.0
220
0.9486832980505138
230
-0.316227766016838
  0
LINE
  5
3F1
  8
0
 62
    50
 10
9.9600000000000009
 20
0.2
 30
-3.0
 11
9.8599999999999994
 21
0.3
 31
-2.7000000000000002
210
0.0
220
0.9486832980505138
230
-0.316227766016838
  0
LINE
  5
3F2
  8
0
 62
    50
 10
9.8599999999999994
 20
0.3
 30
-2.7000000000000002
 11
10.460000000000001
 21
0.3
 31
-2.7000000000000002
210
0.0
220
0.9486832980505138
230
-0.316227766016838
  0
LINE
  5
3F3
  8
0
 62
    50
 10
10.359999999999999
 20
0.2
 30
-3.0
 11
10.460000000000001
 21
0.3
 31
-2.7000000000000002
210
0.0
220
0.9486832980505138
230
-0.316227766016838
  0
LINE
  5
3F4
  8
0
 62
    50
 10
9.9600000000000009
 20
0.2
 30
-3.0
 11
9.9600000000000009
 21
-0.2
 31
-3.0
210
-0.9486832980505138
220
0.0
230
-0.316227766016838
  0
LINE
  5
3F5
  8
0
 62
    50
 10
9.8599999999999994
 20
-0.3
 30
-2.7000000000000002
 11
9.9600000000000009
 21
-0.2
 31
-3.0
210
-0.9486832980505138
220
0.0
230
-0.316227766016838
  0
LINE
  5
3F6
  8
0
 62
    50
 10
9.8599999999999994
 20
-0.3
 30
-2.7000000000000002
 11
9.8599999999999994
 21
0.3
 31
-2.7000000000000002
210
-0.9486832980505138
220
0.0
230
-0.316227766016838
  0
LINE
  5
3F7
  8
0
 62
    50
 10
9.9600000000000009
 20
0.2
 30
-3.0
 11
9.8599999999999994
 21
0.3
 31
-2.7000000000000002
210
-0.9486832980505138
220
0.0
230
-0.316227766016838
  0
LINE
  5
3F8
  8
0
 62
    50
 10
9.8599999999999994
 20
-0.3
 30
-2.7000000000000002
 11
9.8599999999999994
 21
0.3
 31
-2.7000000000000002
210
-1.0
220
0.0
230
0.0
  0
LINE
  5
3F9
  8
0
 62
    50
 10
9.8599999999999994
 20
-0.3
 30
-2.7000000000000002
 11
9.8599999999999994
 21
-0.3
 31
9.0999999999999996
210
-1.0
220
0.0
230
0.0
  0
LINE
  5
3FA
  8
0
 62
    50
 10
9.8599999999999994
 20
0.3
 30
9.0999999999999996
 11
9.8599999999999994
 21
-0.3
 31
9.0999999999999996
210
-1.0
220
0.0
230
0.0
  0
LINE
  5
3FB
  8
0
 62
    50
 10
9.8599999999999994
 20
0.3
 30
-2.7000000000000002
 11
9.8599999999999994
 21
0.3
 31
9.0999999999999996
210
-1.0
220
0.0
230
0.0
  0
LINE
  5
3FC
  8
0
 62
    50
 10
10.460000000000001
 20
-0.3
 30
-2.7000000000000002
 11
9.8599999999999994
 21
-0.3
 31
-2.7000000000000002
210
0.0
220
-1.0
230
0.0
  0
LINE
  5
3FD
  8
0
 62
    50
 10
10.460000000000001
 20
-0.3
 30
-2.7000000000000002
 11
10.460000000000001
 21
-0.3
 31
9.0999999999999996
210
0.0
220
-1.0
230
0.0
  0
LINE
  5
3FE
  8
0
 62
    50
 10
9.8599999999999994
 20
-0.3
 30
9.0999999999999996
 11
10.460000000000001
 21
-0.3
 31
9.0999999999999996
210
0.0
220
-1.0
230
0.0
  0
LINE
  5
3FF
  8
0
 62
    50
 10
9.8599999999999994
 20
-0.3
 30
-2.7000000000000002
 11
9.8599999999999994
 21
-0.3
 31
9.0999999999999996
210
0.0
220
-1.0
230
0.0
  0
LINE
  5
400
  8
0
 62
    50
 10
9.9600000000000009
 20
-0.2
 30
-3.0
 11
10.359999999999999
 21
-0.2
 31
-3.0
210
0.0
220
0.0
230
-1.0
  0
LINE
  5
401
  8
0
 62
    50
 10
9.9600000000000009
 20
0.2
 30
-3.0
 11
9.9600000000000009
 21
-0.2
 31
-3.0
210
0.0
220
0.0
230
-1.0
  0
LINE
  5
402
  8
0
 62
    50
 10
10.359999999999999
 20
0.2
 30
-3.0
 11
9.9600000000000009
 21
0.2
 31
-3.0
210
0.0
220
0.0
230
-1.0
  0
LINE
  5
403
  8
0
 62
    50
 10
10.359999999999999
 20
-0.2
 30
-3.0
 11
10.359999999999999
 21
0.2
 31
-3.0
210
0.0
220
0.0
230
-1.0
  0
LINE
  5
404
  8
0
 62
    50
 10
10.359999999999999
 20
0.2
 30
9.4000000000000004
 11
10.359999999999999
 21
-0.2
 31
9.4000000000000004
210
0.9486832980505139
220
0.0
230
0.3162277660168373
  0
LINE
  5
405
  8
0
 62
    50
 10
10.359999999999999
 20
-0.2
 30
9.4000000000000004
 11
10.460000000000001
 21
-0.3
 31
9.0999999999999996
210
0.9486832980505139
220
0.0
230
0.3162277660168373
  0
LINE
  5
406
  8
0
 62
    50
 10
10.460000000000001
 20
-0.3
 30
9.0999999999999996
 11
10.460000000000001
 21
0.3
 31
9.0999999999999996
210
0.9486832980505139
220
0.0
230
0.3162277660168373
  0
LINE
  5
407
  8
0
 62
    50
 10
10.359999999999999
 20
0.2
 30
9.4000000000000004
 11
10.460000000000001
 21
0.3
 31
9.0999999999999996
210
0.9486832980505139
220
0.0
230
0.3162277660168373
  0
LINE
  5
408
  8
0
 62
    50
 10
10.359999999999999
 20
-0.2
 30
9.4000000000000004
 11
9.9600000000000009
 21
-0.2
 31
9.4000000000000004
210
0.0
220
-0.9486832980505139
230
0.3162277660168373
  0
LINE
  5
409
  8
0
 62
    50
 10
9.9600000000000009
 20
-0.2
 30
9.4000000000000004
 11
9.8599999999999994
 21
-0.3
 31
9.0999999999999996
210
0.0
220
-0.9486832980505139
230
0.3162277660168373
  0
LINE
  5
40A
  8
0
 62
    50
 10
9.8599999999999994
 20
-0.3
 30
9.0999999999999996
 11
10.460000000000001
 21
-0.3
 31
9.0999999999999996
210
0.0
220
-0.9486832980505139
230
0.3162277660168373
  0
LINE
  5
40B
  8
0
 62
    50
 10
10.359999999999999
 20
-0.2
 30
9.4000000000000004
 11
10.460000000000001
 21
-0.3
 31
9.0999999999999996
210
0.0
220
-0.9486832980505139
230
0.3162277660168373
  0
LINE
  5
40C
  8
0
 62
    50
 10
9.9600000000000009
 20
-0.2
 30
9.4000000000000004
 11
9.9600000000000009
 21
0.2
 31
9.4000000000000004
210
-0.9486832980505139
220
0.0
230
0.3162277660168373
  0
LINE
  5
40D
  8
0
 62
    50
 10
9.9600000000000009
 20
0.2
 30
9.4000000000000004
 11
9.8599999999999994
 21
0.3
 31
9.0999999999999996
210
-0.9486832980505139
220
0.0
230
0.3162277660168373
  0
LINE
  5
40E
  8
0
 62
    50
 10
9.8599999999999994
 20
0.3
 30
9.0999999999999996
 11
9.8599999999999994
 21
-0.3
 31
9.0999999999999996
210
-0.9486832980505139
220
0.0
230
0.3162277660168373
  0
LINE
  5
40F
  8
0
 62
    50
 10
9.9600000000000009
 20
-0.2
 30
9.4000000000000004
 11
9.8599999999999994
 21
-0.3
 31
9.0999999999999996
210
-0.9486832980505139
220
0.0
230
0.3162277660168373
  0
LINE
  5
410
  8
0
 62
    50
 10
9.9600000000000009
 20
0.2
 30
9.4000000000000004
 11
10.359999999999999
 21
0.2
 31
9.4000000000000004
210
0.0
220
0.9486832980505139
230
0.3162277660168373
  0
LINE
  5
411
  8
0
 62
    50
 10
10.359999999999999
 20
0.2
 30
9.4000000000000004
 11
10.460000000000001
 21
0.3
 31
9.0999999999999996
210
0.0
220
0.9486832980505139
230
0.3162277660168373
  0
LINE
  5
412
  8
0
 62
    50
 10
10.460000000000001
 20
0.3
 30
9.0999999999999996
 11
9.8599999999999994
 21
0.3
 31
9.0999999999999996
210
0.0
220
0.9486832980505139
230
0.3162277660168373
  0
LINE
  5
413
  8
0
 62
    50
 10
9.9600000000000009
 20
0.2
 30
9.4000000000000004
 11
9.8599999999999994
 21
0.3
 31
9.0999999999999996
210
0.0
220
0.9486832980505139
230
0.3162277660168373
  0
LINE
  5
414
  8
0
 62
    50
 10
9.8599999999999994
 20
0.3
 30
-2.7000000000000002
 11
10.460000000000001
 21
0.3
 31
-2.7000000000000002
210
0.0
220
1.0
230
0.0
  0
LINE
  5
415
  8
0
 62
    50
 10
9.8599999999999994
 20
0.3
 30
-2.7000000000000002
 11
9.8599999999999994
 21
0.3
 31
9.0999999999999996
210
0.0
220
1.0
230
0.0
  0
LINE
  5
416
  8
0
 62
    50
 10
10.460000000000001
 20
0.3
 30
9.0999999999999996
 11
9.8599999999999994
 21
0.3
 31
9.0999999999999996
210
0.0
220
1.0
230
0.0
  0
LINE
  5
417
  8
0
 62
    50
 10
10.460000000000001
 20
0.3
 30
-2.7000000000000002
 11
10.460000000000001
 21
0.3
 31
9.0999999999999996
210
0.0
220
1.0
230
0.0
  0
LINE
  5
418
  8
0
 62
    50
 10
10.460000000000001
 20
0.3
 30
-2.7000000000000002
 11
10.460000000000001
 21
-0.3
 31
-2.7000000000000002
210
1.0
220
0.0
230
0.0
  0
LINE
  5
419
  8
0
 62
    50
 10
10.460000000000001
 20
0.3
 30
-2.7000000000000002
 11
10.460000000000001
 21
0.3
 31
9.0999999999999996
210
1.0
220
0.0
230
0.0
  0
LINE
  5
41A
  8
0
 62
    50
 10
10.460000000000001
 20
-0.3
 30
9.0999999999999996
 11
10.460000000000001
 21
0.3
 31
9.0999999999999996
210
1.0
220
0.0
230
0.0
  0
LINE
  5
41B
  8
0
 62
    50
 10
10.460000000000001
 20
-0.3
 30
-2.7000000000000002
 11
10.460000000000001
 21
-0.3
 31
9.0999999999999996
210
1.0
220
0.0
230
0.0
  0
LINE
  5
41C
  8
0
 62
    50
 10
10.359999999999999
 20
0.2
 30
9.4000000000000004
 11
10.359999999999999
 21
-0.2
 31
9.4000000000000004
  0
LINE
  5
41D
  8
0
 62
    50
 10
9.9600000000000009
 20
0.2
 30
9.4000000000000004
 11
10.359999999999999
 21
0.2
 31
9.4000000000000004
  0
LINE
  5
41E
  8
0
 62
    50
 10
9.9600000000000009
 20
-0.2
 30
9.4000000000000004
 11
9.9600000000000009
 21
0.2
 31
9.4000000000000004
  0
LINE
  5
41F
  8
0
 62
    50
 10
10.359999999999999
 20
-0.2
 30
9.4000000000000004
 11
9.9600000000000009
 21
-0.2
 31
9.4000000000000004
  0
ENDBLK
  5
421
  8
0
  0
BLOCK
  8
0
  2
*U9
 70
     1
 10
0.0
 20
0.0
 30
0.0
  3
*U9
  1

  0
LINE
  5
431
  8
0
 62
    50
 10
7.419999999999999
 20
-0.2
 30
-3.0
 11
7.8200000000000003
 21
-0.2
 31
-3.0
210
0.0
220
-0.9486832980505138
230
-0.316227766016838
  0
LINE
  5
432
  8
0
 62
    50
 10
7.8200000000000003
 20
-0.2
 30
-3.0
 11
7.919999999999999
 21
-0.3
 31
-2.7000000000000002
210
0.0
220
-0.9486832980505138
230
-0.316227766016838
  0
LINE
  5
433
  8
0
 62
    50
 10
7.919999999999999
 20
-0.3
 30
-2.7000000000000002
 11
7.3200000000000003
 21
-0.3
 31
-2.7000000000000002
210
0.0
220
-0.9486832980505138
230
-0.316227766016838
  0
LINE
  5
434
  8
0
 62
    50
 10
7.3200000000000003
 20
-0.3
 30
-2.7000000000000002
 11
7.419999999999999
 21
-0.2
 31
-3.0
210
0.0
220
-0.9486832980505138
230
-0.316227766016838
  0
LINE
  5
435
  8
0
 62
    50
 10
7.8200000000000003
 20
-0.2
 30
-3.0
 11
7.8200000000000003
 21
0.2
 31
-3.0
210
0.9486832980505138
220
0.0
230
-0.316227766016838
  0
LINE
  5
436
  8
0
 62
    50
 10
7.8200000000000003
 20
0.2
 30
-3.0
 11
7.919999999999999
 21
0.3
 31
-2.7000000000000002
210
0.9486832980505138
220
0.0
230
-0.316227766016838
  0
LINE
  5
437
  8
0
 62
    50
 10
7.919999999999999
 20
0.3
 30
-2.7000000000000002
 11
7.919999999999999
 21
-0.3
 31
-2.7000000000000002
210
0.9486832980505138
220
0.0
230
-0.316227766016838
  0
LINE
  5
438
  8
0
 62
    50
 10
7.8200000000000003
 20
-0.2
 30
-3.0
 11
7.919999999999999
 21
-0.3
 31
-2.7000000000000002
210
0.9486832980505138
220
0.0
230
-0.316227766016838
  0
LINE
  5
439
  8
0
 62
    50
 10
7.8200000000000003
 20
0.2
 30
-3.0
 11
7.419999999999999
 21
0.2
 31
-3.0
210
0.0
220
0.9486832980505138
230
-0.316227766016838
  0
LINE
  5
43A
  8
0
 62
    50
 10
7.419999999999999
 20
0.2
 30
-3.0
 11
7.3200000000000003
 21
0.3
 31
-2.7000000000000002
210
0.0
220
0.9486832980505138
230
-0.316227766016838
  0
LINE
  5
43B
  8
0
 62
    50
 10
7.3200000000000003
 20
0.3
 30
-2.7000000000000002
 11
7.919999999999999
 21
0.3
 31
-2.7000000000000002
210
0.0
220
0.9486832980505138
230
-0.316227766016838
  0
LINE
  5
43C
  8
0
 62
    50
 10
7.8200000000000003
 20
0.2
 30
-3.0
 11
7.919999999999999
 21
0.3
 31
-2.7000000000000002
210
0.0
220
0.9486832980505138
230
-0.316227766016838
  0
LINE
  5
43D
  8
0
 62
    50
 10
7.419999999999999
 20
0.2
 30
-3.0
 11
7.419999999999999
 21
-0.2
 31
-3.0
210
-0.9486832980505138
220
0.0
230
-0.316227766016838
  0
LINE
  5
43E
  8
0
 62
    50
 10
7.3200000000000003
 20
-0.3
 30
-2.7000000000000002
 11
7.419999999999999
 21
-0.2
 31
-3.0
210
-0.9486832980505138
220
0.0
230
-0.316227766016838
  0
LINE
  5
43F
  8
0
 62
    50
 10
7.3200000000000003
 20
-0.3
 30
-2.7000000000000002
 11
7.3200000000000003
 21
0.3
 31
-2.7000000000000002
210
-0.9486832980505138
220
0.0
230
-0.316227766016838
  0
LINE
  5
440
  8
0
 62
    50
 10
7.419999999999999
 20
0.2
 30
-3.0
 11
7.3200000000000003
 21
0.3
 31
-2.7000000000000002
210
-0.9486832980505138
220
0.0
230
-0.316227766016838
  0
LINE
  5
441
  8
0
 62
    50
 10
7.3200000000000003
 20
-0.3
 30
-2.7000000000000002
 11
7.3200000000000003
 21
0.3
 31
-2.7000000000000002
210
-1.0
220
0.0
230
0.0
  0
LINE
  5
442
  8
0
 62
    50
 10
7.3200000000000003
 20
-0.3
 30
-2.7000000000000002
 11
7.3200000000000003
 21
-0.3
 31
9.0999999999999996
210
-1.0
220
0.0
230
0.0
  0
LINE
  5
443
  8
0
 62
    50
 10
7.3200000000000003
 20
0.3
 30
9.0999999999999996
 11
7.3200000000000003
 21
-0.3
 31
9.0999999999999996
210
-1.0
220
0.0
230
0.0
  0
LINE
  5
444
  8
0
 62
    50
 10
7.3200000000000003
 20
0.3
 30
-2.7000000000000002
 11
7.3200000000000003
 21
0.3
 31
9.0999999999999996
210
-1.0
220
0.0
230
0.0
  0
LINE
  5
445
  8
0
 62
    50
 10
7.919999999999999
 20
-0.3
 30
-2.7000000000000002
 11
7.3200000000000003
 21
-0.3
 31
-2.7000000000000002
210
0.0
220
-1.0
230
0.0
  0
LINE
  5
446
  8
0
 62
    50
 10
7.919999999999999
 20
-0.3
 30
-2.7000000000000002
 11
7.919999999999999
 21
-0.3
 31
9.0999999999999996
210
0.0
220
-1.0
230
0.0
  0
LINE
  5
447
  8
0
 62
    50
 10
7.3200000000000003
 20
-0.3
 30
9.0999999999999996
 11
7.919999999999999
 21
-0.3
 31
9.0999999999999996
210
0.0
220
-1.0
230
0.0
  0
LINE
  5
448
  8
0
 62
    50
 10
7.3200000000000003
 20
-0.3
 30
-2.7000000000000002
 11
7.3200000000000003
 21
-0.3
 31
9.0999999999999996
210
0.0
220
-1.0
230
0.0
  0
LINE
  5
449
  8
0
 62
    50
 10
7.419999999999999
 20
-0.2
 30
-3.0
 11
7.8200000000000003
 21
-0.2
 31
-3.0
210
0.0
220
0.0
230
-1.0
  0
LINE
  5
44A
  8
0
 62
    50
 10
7.419999999999999
 20
0.2
 30
-3.0
 11
7.419999999999999
 21
-0.2
 31
-3.0
210
0.0
220
0.0
230
-1.0
  0
LINE
  5
44B
  8
0
 62
    50
 10
7.8200000000000003
 20
0.2
 30
-3.0
 11
7.419999999999999
 21
0.2
 31
-3.0
210
0.0
220
0.0
230
-1.0
  0
LINE
  5
44C
  8
0
 62
    50
 10
7.8200000000000003
 20
-0.2
 30
-3.0
 11
7.8200000000000003
 21
0.2
 31
-3.0
210
0.0
220
0.0
230
-1.0
  0
LINE
  5
44D
  8
0
 62
    50
 10
7.8200000000000003
 20
0.2
 30
9.4000000000000004
 11
7.8200000000000003
 21
-0.2
 31
9.4000000000000004
210
0.9486832980505139
220
0.0
230
0.3162277660168373
  0
LINE
  5
44E
  8
0
 62
    50
 10
7.8200000000000003
 20
-0.2
 30
9.4000000000000004
 11
7.919999999999999
 21
-0.3
 31
9.0999999999999996
210
0.9486832980505139
220
0.0
230
0.3162277660168373
  0
LINE
  5
44F
  8
0
 62
    50
 10
7.919999999999999
 20
-0.3
 30
9.0999999999999996
 11
7.919999999999999
 21
0.3
 31
9.0999999999999996
210
0.9486832980505139
220
0.0
230
0.3162277660168373
  0
LINE
  5
450
  8
0
 62
    50
 10
7.8200000000000003
 20
0.2
 30
9.4000000000000004
 11
7.919999999999999
 21
0.3
 31
9.0999999999999996
210
0.9486832980505139
220
0.0
230
0.3162277660168373
  0
LINE
  5
451
  8
0
 62
    50
 10
7.8200000000000003
 20
-0.2
 30
9.4000000000000004
 11
7.419999999999999
 21
-0.2
 31
9.4000000000000004
210
0.0
220
-0.9486832980505139
230
0.3162277660168373
  0
LINE
  5
452
  8
0
 62
    50
 10
7.419999999999999
 20
-0.2
 30
9.4000000000000004
 11
7.3200000000000003
 21
-0.3
 31
9.0999999999999996
210
0.0
220
-0.9486832980505139
230
0.3162277660168373
  0
LINE
  5
453
  8
0
 62
    50
 10
7.3200000000000003
 20
-0.3
 30
9.0999999999999996
 11
7.919999999999999
 21
-0.3
 31
9.0999999999999996
210
0.0
220
-0.9486832980505139
230
0.3162277660168373
  0
LINE
  5
454
  8
0
 62
    50
 10
7.8200000000000003
 20
-0.2
 30
9.4000000000000004
 11
7.919999999999999
 21
-0.3
 31
9.0999999999999996
210
0.0
220
-0.9486832980505139
230
0.3162277660168373
  0
LINE
  5
455
  8
0
 62
    50
 10
7.419999999999999
 20
-0.2
 30
9.4000000000000004
 11
7.419999999999999
 21
0.2
 31
9.4000000000000004
210
-0.9486832980505139
220
0.0
230
0.3162277660168373
  0
LINE
  5
456
  8
0
 62
    50
 10
7.419999999999999
 20
0.2
 30
9.4000000000000004
 11
7.3200000000000003
 21
0.3
 31
9.0999999999999996
210
-0.9486832980505139
220
0.0
230
0.3162277660168373
  0
LINE
  5
457
  8
0
 62
    50
 10
7.3200000000000003
 20
0.3
 30
9.0999999999999996
 11
7.3200000000000003
 21
-0.3
 31
9.0999999999999996
210
-0.9486832980505139
220
0.0
230
0.3162277660168373
  0
LINE
  5
458
  8
0
 62
    50
 10
7.419999999999999
 20
-0.2
 30
9.4000000000000004
 11
7.3200000000000003
 21
-0.3
 31
9.0999999999999996
210
-0.9486832980505139
220
0.0
230
0.3162277660168373
  0
LINE
  5
459
  8
0
 62
    50
 10
7.419999999999999
 20
0.2
 30
9.4000000000000004
 11
7.8200000000000003
 21
0.2
 31
9.4000000000000004
210
0.0
220
0.9486832980505139
230
0.3162277660168373
  0
LINE
  5
45A
  8
0
 62
    50
 10
7.8200000000000003
 20
0.2
 30
9.4000000000000004
 11
7.919999999999999
 21
0.3
 31
9.0999999999999996
210
0.0
220
0.9486832980505139
230
0.3162277660168373
  0
LINE
  5
45B
  8
0
 62
    50
 10
7.919999999999999
 20
0.3
 30
9.0999999999999996
 11
7.3200000000000003
 21
0.3
 31
9.0999999999999996
210
0.0
220
0.9486832980505139
230
0.3162277660168373
  0
LINE
  5
45C
  8
0
 62
    50
 10
7.419999999999999
 20
0.2
 30
9.4000000000000004
 11
7.3200000000000003
 21
0.3
 31
9.0999999999999996
210
0.0
220
0.9486832980505139
230
0.3162277660168373
  0
LINE
  5
45D
  8
0
 62
    50
 10
7.3200000000000003
 20
0.3
 30
-2.7000000000000002
 11
7.919999999999999
 21
0.3
 31
-2.7000000000000002
210
0.0
220
1.0
230
0.0
  0
LINE
  5
45E
  8
0
 62
    50
 10
7.3200000000000003
 20
0.3
 30
-2.7000000000000002
 11
7.3200000000000003
 21
0.3
 31
9.0999999999999996
210
0.0
220
1.0
230
0.0
  0
LINE
  5
45F
  8
0
 62
    50
 10
7.919999999999999
 20
0.3
 30
9.0999999999999996
 11
7.3200000000000003
 21
0.3
 31
9.0999999999999996
210
0.0
220
1.0
230
0.0
  0
LINE
  5
460
  8
0
 62
    50
 10
7.919999999999999
 20
0.3
 30
-2.7000000000000002
 11
7.919999999999999
 21
0.3
 31
9.0999999999999996
210
0.0
220
1.0
230
0.0
  0
LINE
  5
461
  8
0
 62
    50
 10
7.919999999999999
 20
0.3
 30
-2.7000000000000002
 11
7.919999999999999
 21
-0.3
 31
-2.7000000000000002
210
1.0
220
0.0
230
0.0
  0
LINE
  5
462
  8
0
 62
    50
 10
7.919999999999999
 20
0.3
 30
-2.7000000000000002
 11
7.919999999999999
 21
0.3
 31
9.0999999999999996
210
1.0
220
0.0
230
0.0
  0
LINE
  5
463
  8
0
 62
    50
 10
7.919999999999999
 20
-0.3
 30
9.0999999999999996
 11
7.919999999999999
 21
0.3
 31
9.0999999999999996
210
1.0
220
0.0
230
0.0
  0
LINE
  5
464
  8
0
 62
    50
 10
7.919999999999999
 20
-0.3
 30
-2.7000000000000002
 11
7.919999999999999
 21
-0.3
 31
9.0999999999999996
210
1.0
220
0.0
230
0.0
  0
LINE
  5
465
  8
0
 62
    50
 10
7.8200000000000003
 20
0.2
 30
9.4000000000000004
 11
7.8200000000000003
 21
-0.2
 31
9.4000000000000004
  0
LINE
  5
466
  8
0
 62
    50
 10
7.419999999999999
 20
0.2
 30
9.4000000000000004
 11
7.8200000000000003
 21
0.2
 31
9.4000000000000004
  0
LINE
  5
467
  8
0
 62
    50
 10
7.419999999999999
 20
-0.2
 30
9.4000000000000004
 11
7.419999999999999
 21
0.2
 31
9.4000000000000004
  0
LINE
  5
468
  8
0
 62
    50
 10
7.8200000000000003
 20
-0.2
 30
9.4000000000000004
 11
7.419999999999999
 21
-0.2
 31
9.4000000000000004
  0
ENDBLK
  5
46A
  8
0
  0
BLOCK
  8
0
  2
*U10
 70
     1
 10
0.0
 20
0.0
 30
0.0
  3
*U10
  1

  0
LINE
  5
472
  8
0
 62
   250
 10
8.8900000000000006
 20
-1.25
 30
2.7999999999999989
 11
8.8900000000000006
 21
1.25
 31
2.7999999999999989
210
-1.0
220
0.0
230
0.0
  0
LINE
  5
473
  8
0
 62
   250
 10
8.8900000000000006
 20
1.25
 30
0.0
 11
8.8900000000000006
 21
1.25
 31
2.7999999999999989
210
-1.0
220
0.0
230
0.0
  0
LINE
  5
474
  8
0
 62
   250
 10
8.8900000000000006
 20
1.25
 30
0.0
 11
8.8900000000000006
 21
-1.25
 31
0.0
210
-1.0
220
0.0
230
0.0
  0
LINE
  5
475
  8
0
 62
   250
 10
8.8900000000000006
 20
-1.25
 30
0.0
 11
8.8900000000000006
 21
-1.25
 31
2.7999999999999989
210
-1.0
220
0.0
230
0.0
  0
LINE
  5
476
  8
0
 62
   250
 10
8.8900000000000006
 20
1.25
 30
2.7999999999999989
 11
11.43
 21
1.25
 31
2.7999999999999989
210
0.0
220
1.0
230
0.0
  0
LINE
  5
477
  8
0
 62
   250
 10
11.43
 20
1.25
 30
0.0
 11
11.43
 21
1.25
 31
2.7999999999999989
210
0.0
220
1.0
230
0.0
  0
LINE
  5
478
  8
0
 62
   250
 10
11.43
 20
1.25
 30
0.0
 11
8.8900000000000006
 21
1.25
 31
0.0
210
0.0
220
1.0
230
0.0
  0
LINE
  5
479
  8
0
 62
   250
 10
8.8900000000000006
 20
1.25
 30
0.0
 11
8.8900000000000006
 21
1.25
 31
2.7999999999999989
210
0.0
220
1.0
230
0.0
  0
LINE
  5
47A
  8
0
 62
   250
 10
11.43
 20
1.25
 30
2.7999999999999989
 11
11.43
 21
-1.25
 31
2.7999999999999989
210
1.0
220
0.0
230
0.0
  0
LINE
  5
47B
  8
0
 62
   250
 10
11.43
 20
-1.25
 30
0.0
 11
11.43
 21
-1.25
 31
2.7999999999999989
210
1.0
220
0.0
230
0.0
  0
LINE
  5
47C
  8
0
 62
   250
 10
11.43
 20
-1.25
 30
0.0
 11
11.43
 21
1.25
 31
0.0
210
1.0
220
0.0
230
0.0
  0
LINE
  5
47D
  8
0
 62
   250
 10
11.43
 20
1.25
 30
0.0
 11
11.43
 21
1.25
 31
2.7999999999999989
210
1.0
220
0.0
230
0.0
  0
LINE
  5
47E
  8
0
 62
   250
 10
11.43
 20
-1.25
 30
2.7999999999999989
 11
8.8900000000000006
 21
-1.25
 31
2.7999999999999989
210
0.0
220
-1.0
230
0.0
  0
LINE
  5
47F
  8
0
 62
   250
 10
8.8900000000000006
 20
-1.25
 30
0.0
 11
8.8900000000000006
 21
-1.25
 31
2.7999999999999989
210
0.0
220
-1.0
230
0.0
  0
LINE
  5
480
  8
0
 62
   250
 10
8.8900000000000006
 20
-1.25
 30
0.0
 11
11.43
 21
-1.25
 31
0.0
210
0.0
220
-1.0
230
0.0
  0
LINE
  5
481
  8
0
 62
   250
 10
11.43
 20
-1.25
 30
0.0
 11
11.43
 21
-1.25
 31
2.7999999999999989
210
0.0
220
-1.0
230
0.0
  0
LINE
  5
482
  8
0
 62
   250
 10
8.8900000000000006
 20
-1.25
 30
2.7999999999999989
 11
8.8900000000000006
 21
1.25
 31
2.7999999999999989
  0
LINE
  5
483
  8
0
 62
   250
 10
11.43
 20
-1.25
 30
2.7999999999999989
 11
8.8900000000000006
 21
-1.25
 31
2.7999999999999989
  0
LINE
  5
484
  8
0
 62
   250
 10
11.43
 20
1.25
 30
2.7999999999999989
 11
11.43
 21
-1.25
 31
2.7999999999999989
  0
LINE
  5
485
  8
0
 62
   250
 10
8.8900000000000006
 20
1.25
 30
2.7999999999999989
 11
11.43
 21
1.25
 31
2.7999999999999989
  0
LINE
  5
486
  8
0
 62
   250
 10
8.8900000000000006
 20
-1.25
 30
0.0
 11
11.43
 21
-1.25
 31
0.0
210
0.0
220
0.0
230
-1.0
  0
LINE
  5
487
  8
0
 62
   250
 10
8.8900000000000006
 20
1.25
 30
0.0
 11
8.8900000000000006
 21
-1.25
 31
0.0
210
0.0
220
0.0
230
-1.0
  0
LINE
  5
488
  8
0
 62
   250
 10
11.43
 20
1.25
 30
0.0
 11
8.8900000000000006
 21
1.25
 31
0.0
210
0.0
220
0.0
230
-1.0
  0
LINE
  5
489
  8
0
 62
   250
 10
11.43
 20
-1.25
 30
0.0
 11
11.43
 21
1.25
 31
0.0
210
0.0
220
0.0
230
-1.0
  0
ENDBLK
  5
48B
  8
0
  0
BLOCK
  8
0
  2
*U11
 70
     1
 10
0.0
 20
0.0
 30
0.0
  3
*U11
  1

  0
LINE
  5
493
  8
0
 62
   250
 10
6.3499999999999988
 20
-1.25
 30
2.7999999999999989
 11
6.3499999999999988
 21
1.25
 31
2.7999999999999989
210
-1.0
220
0.0
230
0.0
  0
LINE
  5
494
  8
0
 62
   250
 10
6.3499999999999988
 20
1.25
 30
0.0
 11
6.3499999999999988
 21
1.25
 31
2.7999999999999989
210
-1.0
220
0.0
230
0.0
  0
LINE
  5
495
  8
0
 62
   250
 10
6.3499999999999988
 20
1.25
 30
0.0
 11
6.3499999999999988
 21
-1.25
 31
0.0
210
-1.0
220
0.0
230
0.0
  0
LINE
  5
496
  8
0
 62
   250
 10
6.3499999999999988
 20
-1.25
 30
0.0
 11
6.3499999999999988
 21
-1.25
 31
2.7999999999999989
210
-1.0
220
0.0
230
0.0
  0
LINE
  5
497
  8
0
 62
   250
 10
6.3499999999999988
 20
1.25
 30
2.7999999999999989
 11
8.8900000000000006
 21
1.25
 31
2.7999999999999989
210
0.0
220
1.0
230
0.0
  0
LINE
  5
498
  8
0
 62
   250
 10
8.8900000000000006
 20
1.25
 30
0.0
 11
8.8900000000000006
 21
1.25
 31
2.7999999999999989
210
0.0
220
1.0
230
0.0
  0
LINE
  5
499
  8
0
 62
   250
 10
8.8900000000000006
 20
1.25
 30
0.0
 11
6.3499999999999988
 21
1.25
 31
0.0
210
0.0
220
1.0
230
0.0
  0
LINE
  5
49A
  8
0
 62
   250
 10
6.3499999999999988
 20
1.25
 30
0.0
 11
6.3499999999999988
 21
1.25
 31
2.7999999999999989
210
0.0
220
1.0
230
0.0
  0
LINE
  5
49B
  8
0
 62
   250
 10
8.8900000000000006
 20
1.25
 30
2.7999999999999989
 11
8.8900000000000006
 21
-1.25
 31
2.7999999999999989
210
1.0
220
0.0
230
0.0
  0
LINE
  5
49C
  8
0
 62
   250
 10
8.8900000000000006
 20
-1.25
 30
0.0
 11
8.8900000000000006
 21
-1.25
 31
2.7999999999999989
210
1.0
220
0.0
230
0.0
  0
LINE
  5
49D
  8
0
 62
   250
 10
8.8900000000000006
 20
-1.25
 30
0.0
 11
8.8900000000000006
 21
1.25
 31
0.0
210
1.0
220
0.0
230
0.0
  0
LINE
  5
49E
  8
0
 62
   250
 10
8.8900000000000006
 20
1.25
 30
0.0
 11
8.8900000000000006
 21
1.25
 31
2.7999999999999989
210
1.0
220
0.0
230
0.0
  0
LINE
  5
49F
  8
0
 62
   250
 10
8.8900000000000006
 20
-1.25
 30
2.7999999999999989
 11
6.3499999999999988
 21
-1.25
 31
2.7999999999999989
210
0.0
220
-1.0
230
0.0
  0
LINE
  5
4A0
  8
0
 62
   250
 10
6.3499999999999988
 20
-1.25
 30
0.0
 11
6.3499999999999988
 21
-1.25
 31
2.7999999999999989
210
0.0
220
-1.0
230
0.0
  0
LINE
  5
4A1
  8
0
 62
   250
 10
6.3499999999999988
 20
-1.25
 30
0.0
 11
8.8900000000000006
 21
-1.25
 31
0.0
210
0.0
220
-1.0
230
0.0
  0
LINE
  5
4A2
  8
0
 62
   250
 10
8.8900000000000006
 20
-1.25
 30
0.0
 11
8.8900000000000006
 21
-1.25
 31
2.7999999999999989
210
0.0
220
-1.0
230
0.0
  0
LINE
  5
4A3
  8
0
 62
   250
 10
6.3499999999999988
 20
-1.25
 30
2.7999999999999989
 11
6.3499999999999988
 21
1.25
 31
2.7999999999999989
  0
LINE
  5
4A4
  8
0
 62
   250
 10
8.8900000000000006
 20
-1.25
 30
2.7999999999999989
 11
6.3499999999999988
 21
-1.25
 31
2.7999999999999989
  0
LINE
  5
4A5
  8
0
 62
   250
 10
8.8900000000000006
 20
1.25
 30
2.7999999999999989
 11
8.8900000000000006
 21
-1.25
 31
2.7999999999999989
  0
LINE
  5
4A6
  8
0
 62
   250
 10
6.3499999999999988
 20
1.25
 30
2.7999999999999989
 11
8.8900000000000006
 21
1.25
 31
2.7999999999999989
  0
LINE
  5
4A7
  8
0
 62
   250
 10
6.3499999999999988
 20
-1.25
 30
0.0
 11
8.8900000000000006
 21
-1.25
 31
0.0
210
0.0
220
0.0
230
-1.0
  0
LINE
  5
4A8
  8
0
 62
   250
 10
6.3499999999999988
 20
1.25
 30
0.0
 11
6.3499999999999988
 21
-1.25
 31
0.0
210
0.0
220
0.0
230
-1.0
  0
LINE
  5
4A9
  8
0
 62
   250
 10
8.8900000000000006
 20
1.25
 30
0.0
 11
6.3499999999999988
 21
1.25
 31
0.0
210
0.0
220
0.0
230
-1.0
  0
LINE
  5
4AA
  8
0
 62
   250
 10
8.8900000000000006
 20
-1.25
 30
0.0
 11
8.8900000000000006
 21
1.25
 31
0.0
210
0.0
220
0.0
230
-1.0
  0
ENDBLK
  5
4AC
  8
0
  0
BLOCK
  8
0
  2
*U12
 70
     1
 10
0.0
 20
0.0
 30
0.0
  3
*U12
  1

  0
LINE
  5
4BC
  8
0
 62
    50
 10
17.579999999999998
 20
-0.2
 30
-3.0
 11
17.98
 21
-0.2
 31
-3.0
210
0.0
220
-0.9486832980505138
230
-0.316227766016838
  0
LINE
  5
4BD
  8
0
 62
    50
 10
17.98
 20
-0.2
 30
-3.0
 11
18.079999999999998
 21
-0.3
 31
-2.7000000000000002
210
0.0
220
-0.9486832980505138
230
-0.316227766016838
  0
LINE
  5
4BE
  8
0
 62
    50
 10
18.079999999999998
 20
-0.3
 30
-2.7000000000000002
 11
17.48
 21
-0.3
 31
-2.7000000000000002
210
0.0
220
-0.9486832980505138
230
-0.316227766016838
  0
LINE
  5
4BF
  8
0
 62
    50
 10
17.48
 20
-0.3
 30
-2.7000000000000002
 11
17.579999999999998
 21
-0.2
 31
-3.0
210
0.0
220
-0.9486832980505138
230
-0.316227766016838
  0
LINE
  5
4C0
  8
0
 62
    50
 10
17.98
 20
-0.2
 30
-3.0
 11
17.98
 21
0.2
 31
-3.0
210
0.9486832980505138
220
0.0
230
-0.316227766016838
  0
LINE
  5
4C1
  8
0
 62
    50
 10
17.98
 20
0.2
 30
-3.0
 11
18.079999999999998
 21
0.3
 31
-2.7000000000000002
210
0.9486832980505138
220
0.0
230
-0.316227766016838
  0
LINE
  5
4C2
  8
0
 62
    50
 10
18.079999999999998
 20
0.3
 30
-2.7000000000000002
 11
18.079999999999998
 21
-0.3
 31
-2.7000000000000002
210
0.9486832980505138
220
0.0
230
-0.316227766016838
  0
LINE
  5
4C3
  8
0
 62
    50
 10
17.98
 20
-0.2
 30
-3.0
 11
18.079999999999998
 21
-0.3
 31
-2.7000000000000002
210
0.9486832980505138
220
0.0
230
-0.316227766016838
  0
LINE
  5
4C4
  8
0
 62
    50
 10
17.98
 20
0.2
 30
-3.0
 11
17.579999999999998
 21
0.2
 31
-3.0
210
0.0
220
0.9486832980505138
230
-0.316227766016838
  0
LINE
  5
4C5
  8
0
 62
    50
 10
17.579999999999998
 20
0.2
 30
-3.0
 11
17.48
 21
0.3
 31
-2.7000000000000002
210
0.0
220
0.9486832980505138
230
-0.316227766016838
  0
LINE
  5
4C6
  8
0
 62
    50
 10
17.48
 20
0.3
 30
-2.7000000000000002
 11
18.079999999999998
 21
0.3
 31
-2.7000000000000002
210
0.0
220
0.9486832980505138
230
-0.316227766016838
  0
LINE
  5
4C7
  8
0
 62
    50
 10
17.98
 20
0.2
 30
-3.0
 11
18.079999999999998
 21
0.3
 31
-2.7000000000000002
210
0.0
220
0.9486832980505138
230
-0.316227766016838
  0
LINE
  5
4C8
  8
0
 62
    50
 10
17.579999999999998
 20
0.2
 30
-3.0
 11
17.579999999999998
 21
-0.2
 31
-3.0
210
-0.9486832980505138
220
0.0
230
-0.316227766016838
  0
LINE
  5
4C9
  8
0
 62
    50
 10
17.48
 20
-0.3
 30
-2.7000000000000002
 11
17.579999999999998
 21
-0.2
 31
-3.0
210
-0.9486832980505138
220
0.0
230
-0.316227766016838
  0
LINE
  5
4CA
  8
0
 62
    50
 10
17.48
 20
-0.3
 30
-2.7000000000000002
 11
17.48
 21
0.3
 31
-2.7000000000000002
210
-0.9486832980505138
220
0.0
230
-0.316227766016838
  0
LINE
  5
4CB
  8
0
 62
    50
 10
17.579999999999998
 20
0.2
 30
-3.0
 11
17.48
 21
0.3
 31
-2.7000000000000002
210
-0.9486832980505138
220
0.0
230
-0.316227766016838
  0
LINE
  5
4CC
  8
0
 62
    50
 10
17.48
 20
-0.3
 30
-2.7000000000000002
 11
17.48
 21
0.3
 31
-2.7000000000000002
210
-1.0
220
0.0
230
0.0
  0
LINE
  5
4CD
  8
0
 62
    50
 10
17.48
 20
-0.3
 30
-2.7000000000000002
 11
17.48
 21
-0.3
 31
9.0999999999999996
210
-1.0
220
0.0
230
0.0
  0
LINE
  5
4CE
  8
0
 62
    50
 10
17.48
 20
0.3
 30
9.0999999999999996
 11
17.48
 21
-0.3
 31
9.0999999999999996
210
-1.0
220
0.0
230
0.0
  0
LINE
  5
4CF
  8
0
 62
    50
 10
17.48
 20
0.3
 30
-2.7000000000000002
 11
17.48
 21
0.3
 31
9.0999999999999996
210
-1.0
220
0.0
230
0.0
  0
LINE
  5
4D0
  8
0
 62
    50
 10
18.079999999999998
 20
-0.3
 30
-2.7000000000000002
 11
17.48
 21
-0.3
 31
-2.7000000000000002
210
0.0
220
-1.0
230
0.0
  0
LINE
  5
4D1
  8
0
 62
    50
 10
18.079999999999998
 20
-0.3
 30
-2.7000000000000002
 11
18.079999999999998
 21
-0.3
 31
9.0999999999999996
210
0.0
220
-1.0
230
0.0
  0
LINE
  5
4D2
  8
0
 62
    50
 10
17.48
 20
-0.3
 30
9.0999999999999996
 11
18.079999999999998
 21
-0.3
 31
9.0999999999999996
210
0.0
220
-1.0
230
0.0
  0
LINE
  5
4D3
  8
0
 62
    50
 10
17.48
 20
-0.3
 30
-2.7000000000000002
 11
17.48
 21
-0.3
 31
9.0999999999999996
210
0.0
220
-1.0
230
0.0
  0
LINE
  5
4D4
  8
0
 62
    50
 10
17.579999999999998
 20
-0.2
 30
-3.0
 11
17.98
 21
-0.2
 31
-3.0
210
0.0
220
0.0
230
-1.0
  0
LINE
  5
4D5
  8
0
 62
    50
 10
17.579999999999998
 20
0.2
 30
-3.0
 11
17.579999999999998
 21
-0.2
 31
-3.0
210
0.0
220
0.0
230
-1.0
  0
LINE
  5
4D6
  8
0
 62
    50
 10
17.98
 20
0.2
 30
-3.0
 11
17.579999999999998
 21
0.2
 31
-3.0
210
0.0
220
0.0
230
-1.0
  0
LINE
  5
4D7
  8
0
 62
    50
 10
17.98
 20
-0.2
 30
-3.0
 11
17.98
 21
0.2
 31
-3.0
210
0.0
220
0.0
230
-1.0
  0
LINE
  5
4D8
  8
0
 62
    50
 10
17.98
 20
0.2
 30
9.4000000000000004
 11
17.98
 21
-0.2
 31
9.4000000000000004
210
0.9486832980505139
220
0.0
230
0.3162277660168373
  0
LINE
  5
4D9
  8
0
 62
    50
 10
17.98
 20
-0.2
 30
9.4000000000000004
 11
18.079999999999998
 21
-0.3
 31
9.0999999999999996
210
0.9486832980505139
220
0.0
230
0.3162277660168373
  0
LINE
  5
4DA
  8
0
 62
    50
 10
18.079999999999998
 20
-0.3
 30
9.0999999999999996
 11
18.079999999999998
 21
0.3
 31
9.0999999999999996
210
0.9486832980505139
220
0.0
230
0.3162277660168373
  0
LINE
  5
4DB
  8
0
 62
    50
 10
17.98
 20
0.2
 30
9.4000000000000004
 11
18.079999999999998
 21
0.3
 31
9.0999999999999996
210
0.9486832980505139
220
0.0
230
0.3162277660168373
  0
LINE
  5
4DC
  8
0
 62
    50
 10
17.98
 20
-0.2
 30
9.4000000000000004
 11
17.579999999999998
 21
-0.2
 31
9.4000000000000004
210
0.0
220
-0.9486832980505139
230
0.3162277660168373
  0
LINE
  5
4DD
  8
0
 62
    50
 10
17.579999999999998
 20
-0.2
 30
9.4000000000000004
 11
17.48
 21
-0.3
 31
9.0999999999999996
210
0.0
220
-0.9486832980505139
230
0.3162277660168373
  0
LINE
  5
4DE
  8
0
 62
    50
 10
17.48
 20
-0.3
 30
9.0999999999999996
 11
18.079999999999998
 21
-0.3
 31
9.0999999999999996
210
0.0
220
-0.9486832980505139
230
0.3162277660168373
  0
LINE
  5
4DF
  8
0
 62
    50
 10
17.98
 20
-0.2
 30
9.4000000000000004
 11
18.079999999999998
 21
-0.3
 31
9.0999999999999996
210
0.0
220
-0.9486832980505139
230
0.3162277660168373
  0
LINE
  5
4E0
  8
0
 62
    50
 10
17.579999999999998
 20
-0.2
 30
9.4000000000000004
 11
17.579999999999998
 21
0.2
 31
9.4000000000000004
210
-0.9486832980505139
220
0.0
230
0.3162277660168373
  0
LINE
  5
4E1
  8
0
 62
    50
 10
17.579999999999998
 20
0.2
 30
9.4000000000000004
 11
17.48
 21
0.3
 31
9.0999999999999996
210
-0.9486832980505139
220
0.0
230
0.3162277660168373
  0
LINE
  5
4E2
  8
0
 62
    50
 10
17.48
 20
0.3
 30
9.0999999999999996
 11
17.48
 21
-0.3
 31
9.0999999999999996
210
-0.9486832980505139
220
0.0
230
0.3162277660168373
  0
LINE
  5
4E3
  8
0
 62
    50
 10
17.579999999999998
 20
-0.2
 30
9.4000000000000004
 11
17.48
 21
-0.3
 31
9.0999999999999996
210
-0.9486832980505139
220
0.0
230
0.3162277660168373
  0
LINE
  5
4E4
  8
0
 62
    50
 10
17.579999999999998
 20
0.2
 30
9.4000000000000004
 11
17.98
 21
0.2
 31
9.4000000000000004
210
0.0
220
0.9486832980505139
230
0.3162277660168373
  0
LINE
  5
4E5
  8
0
 62
    50
 10
17.98
 20
0.2
 30
9.4000000000000004
 11
18.079999999999998
 21
0.3
 31
9.0999999999999996
210
0.0
220
0.9486832980505139
230
0.3162277660168373
  0
LINE
  5
4E6
  8
0
 62
    50
 10
18.079999999999998
 20
0.3
 30
9.0999999999999996
 11
17.48
 21
0.3
 31
9.0999999999999996
210
0.0
220
0.9486832980505139
230
0.3162277660168373
  0
LINE
  5
4E7
  8
0
 62
    50
 10
17.579999999999998
 20
0.2
 30
9.4000000000000004
 11
17.48
 21
0.3
 31
9.0999999999999996
210
0.0
220
0.9486832980505139
230
0.3162277660168373
  0
LINE
  5
4E8
  8
0
 62
    50
 10
17.48
 20
0.3
 30
-2.7000000000000002
 11
18.079999999999998
 21
0.3
 31
-2.7000000000000002
210
0.0
220
1.0
230
0.0
  0
LINE
  5
4E9
  8
0
 62
    50
 10
17.48
 20
0.3
 30
-2.7000000000000002
 11
17.48
 21
0.3
 31
9.0999999999999996
210
0.0
220
1.0
230
0.0
  0
LINE
  5
4EA
  8
0
 62
    50
 10
18.079999999999998
 20
0.3
 30
9.0999999999999996
 11
17.48
 21
0.3
 31
9.0999999999999996
210
0.0
220
1.0
230
0.0
  0
LINE
  5
4EB
  8
0
 62
    50
 10
18.079999999999998
 20
0.3
 30
-2.7000000000000002
 11
18.079999999999998
 21
0.3
 31
9.0999999999999996
210
0.0
220
1.0
230
0.0
  0
LINE
  5
4EC
  8
0
 62
    50
 10
18.079999999999998
 20
0.3
 30
-2.7000000000000002
 11
18.079999999999998
 21
-0.3
 31
-2.7000000000000002
210
1.0
220
0.0
230
0.0
  0
LINE
  5
4ED
  8
0
 62
    50
 10
18.079999999999998
 20
0.3
 30
-2.7000000000000002
 11
18.079999999999998
 21
0.3
 31
9.0999999999999996
210
1.0
220
0.0
230
0.0
  0
LINE
  5
4EE
  8
0
 62
    50
 10
18.079999999999998
 20
-0.3
 30
9.0999999999999996
 11
18.079999999999998
 21
0.3
 31
9.0999999999999996
210
1.0
220
0.0
230
0.0
  0
LINE
  5
4EF
  8
0
 62
    50
 10
18.079999999999998
 20
-0.3
 30
-2.7000000000000002
 11
18.079999999999998
 21
-0.3
 31
9.0999999999999996
210
1.0
220
0.0
230
0.0
  0
LINE
  5
4F0
  8
0
 62
    50
 10
17.98
 20
0.2
 30
9.4000000000000004
 11
17.98
 21
-0.2
 31
9.4000000000000004
  0
LINE
  5
4F1
  8
0
 62
    50
 10
17.579999999999998
 20
0.2
 30
9.4000000000000004
 11
17.98
 21
0.2
 31
9.4000000000000004
  0
LINE
  5
4F2
  8
0
 62
    50
 10
17.579999999999998
 20
-0.2
 30
9.4000000000000004
 11
17.579999999999998
 21
0.2
 31
9.4000000000000004
  0
LINE
  5
4F3
  8
0
 62
    50
 10
17.98
 20
-0.2
 30
9.4000000000000004
 11
17.579999999999998
 21
-0.2
 31
9.4000000000000004
  0
ENDBLK
  5
4F5
  8
0
  0
BLOCK
  8
0
  2
*U13
 70
     1
 10
0.0
 20
0.0
 30
0.0
  3
*U13
  1

  0
LINE
  5
505
  8
0
 62
    50
 10
15.039999999999999
 20
-0.2
 30
-3.0
 11
15.44
 21
-0.2
 31
-3.0
210
0.0
220
-0.9486832980505138
230
-0.316227766016838
  0
LINE
  5
506
  8
0
 62
    50
 10
15.44
 20
-0.2
 30
-3.0
 11
15.539999999999999
 21
-0.3
 31
-2.7000000000000002
210
0.0
220
-0.9486832980505138
230
-0.316227766016838
  0
LINE
  5
507
  8
0
 62
    50
 10
15.539999999999999
 20
-0.3
 30
-2.7000000000000002
 11
14.94
 21
-0.3
 31
-2.7000000000000002
210
0.0
220
-0.9486832980505138
230
-0.316227766016838
  0
LINE
  5
508
  8
0
 62
    50
 10
14.94
 20
-0.3
 30
-2.7000000000000002
 11
15.039999999999999
 21
-0.2
 31
-3.0
210
0.0
220
-0.9486832980505138
230
-0.316227766016838
  0
LINE
  5
509
  8
0
 62
    50
 10
15.44
 20
-0.2
 30
-3.0
 11
15.44
 21
0.2
 31
-3.0
210
0.9486832980505138
220
0.0
230
-0.316227766016838
  0
LINE
  5
50A
  8
0
 62
    50
 10
15.44
 20
0.2
 30
-3.0
 11
15.539999999999999
 21
0.3
 31
-2.7000000000000002
210
0.9486832980505138
220
0.0
230
-0.316227766016838
  0
LINE
  5
50B
  8
0
 62
    50
 10
15.539999999999999
 20
0.3
 30
-2.7000000000000002
 11
15.539999999999999
 21
-0.3
 31
-2.7000000000000002
210
0.9486832980505138
220
0.0
230
-0.316227766016838
  0
LINE
  5
50C
  8
0
 62
    50
 10
15.44
 20
-0.2
 30
-3.0
 11
15.539999999999999
 21
-0.3
 31
-2.7000000000000002
210
0.9486832980505138
220
0.0
230
-0.316227766016838
  0
LINE
  5
50D
  8
0
 62
    50
 10
15.44
 20
0.2
 30
-3.0
 11
15.039999999999999
 21
0.2
 31
-3.0
210
0.0
220
0.9486832980505138
230
-0.316227766016838
  0
LINE
  5
50E
  8
0
 62
    50
 10
15.039999999999999
 20
0.2
 30
-3.0
 11
14.94
 21
0.3
 31
-2.7000000000000002
210
0.0
220
0.9486832980505138
230
-0.316227766016838
  0
LINE
  5
50F
  8
0
 62
    50
 10
14.94
 20
0.3
 30
-2.7000000000000002
 11
15.539999999999999
 21
0.3
 31
-2.7000000000000002
210
0.0
220
0.9486832980505138
230
-0.316227766016838
  0
LINE
  5
510
  8
0
 62
    50
 10
15.44
 20
0.2
 30
-3.0
 11
15.539999999999999
 21
0.3
 31
-2.7000000000000002
210
0.0
220
0.9486832980505138
230
-0.316227766016838
  0
LINE
  5
511
  8
0
 62
    50
 10
15.039999999999999
 20
0.2
 30
-3.0
 11
15.039999999999999
 21
-0.2
 31
-3.0
210
-0.9486832980505138
220
0.0
230
-0.316227766016838
  0
LINE
  5
512
  8
0
 62
    50
 10
14.94
 20
-0.3
 30
-2.7000000000000002
 11
15.039999999999999
 21
-0.2
 31
-3.0
210
-0.9486832980505138
220
0.0
230
-0.316227766016838
  0
LINE
  5
513
  8
0
 62
    50
 10
14.94
 20
-0.3
 30
-2.7000000000000002
 11
14.94
 21
0.3
 31
-2.7000000000000002
210
-0.9486832980505138
220
0.0
230
-0.316227766016838
  0
LINE
  5
514
  8
0
 62
    50
 10
15.039999999999999
 20
0.2
 30
-3.0
 11
14.94
 21
0.3
 31
-2.7000000000000002
210
-0.9486832980505138
220
0.0
230
-0.316227766016838
  0
LINE
  5
515
  8
0
 62
    50
 10
14.94
 20
-0.3
 30
-2.7000000000000002
 11
14.94
 21
0.3
 31
-2.7000000000000002
210
-1.0
220
0.0
230
0.0
  0
LINE
  5
516
  8
0
 62
    50
 10
14.94
 20
-0.3
 30
-2.7000000000000002
 11
14.94
 21
-0.3
 31
9.0999999999999996
210
-1.0
220
0.0
230
0.0
  0
LINE
  5
517
  8
0
 62
    50
 10
14.94
 20
0.3
 30
9.0999999999999996
 11
14.94
 21
-0.3
 31
9.0999999999999996
210
-1.0
220
0.0
230
0.0
  0
LINE
  5
518
  8
0
 62
    50
 10
14.94
 20
0.3
 30
-2.7000000000000002
 11
14.94
 21
0.3
 31
9.0999999999999996
210
-1.0
220
0.0
230
0.0
  0
LINE
  5
519
  8
0
 62
    50
 10
15.539999999999999
 20
-0.3
 30
-2.7000000000000002
 11
14.94
 21
-0.3
 31
-2.7000000000000002
210
0.0
220
-1.0
230
0.0
  0
LINE
  5
51A
  8
0
 62
    50
 10
15.539999999999999
 20
-0.3
 30
-2.7000000000000002
 11
15.539999999999999
 21
-0.3
 31
9.0999999999999996
210
0.0
220
-1.0
230
0.0
  0
LINE
  5
51B
  8
0
 62
    50
 10
14.94
 20
-0.3
 30
9.0999999999999996
 11
15.539999999999999
 21
-0.3
 31
9.0999999999999996
210
0.0
220
-1.0
230
0.0
  0
LINE
  5
51C
  8
0
 62
    50
 10
14.94
 20
-0.3
 30
-2.7000000000000002
 11
14.94
 21
-0.3
 31
9.0999999999999996
210
0.0
220
-1.0
230
0.0
  0
LINE
  5
51D
  8
0
 62
    50
 10
15.039999999999999
 20
-0.2
 30
-3.0
 11
15.44
 21
-0.2
 31
-3.0
210
0.0
220
0.0
230
-1.0
  0
LINE
  5
51E
  8
0
 62
    50
 10
15.039999999999999
 20
0.2
 30
-3.0
 11
15.039999999999999
 21
-0.2
 31
-3.0
210
0.0
220
0.0
230
-1.0
  0
LINE
  5
51F
  8
0
 62
    50
 10
15.44
 20
0.2
 30
-3.0
 11
15.039999999999999
 21
0.2
 31
-3.0
210
0.0
220
0.0
230
-1.0
  0
LINE
  5
520
  8
0
 62
    50
 10
15.44
 20
-0.2
 30
-3.0
 11
15.44
 21
0.2
 31
-3.0
210
0.0
220
0.0
230
-1.0
  0
LINE
  5
521
  8
0
 62
    50
 10
15.44
 20
0.2
 30
9.4000000000000004
 11
15.44
 21
-0.2
 31
9.4000000000000004
210
0.9486832980505139
220
0.0
230
0.3162277660168373
  0
LINE
  5
522
  8
0
 62
    50
 10
15.44
 20
-0.2
 30
9.4000000000000004
 11
15.539999999999999
 21
-0.3
 31
9.0999999999999996
210
0.9486832980505139
220
0.0
230
0.3162277660168373
  0
LINE
  5
523
  8
0
 62
    50
 10
15.539999999999999
 20
-0.3
 30
9.0999999999999996
 11
15.539999999999999
 21
0.3
 31
9.0999999999999996
210
0.9486832980505139
220
0.0
230
0.3162277660168373
  0
LINE
  5
524
  8
0
 62
    50
 10
15.44
 20
0.2
 30
9.4000000000000004
 11
15.539999999999999
 21
0.3
 31
9.0999999999999996
210
0.9486832980505139
220
0.0
230
0.3162277660168373
  0
LINE
  5
525
  8
0
 62
    50
 10
15.44
 20
-0.2
 30
9.4000000000000004
 11
15.039999999999999
 21
-0.2
 31
9.4000000000000004
210
0.0
220
-0.9486832980505139
230
0.3162277660168373
  0
LINE
  5
526
  8
0
 62
    50
 10
15.039999999999999
 20
-0.2
 30
9.4000000000000004
 11
14.94
 21
-0.3
 31
9.0999999999999996
210
0.0
220
-0.9486832980505139
230
0.3162277660168373
  0
LINE
  5
527
  8
0
 62
    50
 10
14.94
 20
-0.3
 30
9.0999999999999996
 11
15.539999999999999
 21
-0.3
 31
9.0999999999999996
210
0.0
220
-0.9486832980505139
230
0.3162277660168373
  0
LINE
  5
528
  8
0
 62
    50
 10
15.44
 20
-0.2
 30
9.4000000000000004
 11
15.539999999999999
 21
-0.3
 31
9.0999999999999996
210
0.0
220
-0.9486832980505139
230
0.3162277660168373
  0
LINE
  5
529
  8
0
 62
    50
 10
15.039999999999999
 20
-0.2
 30
9.4000000000000004
 11
15.039999999999999
 21
0.2
 31
9.4000000000000004
210
-0.9486832980505139
220
0.0
230
0.3162277660168373
  0
LINE
  5
52A
  8
0
 62
    50
 10
15.039999999999999
 20
0.2
 30
9.4000000000000004
 11
14.94
 21
0.3
 31
9.0999999999999996
210
-0.9486832980505139
220
0.0
230
0.3162277660168373
  0
LINE
  5
52B
  8
0
 62
    50
 10
14.94
 20
0.3
 30
9.0999999999999996
 11
14.94
 21
-0.3
 31
9.0999999999999996
210
-0.9486832980505139
220
0.0
230
0.3162277660168373
  0
LINE
  5
52C
  8
0
 62
    50
 10
15.039999999999999
 20
-0.2
 30
9.4000000000000004
 11
14.94
 21
-0.3
 31
9.0999999999999996
210
-0.9486832980505139
220
0.0
230
0.3162277660168373
  0
LINE
  5
52D
  8
0
 62
    50
 10
15.039999999999999
 20
0.2
 30
9.4000000000000004
 11
15.44
 21
0.2
 31
9.4000000000000004
210
0.0
220
0.9486832980505139
230
0.3162277660168373
  0
LINE
  5
52E
  8
0
 62
    50
 10
15.44
 20
0.2
 30
9.4000000000000004
 11
15.539999999999999
 21
0.3
 31
9.0999999999999996
210
0.0
220
0.9486832980505139
230
0.3162277660168373
  0
LINE
  5
52F
  8
0
 62
    50
 10
15.539999999999999
 20
0.3
 30
9.0999999999999996
 11
14.94
 21
0.3
 31
9.0999999999999996
210
0.0
220
0.9486832980505139
230
0.3162277660168373
  0
LINE
  5
530
  8
0
 62
    50
 10
15.039999999999999
 20
0.2
 30
9.4000000000000004
 11
14.94
 21
0.3
 31
9.0999999999999996
210
0.0
220
0.9486832980505139
230
0.3162277660168373
  0
LINE
  5
531
  8
0
 62
    50
 10
14.94
 20
0.3
 30
-2.7000000000000002
 11
15.539999999999999
 21
0.3
 31
-2.7000000000000002
210
0.0
220
1.0
230
0.0
  0
LINE
  5
532
  8
0
 62
    50
 10
14.94
 20
0.3
 30
-2.7000000000000002
 11
14.94
 21
0.3
 31
9.0999999999999996
210
0.0
220
1.0
230
0.0
  0
LINE
  5
533
  8
0
 62
    50
 10
15.539999999999999
 20
0.3
 30
9.0999999999999996
 11
14.94
 21
0.3
 31
9.0999999999999996
210
0.0
220
1.0
230
0.0
  0
LINE
  5
534
  8
0
 62
    50
 10
15.539999999999999
 20
0.3
 30
-2.7000000000000002
 11
15.539999999999999
 21
0.3
 31
9.0999999999999996
210
0.0
220
1.0
230
0.0
  0
LINE
  5
535
  8
0
 62
    50
 10
15.539999999999999
 20
0.3
 30
-2.7000000000000002
 11
15.539999999999999
 21
-0.3
 31
-2.7000000000000002
210
1.0
220
0.0
230
0.0
  0
LINE
  5
536
  8
0
 62
    50
 10
15.539999999999999
 20
0.3
 30
-2.7000000000000002
 11
15.539999999999999
 21
0.3
 31
9.0999999999999996
210
1.0
220
0.0
230
0.0
  0
LINE
  5
537
  8
0
 62
    50
 10
15.539999999999999
 20
-0.3
 30
9.0999999999999996
 11
15.539999999999999
 21
0.3
 31
9.0999999999999996
210
1.0
220
0.0
230
0.0
  0
LINE
  5
538
  8
0
 62
    50
 10
15.539999999999999
 20
-0.3
 30
-2.7000000000000002
 11
15.539999999999999
 21
-0.3
 31
9.0999999999999996
210
1.0
220
0.0
230
0.0
  0
LINE
  5
539
  8
0
 62
    50
 10
15.44
 20
0.2
 30
9.4000000000000004
 11
15.44
 21
-0.2
 31
9.4000000000000004
  0
LINE
  5
53A
  8
0
 62
    50
 10
15.039999999999999
 20
0.2
 30
9.4000000000000004
 11
15.44
 21
0.2
 31
9.4000000000000004
  0
LINE
  5
53B
  8
0
 62
    50
 10
15.039999999999999
 20
-0.2
 30
9.4000000000000004
 11
15.039999999999999
 21
0.2
 31
9.4000000000000004
  0
LINE
  5
53C
  8
0
 62
    50
 10
15.44
 20
-0.2
 30
9.4000000000000004
 11
15.039999999999999
 21
-0.2
 31
9.4000000000000004
  0
ENDBLK
  5
53E
  8
0
  0
BLOCK
  8
0
  2
*U14
 70
     1
 10
0.0
 20
0.0
 30
0.0
  3
*U14
  1

  0
LINE
  5
546
  8
0
 62
   250
 10
16.509999999999991
 20
-1.25
 30
2.7999999999999989
 11
16.509999999999991
 21
1.25
 31
2.7999999999999989
210
-1.0
220
0.0
230
0.0
  0
LINE
  5
547
  8
0
 62
   250
 10
16.509999999999991
 20
1.25
 30
0.0
 11
16.509999999999991
 21
1.25
 31
2.7999999999999989
210
-1.0
220
0.0
230
0.0
  0
LINE
  5
548
  8
0
 62
   250
 10
16.509999999999991
 20
1.25
 30
0.0
 11
16.509999999999991
 21
-1.25
 31
0.0
210
-1.0
220
0.0
230
0.0
  0
LINE
  5
549
  8
0
 62
   250
 10
16.509999999999991
 20
-1.25
 30
0.0
 11
16.509999999999991
 21
-1.25
 31
2.7999999999999989
210
-1.0
220
0.0
230
0.0
  0
LINE
  5
54A
  8
0
 62
   250
 10
16.509999999999991
 20
1.25
 30
2.7999999999999989
 11
19.050000000000001
 21
1.25
 31
2.7999999999999989
210
0.0
220
1.0
230
0.0
  0
LINE
  5
54B
  8
0
 62
   250
 10
19.050000000000001
 20
1.25
 30
0.0
 11
19.050000000000001
 21
1.25
 31
2.7999999999999989
210
0.0
220
1.0
230
0.0
  0
LINE
  5
54C
  8
0
 62
   250
 10
19.050000000000001
 20
1.25
 30
0.0
 11
16.509999999999991
 21
1.25
 31
0.0
210
0.0
220
1.0
230
0.0
  0
LINE
  5
54D
  8
0
 62
   250
 10
16.509999999999991
 20
1.25
 30
0.0
 11
16.509999999999991
 21
1.25
 31
2.7999999999999989
210
0.0
220
1.0
230
0.0
  0
LINE
  5
54E
  8
0
 62
   250
 10
19.050000000000001
 20
1.25
 30
2.7999999999999989
 11
19.050000000000001
 21
-1.25
 31
2.7999999999999989
210
1.0
220
0.0
230
0.0
  0
LINE
  5
54F
  8
0
 62
   250
 10
19.050000000000001
 20
-1.25
 30
0.0
 11
19.050000000000001
 21
-1.25
 31
2.7999999999999989
210
1.0
220
0.0
230
0.0
  0
LINE
  5
550
  8
0
 62
   250
 10
19.050000000000001
 20
-1.25
 30
0.0
 11
19.050000000000001
 21
1.25
 31
0.0
210
1.0
220
0.0
230
0.0
  0
LINE
  5
551
  8
0
 62
   250
 10
19.050000000000001
 20
1.25
 30
0.0
 11
19.050000000000001
 21
1.25
 31
2.7999999999999989
210
1.0
220
0.0
230
0.0
  0
LINE
  5
552
  8
0
 62
   250
 10
19.050000000000001
 20
-1.25
 30
2.7999999999999989
 11
16.509999999999991
 21
-1.25
 31
2.7999999999999989
210
0.0
220
-1.0
230
0.0
  0
LINE
  5
553
  8
0
 62
   250
 10
16.509999999999991
 20
-1.25
 30
0.0
 11
16.509999999999991
 21
-1.25
 31
2.7999999999999989
210
0.0
220
-1.0
230
0.0
  0
LINE
  5
554
  8
0
 62
   250
 10
16.509999999999991
 20
-1.25
 30
0.0
 11
19.050000000000001
 21
-1.25
 31
0.0
210
0.0
220
-1.0
230
0.0
  0
LINE
  5
555
  8
0
 62
   250
 10
19.050000000000001
 20
-1.25
 30
0.0
 11
19.050000000000001
 21
-1.25
 31
2.7999999999999989
210
0.0
220
-1.0
230
0.0
  0
LINE
  5
556
  8
0
 62
   250
 10
16.509999999999991
 20
-1.25
 30
2.7999999999999989
 11
16.509999999999991
 21
1.25
 31
2.7999999999999989
  0
LINE
  5
557
  8
0
 62
   250
 10
19.050000000000001
 20
-1.25
 30
2.7999999999999989
 11
16.509999999999991
 21
-1.25
 31
2.7999999999999989
  0
LINE
  5
558
  8
0
 62
   250
 10
19.050000000000001
 20
1.25
 30
2.7999999999999989
 11
19.050000000000001
 21
-1.25
 31
2.7999999999999989
  0
LINE
  5
559
  8
0
 62
   250
 10
16.509999999999991
 20
1.25
 30
2.7999999999999989
 11
19.050000000000001
 21
1.25
 31
2.7999999999999989
  0
LINE
  5
55A
  8
0
 62
   250
 10
16.509999999999991
 20
-1.25
 30
0.0
 11
19.050000000000001
 21
-1.25
 31
0.0
210
0.0
220
0.0
230
-1.0
  0
LINE
  5
55B
  8
0
 62
   250
 10
16.509999999999991
 20
1.25
 30
0.0
 11
16.509999999999991
 21
-1.25
 31
0.0
210
0.0
220
0.0
230
-1.0
  0
LINE
  5
55C
  8
0
 62
   250
 10
19.050000000000001
 20
1.25
 30
0.0
 11
16.509999999999991
 21
1.25
 31
0.0
210
0.0
220
0.0
230
-1.0
  0
LINE
  5
55D
  8
0
 62
   250
 10
19.050000000000001
 20
-1.25
 30
0.0
 11
19.050000000000001
 21
1.25
 31
0.0
210
0.0
220
0.0
230
-1.0
  0
ENDBLK
  5
55F
  8
0
  0
BLOCK
  8
0
  2
*U15
 70
     1
 10
0.0
 20
0.0
 30
0.0
  3
*U15
  1

  0
LINE
  5
567
  8
0
 62
   250
 10
13.970000000000001
 20
-1.25
 30
2.7999999999999989
 11
13.970000000000001
 21
1.25
 31
2.7999999999999989
210
-1.0
220
0.0
230
0.0
  0
LINE
  5
568
  8
0
 62
   250
 10
13.970000000000001
 20
1.25
 30
0.0
 11
13.970000000000001
 21
1.25
 31
2.7999999999999989
210
-1.0
220
0.0
230
0.0
  0
LINE
  5
569
  8
0
 62
   250
 10
13.970000000000001
 20
1.25
 30
0.0
 11
13.970000000000001
 21
-1.25
 31
0.0
210
-1.0
220
0.0
230
0.0
  0
LINE
  5
56A
  8
0
 62
   250
 10
13.970000000000001
 20
-1.25
 30
0.0
 11
13.970000000000001
 21
-1.25
 31
2.7999999999999989
210
-1.0
220
0.0
230
0.0
  0
LINE
  5
56B
  8
0
 62
   250
 10
13.970000000000001
 20
1.25
 30
2.7999999999999989
 11
16.509999999999991
 21
1.25
 31
2.7999999999999989
210
0.0
220
1.0
230
0.0
  0
LINE
  5
56C
  8
0
 62
   250
 10
16.509999999999991
 20
1.25
 30
0.0
 11
16.509999999999991
 21
1.25
 31
2.7999999999999989
210
0.0
220
1.0
230
0.0
  0
LINE
  5
56D
  8
0
 62
   250
 10
16.509999999999991
 20
1.25
 30
0.0
 11
13.970000000000001
 21
1.25
 31
0.0
210
0.0
220
1.0
230
0.0
  0
LINE
  5
56E
  8
0
 62
   250
 10
13.970000000000001
 20
1.25
 30
0.0
 11
13.970000000000001
 21
1.25
 31
2.7999999999999989
210
0.0
220
1.0
230
0.0
  0
LINE
  5
56F
  8
0
 62
   250
 10
16.509999999999991
 20
1.25
 30
2.7999999999999989
 11
16.509999999999991
 21
-1.25
 31
2.7999999999999989
210
1.0
220
0.0
230
0.0
  0
LINE
  5
570
  8
0
 62
   250
 10
16.509999999999991
 20
-1.25
 30
0.0
 11
16.509999999999991
 21
-1.25
 31
2.7999999999999989
210
1.0
220
0.0
230
0.0
  0
LINE
  5
571
  8
0
 62
   250
 10
16.509999999999991
 20
-1.25
 30
0.0
 11
16.509999999999991
 21
1.25
 31
0.0
210
1.0
220
0.0
230
0.0
  0
LINE
  5
572
  8
0
 62
   250
 10
16.509999999999991
 20
1.25
 30
0.0
 11
16.509999999999991
 21
1.25
 31
2.7999999999999989
210
1.0
220
0.0
230
0.0
  0
LINE
  5
573
  8
0
 62
   250
 10
16.509999999999991
 20
-1.25
 30
2.7999999999999989
 11
13.970000000000001
 21
-1.25
 31
2.7999999999999989
210
0.0
220
-1.0
230
0.0
  0
LINE
  5
574
  8
0
 62
   250
 10
13.970000000000001
 20
-1.25
 30
0.0
 11
13.970000000000001
 21
-1.25
 31
2.7999999999999989
210
0.0
220
-1.0
230
0.0
  0
LINE
  5
575
  8
0
 62
   250
 10
13.970000000000001
 20
-1.25
 30
0.0
 11
16.509999999999991
 21
-1.25
 31
0.0
210
0.0
220
-1.0
230
0.0
  0
LINE
  5
576
  8
0
 62
   250
 10
16.509999999999991
 20
-1.25
 30
0.0
 11
16.509999999999991
 21
-1.25
 31
2.7999999999999989
210
0.0
220
-1.0
230
0.0
  0
LINE
  5
577
  8
0
 62
   250
 10
13.970000000000001
 20
-1.25
 30
2.7999999999999989
 11
13.970000000000001
 21
1.25
 31
2.7999999999999989
  0
LINE
  5
578
  8
0
 62
   250
 10
16.509999999999991
 20
-1.25
 30
2.7999999999999989
 11
13.970000000000001
 21
-1.25
 31
2.7999999999999989
  0
LINE
  5
579
  8
0
 62
   250
 10
16.509999999999991
 20
1.25
 30
2.7999999999999989
 11
16.509999999999991
 21
-1.25
 31
2.7999999999999989
  0
LINE
  5
57A
  8
0
 62
   250
 10
13.970000000000001
 20
1.25
 30
2.7999999999999989
 11
16.509999999999991
 21
1.25
 31
2.7999999999999989
  0
LINE
  5
57B
  8
0
 62
   250
 10
13.970000000000001
 20
-1.25
 30
0.0
 11
16.509999999999991
 21
-1.25
 31
0.0
210
0.0
220
0.0
230
-1.0
  0
LINE
  5
57C
  8
0
 62
   250
 10
13.970000000000001
 20
1.25
 30
0.0
 11
13.970000000000001
 21
-1.25
 31
0.0
210
0.0
220
0.0
230
-1.0
  0
LINE
  5
57D
  8
0
 62
   250
 10
16.509999999999991
 20
1.25
 30
0.0
 11
13.970000000000001
 21
1.25
 31
0.0
210
0.0
220
0.0
230
-1.0
  0
LINE
  5
57E
  8
0
 62
   250
 10
16.509999999999991
 20
-1.25
 30
0.0
 11
16.509999999999991
 21
1.25
 31
0.0
210
0.0
220
0.0
230
-1.0
  0
ENDBLK
  5
580
  8
0
  0
BLOCK
  8
0
  2
*U16
 70
     1
 10
0.0
 20
0.0
 30
0.0
  3
*U16
  1

  0
LINE
  5
588
  8
0
 62
   250
 10
11.43
 20
-1.25
 30
2.7999999999999989
 11
11.43
 21
1.25
 31
2.7999999999999989
210
-1.0
220
0.0
230
0.0
  0
LINE
  5
589
  8
0
 62
   250
 10
11.43
 20
1.25
 30
0.0
 11
11.43
 21
1.25
 31
2.7999999999999989
210
-1.0
220
0.0
230
0.0
  0
LINE
  5
58A
  8
0
 62
   250
 10
11.43
 20
1.25
 30
0.0
 11
11.43
 21
-1.25
 31
0.0
210
-1.0
220
0.0
230
0.0
  0
LINE
  5
58B
  8
0
 62
   250
 10
11.43
 20
-1.25
 30
0.0
 11
11.43
 21
-1.25
 31
2.7999999999999989
210
-1.0
220
0.0
230
0.0
  0
LINE
  5
58C
  8
0
 62
   250
 10
11.43
 20
1.25
 30
2.7999999999999989
 11
13.970000000000001
 21
1.25
 31
2.7999999999999989
210
0.0
220
1.0
230
0.0
  0
LINE
  5
58D
  8
0
 62
   250
 10
13.970000000000001
 20
1.25
 30
0.0
 11
13.970000000000001
 21
1.25
 31
2.7999999999999989
210
0.0
220
1.0
230
0.0
  0
LINE
  5
58E
  8
0
 62
   250
 10
13.970000000000001
 20
1.25
 30
0.0
 11
11.43
 21
1.25
 31
0.0
210
0.0
220
1.0
230
0.0
  0
LINE
  5
58F
  8
0
 62
   250
 10
11.43
 20
1.25
 30
0.0
 11
11.43
 21
1.25
 31
2.7999999999999989
210
0.0
220
1.0
230
0.0
  0
LINE
  5
590
  8
0
 62
   250
 10
13.970000000000001
 20
1.25
 30
2.7999999999999989
 11
13.970000000000001
 21
-1.25
 31
2.7999999999999989
210
1.0
220
0.0
230
0.0
  0
LINE
  5
591
  8
0
 62
   250
 10
13.970000000000001
 20
-1.25
 30
0.0
 11
13.970000000000001
 21
-1.25
 31
2.7999999999999989
210
1.0
220
0.0
230
0.0
  0
LINE
  5
592
  8
0
 62
   250
 10
13.970000000000001
 20
-1.25
 30
0.0
 11
13.970000000000001
 21
1.25
 31
0.0
210
1.0
220
0.0
230
0.0
  0
LINE
  5
593
  8
0
 62
   250
 10
13.970000000000001
 20
1.25
 30
0.0
 11
13.970000000000001
 21
1.25
 31
2.7999999999999989
210
1.0
220
0.0
230
0.0
  0
LINE
  5
594
  8
0
 62
   250
 10
13.970000000000001
 20
-1.25
 30
2.7999999999999989
 11
11.43
 21
-1.25
 31
2.7999999999999989
210
0.0
220
-1.0
230
0.0
  0
LINE
  5
595
  8
0
 62
   250
 10
11.43
 20
-1.25
 30
0.0
 11
11.43
 21
-1.25
 31
2.7999999999999989
210
0.0
220
-1.0
230
0.0
  0
LINE
  5
596
  8
0
 62
   250
 10
11.43
 20
-1.25
 30
0.0
 11
13.970000000000001
 21
-1.25
 31
0.0
210
0.0
220
-1.0
230
0.0
  0
LINE
  5
597
  8
0
 62
   250
 10
13.970000000000001
 20
-1.25
 30
0.0
 11
13.970000000000001
 21
-1.25
 31
2.7999999999999989
210
0.0
220
-1.0
230
0.0
  0
LINE
  5
598
  8
0
 62
   250
 10
11.43
 20
-1.25
 30
2.7999999999999989
 11
11.43
 21
1.25
 31
2.7999999999999989
  0
LINE
  5
599
  8
0
 62
   250
 10
13.970000000000001
 20
-1.25
 30
2.7999999999999989
 11
11.43
 21
-1.25
 31
2.7999999999999989
  0
LINE
  5
59A
  8
0
 62
   250
 10
13.970000000000001
 20
1.25
 30
2.7999999999999989
 11
13.970000000000001
 21
-1.25
 31
2.7999999999999989
  0
LINE
  5
59B
  8
0
 62
   250
 10
11.43
 20
1.25
 30
2.7999999999999989
 11
13.970000000000001
 21
1.25
 31
2.7999999999999989
  0
LINE
  5
59C
  8
0
 62
   250
 10
11.43
 20
-1.25
 30
0.0
 11
13.970000000000001
 21
-1.25
 31
0.0
210
0.0
220
0.0
230
-1.0
  0
LINE
  5
59D
  8
0
 62
   250
 10
11.43
 20
1.25
 30
0.0
 11
11.43
 21
-1.25
 31
0.0
210
0.0
220
0.0
230
-1.0
  0
LINE
  5
59E
  8
0
 62
   250
 10
13.970000000000001
 20
1.25
 30
0.0
 11
11.43
 21
1.25
 31
0.0
210
0.0
220
0.0
230
-1.0
  0
LINE
  5
59F
  8
0
 62
   250
 10
13.970000000000001
 20
-1.25
 30
0.0
 11
13.970000000000001
 21
1.25
 31
0.0
210
0.0
220
0.0
230
-1.0
  0
ENDBLK
  5
5A1
  8
0
  0
BLOCK
  8
0
  2
*U17
 70
     1
 10
0.0
 20
0.0
 30
0.0
  3
*U17
  1

  0
LINE
  5
5B1
  8
0
 62
    50
 10
12.5
 20
-0.2
 30
-3.0
 11
12.9
 21
-0.2
 31
-3.0
210
0.0
220
-0.9486832980505138
230
-0.316227766016838
  0
LINE
  5
5B2
  8
0
 62
    50
 10
12.9
 20
-0.2
 30
-3.0
 11
13.0
 21
-0.3
 31
-2.7000000000000002
210
0.0
220
-0.9486832980505138
230
-0.316227766016838
  0
LINE
  5
5B3
  8
0
 62
    50
 10
13.0
 20
-0.3
 30
-2.7000000000000002
 11
12.4
 21
-0.3
 31
-2.7000000000000002
210
0.0
220
-0.9486832980505138
230
-0.316227766016838
  0
LINE
  5
5B4
  8
0
 62
    50
 10
12.4
 20
-0.3
 30
-2.7000000000000002
 11
12.5
 21
-0.2
 31
-3.0
210
0.0
220
-0.9486832980505138
230
-0.316227766016838
  0
LINE
  5
5B5
  8
0
 62
    50
 10
12.9
 20
-0.2
 30
-3.0
 11
12.9
 21
0.2
 31
-3.0
210
0.9486832980505138
220
0.0
230
-0.316227766016838
  0
LINE
  5
5B6
  8
0
 62
    50
 10
12.9
 20
0.2
 30
-3.0
 11
13.0
 21
0.3
 31
-2.7000000000000002
210
0.9486832980505138
220
0.0
230
-0.316227766016838
  0
LINE
  5
5B7
  8
0
 62
    50
 10
13.0
 20
0.3
 30
-2.7000000000000002
 11
13.0
 21
-0.3
 31
-2.7000000000000002
210
0.9486832980505138
220
0.0
230
-0.316227766016838
  0
LINE
  5
5B8
  8
0
 62
    50
 10
12.9
 20
-0.2
 30
-3.0
 11
13.0
 21
-0.3
 31
-2.7000000000000002
210
0.9486832980505138
220
0.0
230
-0.316227766016838
  0
LINE
  5
5B9
  8
0
 62
    50
 10
12.9
 20
0.2
 30
-3.0
 11
12.5
 21
0.2
 31
-3.0
210
0.0
220
0.9486832980505138
230
-0.316227766016838
  0
LINE
  5
5BA
  8
0
 62
    50
 10
12.5
 20
0.2
 30
-3.0
 11
12.4
 21
0.3
 31
-2.7000000000000002
210
0.0
220
0.9486832980505138
230
-0.316227766016838
  0
LINE
  5
5BB
  8
0
 62
    50
 10
12.4
 20
0.3
 30
-2.7000000000000002
 11
13.0
 21
0.3
 31
-2.7000000000000002
210
0.0
220
0.9486832980505138
230
-0.316227766016838
  0
LINE
  5
5BC
  8
0
 62
    50
 10
12.9
 20
0.2
 30
-3.0
 11
13.0
 21
0.3
 31
-2.7000000000000002
210
0.0
220
0.9486832980505138
230
-0.316227766016838
  0
LINE
  5
5BD
  8
0
 62
    50
 10
12.5
 20
0.2
 30
-3.0
 11
12.5
 21
-0.2
 31
-3.0
210
-0.9486832980505138
220
0.0
230
-0.316227766016838
  0
LINE
  5
5BE
  8
0
 62
    50
 10
12.4
 20
-0.3
 30
-2.7000000000000002
 11
12.5
 21
-0.2
 31
-3.0
210
-0.9486832980505138
220
0.0
230
-0.316227766016838
  0
LINE
  5
5BF
  8
0
 62
    50
 10
12.4
 20
-0.3
 30
-2.7000000000000002
 11
12.4
 21
0.3
 31
-2.7000000000000002
210
-0.9486832980505138
220
0.0
230
-0.316227766016838
  0
LINE
  5
5C0
  8
0
 62
    50
 10
12.5
 20
0.2
 30
-3.0
 11
12.4
 21
0.3
 31
-2.7000000000000002
210
-0.9486832980505138
220
0.0
230
-0.316227766016838
  0
LINE
  5
5C1
  8
0
 62
    50
 10
12.4
 20
-0.3
 30
-2.7000000000000002
 11
12.4
 21
0.3
 31
-2.7000000000000002
210
-1.0
220
0.0
230
0.0
  0
LINE
  5
5C2
  8
0
 62
    50
 10
12.4
 20
-0.3
 30
-2.7000000000000002
 11
12.4
 21
-0.3
 31
9.0999999999999996
210
-1.0
220
0.0
230
0.0
  0
LINE
  5
5C3
  8
0
 62
    50
 10
12.4
 20
0.3
 30
9.0999999999999996
 11
12.4
 21
-0.3
 31
9.0999999999999996
210
-1.0
220
0.0
230
0.0
  0
LINE
  5
5C4
  8
0
 62
    50
 10
12.4
 20
0.3
 30
-2.7000000000000002
 11
12.4
 21
0.3
 31
9.0999999999999996
210
-1.0
220
0.0
230
0.0
  0
LINE
  5
5C5
  8
0
 62
    50
 10
13.0
 20
-0.3
 30
-2.7000000000000002
 11
12.4
 21
-0.3
 31
-2.7000000000000002
210
0.0
220
-1.0
230
0.0
  0
LINE
  5
5C6
  8
0
 62
    50
 10
13.0
 20
-0.3
 30
-2.7000000000000002
 11
13.0
 21
-0.3
 31
9.0999999999999996
210
0.0
220
-1.0
230
0.0
  0
LINE
  5
5C7
  8
0
 62
    50
 10
12.4
 20
-0.3
 30
9.0999999999999996
 11
13.0
 21
-0.3
 31
9.0999999999999996
210
0.0
220
-1.0
230
0.0
  0
LINE
  5
5C8
  8
0
 62
    50
 10
12.4
 20
-0.3
 30
-2.7000000000000002
 11
12.4
 21
-0.3
 31
9.0999999999999996
210
0.0
220
-1.0
230
0.0
  0
LINE
  5
5C9
  8
0
 62
    50
 10
12.5
 20
-0.2
 30
-3.0
 11
12.9
 21
-0.2
 31
-3.0
210
0.0
220
0.0
230
-1.0
  0
LINE
  5
5CA
  8
0
 62
    50
 10
12.5
 20
0.2
 30
-3.0
 11
12.5
 21
-0.2
 31
-3.0
210
0.0
220
0.0
230
-1.0
  0
LINE
  5
5CB
  8
0
 62
    50
 10
12.9
 20
0.2
 30
-3.0
 11
12.5
 21
0.2
 31
-3.0
210
0.0
220
0.0
230
-1.0
  0
LINE
  5
5CC
  8
0
 62
    50
 10
12.9
 20
-0.2
 30
-3.0
 11
12.9
 21
0.2
 31
-3.0
210
0.0
220
0.0
230
-1.0
  0
LINE
  5
5CD
  8
0
 62
    50
 10
12.9
 20
0.2
 30
9.4000000000000004
 11
12.9
 21
-0.2
 31
9.4000000000000004
210
0.9486832980505139
220
0.0
230
0.3162277660168373
  0
LINE
  5
5CE
  8
0
 62
    50
 10
12.9
 20
-0.2
 30
9.4000000000000004
 11
13.0
 21
-0.3
 31
9.0999999999999996
210
0.9486832980505139
220
0.0
230
0.3162277660168373
  0
LINE
  5
5CF
  8
0
 62
    50
 10
13.0
 20
-0.3
 30
9.0999999999999996
 11
13.0
 21
0.3
 31
9.0999999999999996
210
0.9486832980505139
220
0.0
230
0.3162277660168373
  0
LINE
  5
5D0
  8
0
 62
    50
 10
12.9
 20
0.2
 30
9.4000000000000004
 11
13.0
 21
0.3
 31
9.0999999999999996
210
0.9486832980505139
220
0.0
230
0.3162277660168373
  0
LINE
  5
5D1
  8
0
 62
    50
 10
12.9
 20
-0.2
 30
9.4000000000000004
 11
12.5
 21
-0.2
 31
9.4000000000000004
210
0.0
220
-0.9486832980505139
230
0.3162277660168373
  0
LINE
  5
5D2
  8
0
 62
    50
 10
12.5
 20
-0.2
 30
9.4000000000000004
 11
12.4
 21
-0.3
 31
9.0999999999999996
210
0.0
220
-0.9486832980505139
230
0.3162277660168373
  0
LINE
  5
5D3
  8
0
 62
    50
 10
12.4
 20
-0.3
 30
9.0999999999999996
 11
13.0
 21
-0.3
 31
9.0999999999999996
210
0.0
220
-0.9486832980505139
230
0.3162277660168373
  0
LINE
  5
5D4
  8
0
 62
    50
 10
12.9
 20
-0.2
 30
9.4000000000000004
 11
13.0
 21
-0.3
 31
9.0999999999999996
210
0.0
220
-0.9486832980505139
230
0.3162277660168373
  0
LINE
  5
5D5
  8
0
 62
    50
 10
12.5
 20
-0.2
 30
9.4000000000000004
 11
12.5
 21
0.2
 31
9.4000000000000004
210
-0.9486832980505139
220
0.0
230
0.3162277660168373
  0
LINE
  5
5D6
  8
0
 62
    50
 10
12.5
 20
0.2
 30
9.4000000000000004
 11
12.4
 21
0.3
 31
9.0999999999999996
210
-0.9486832980505139
220
0.0
230
0.3162277660168373
  0
LINE
  5
5D7
  8
0
 62
    50
 10
12.4
 20
0.3
 30
9.0999999999999996
 11
12.4
 21
-0.3
 31
9.0999999999999996
210
-0.9486832980505139
220
0.0
230
0.3162277660168373
  0
LINE
  5
5D8
  8
0
 62
    50
 10
12.5
 20
-0.2
 30
9.4000000000000004
 11
12.4
 21
-0.3
 31
9.0999999999999996
210
-0.9486832980505139
220
0.0
230
0.3162277660168373
  0
LINE
  5
5D9
  8
0
 62
    50
 10
12.5
 20
0.2
 30
9.4000000000000004
 11
12.9
 21
0.2
 31
9.4000000000000004
210
0.0
220
0.9486832980505139
230
0.3162277660168373
  0
LINE
  5
5DA
  8
0
 62
    50
 10
12.9
 20
0.2
 30
9.4000000000000004
 11
13.0
 21
0.3
 31
9.0999999999999996
210
0.0
220
0.9486832980505139
230
0.3162277660168373
  0
LINE
  5
5DB
  8
0
 62
    50
 10
13.0
 20
0.3
 30
9.0999999999999996
 11
12.4
 21
0.3
 31
9.0999999999999996
210
0.0
220
0.9486832980505139
230
0.3162277660168373
  0
LINE
  5
5DC
  8
0
 62
    50
 10
12.5
 20
0.2
 30
9.4000000000000004
 11
12.4
 21
0.3
 31
9.0999999999999996
210
0.0
220
0.9486832980505139
230
0.3162277660168373
  0
LINE
  5
5DD
  8
0
 62
    50
 10
12.4
 20
0.3
 30
-2.7000000000000002
 11
13.0
 21
0.3
 31
-2.7000000000000002
210
0.0
220
1.0
230
0.0
  0
LINE
  5
5DE
  8
0
 62
    50
 10
12.4
 20
0.3
 30
-2.7000000000000002
 11
12.4
 21
0.3
 31
9.0999999999999996
210
0.0
220
1.0
230
0.0
  0
LINE
  5
5DF
  8
0
 62
    50
 10
13.0
 20
0.3
 30
9.0999999999999996
 11
12.4
 21
0.3
 31
9.0999999999999996
210
0.0
220
1.0
230
0.0
  0
LINE
  5
5E0
  8
0
 62
    50
 10
13.0
 20
0.3
 30
-2.7000000000000002
 11
13.0
 21
0.3
 31
9.0999999999999996
210
0.0
220
1.0
230
0.0
  0
LINE
  5
5E1
  8
0
 62
    50
 10
13.0
 20
0.3
 30
-2.7000000000000002
 11
13.0
 21
-0.3
 31
-2.7000000000000002
210
1.0
220
0.0
230
0.0
  0
LINE
  5
5E2
  8
0
 62
    50
 10
13.0
 20
0.3
 30
-2.7000000000000002
 11
13.0
 21
0.3
 31
9.0999999999999996
210
1.0
220
0.0
230
0.0
  0
LINE
  5
5E3
  8
0
 62
    50
 10
13.0
 20
-0.3
 30
9.0999999999999996
 11
13.0
 21
0.3
 31
9.0999999999999996
210
1.0
220
0.0
230
0.0
  0
LINE
  5
5E4
  8
0
 62
    50
 10
13.0
 20
-0.3
 30
-2.7000000000000002
 11
13.0
 21
-0.3
 31
9.0999999999999996
210
1.0
220
0.0
230
0.0
  0
LINE
  5
5E5
  8
0
 62
    50
 10
12.9
 20
0.2
 30
9.4000000000000004
 11
12.9
 21
-0.2
 31
9.4000000000000004
  0
LINE
  5
5E6
  8
0
 62
    50
 10
12.5
 20
0.2
 30
9.4000000000000004
 11
12.9
 21
0.2
 31
9.4000000000000004
  0
LINE
  5
5E7
  8
0
 62
    50
 10
12.5
 20
-0.2
 30
9.4000000000000004
 11
12.5
 21
0.2
 31
9.4000000000000004
  0
LINE
  5
5E8
  8
0
 62
    50
 10
12.9
 20
-0.2
 30
9.4000000000000004
 11
12.5
 21
-0.2
 31
9.4000000000000004
  0
ENDBLK
  5
5EA
  8
0
  0
ENDSEC
  0
SECTION
  2
ENTITIES
  0
INSERT
  5
42
  8
ASHADE
 62
     1
  2
AVE_RENDER
 10
0.0
 20
0.0
 30
0.0
1001
AVE_RENDER
1002
{
1070
     7
1000
Pref
1070
    30
1070
    20
1070
     1
1070
     0
1000

1070
    10
1070
     1
1070
    10
1040
1.0
1070
     1
1040
0.3
1040
0.7
1040
0.0
1040
10.0
1010
-1.0
1020
-1.0
1030
-1.0
1040
0.3
1070
    49
1070
     0
1070
     0
1010
1.0
1020
1.0
1030
1.0
1040
45.0
1070
     1
1070
     0
1000
WCS
1040
0.0
1070
     0
1040
10.0
1002
}
  0
INSERT
  5
43
  8
ASHADE
 62
     3
  2
AVE_RENDER
 10
0.0
 20
0.0
 30
0.0
1001
AVE_RENDER
1002
{
1070
     0
1000
Full Opt
1070
     0
1070
     1
1070
     1
1070
     1
1070
     0
1070
     0
1070
     0
1070
     1
1070
     1
1040
0.0001
1040
0.0001
1002
}
  0
INSERT
  5
44
  8
ASHADE
 62
     4
  2
AVE_RENDER
 10
0.0
 20
0.0
 30
0.0
1001
AVE_RENDER
1002
{
1070
     0
1000
Quick Opt
1070
     0
1070
     1
1070
     1
1070
     1
1070
     0
1070
     0
1070
     1
1002
}
  0
INSERT
  5
45
  8
ASHADE
 62
     5
  2
AVE_RENDER
 10
0.0
 20
0.0
 30
0.0
1001
AVE_RENDER
1002
{
1070
     1
1000
Scanl Opt
1070
     2
1070
     0
1070
     2
1040
2.0
1040
4.0
1070
     0
1070
     1
1070
     0
1040
0.03
1002
}
  0
INSERT
  5
46
  8
ASHADE
 62
     6
  2
AVE_RENDER
 10
0.0
 20
0.0
 30
0.0
1001
AVE_RENDER
1002
{
1070
     2
1000
Raytr Opt
1070
     2
1070
     0
1070
     2
1040
2.0
1040
4.0
1070
     0
1070
     1
1070
     1
1040
0.03
1070
     3
1040
0.03
1002
}
  0
INSERT
  5
47
  8
ASHADE
 62
     7
  2
AVE_RENDER
 10
0.0
 20
0.0
 30
0.0
1001
AVE_RENDER
1002
{
1070
     0
1000
RFile Opt
1070
     1
1070
   640
1070
   480
1070
 10000
1070
     1
1070
     8
1070
     8
1070
     0
1070
     0
1070
     0
1070
     0
1070
     0
1070
     0
1070
     0
1002
}
  0
INSERT
  5
48
  8
ASHADE
 62
     8
  2
AVE_RENDER
 10
0.0
 20
0.0
 30
0.0
1001
AVE_RENDER
1002
{
1070
     0
1000
Fog Opt
1070
     0
1070
     0
1040
0.0
1040
1.0
1040
0.0
1040
1.0
1010
0.5
1020
0.5
1030
0.5
1002
}
  0
INSERT
  5
49
  8
ASHADE
 62
     9
  2
AVE_RENDER
 10
0.0
 20
0.0
 30
0.0
1001
AVE_RENDER
1002
{
1070
     0
1000
BG Opt
1070
     0
1070
     1
1010
0.0
1020
0.0
1030
0.0
1010
1.0
1020
0.0
1030
0.0
1010
0.0
1020
1.0
1030
0.0
1010
0.0
1020
0.0
1030
1.0
1040
0.5
1040
0.33
1040
0.0
1000

1070
     1
1000

1070
     1
1070
     1
1040
1.0
1040
1.0
1040
0.0
1040
0.0
1070
     0
1002
}
  0
INSERT
  5
50
  8
ASHADE
 62
     1
  2
AVE_GLOBAL
 10
0.0
 20
0.0
 30
0.0
1001
AVE_MATERIAL
1002
{
1000
*GLOBAL*
1000
1
1000
Global finish.
1002
{
1002
}
1002
{
1070
    63
1002
{
1002
{
1010
-1.0
1020
-1.0
1030
-1.0
1002
}
1040
0.1000000014901161
1000

1040
0.0
1002
{
1002
}
1040
0.0
1002
{
1002
}
1040
0.0
1002
}
1002
{
1002
{
1010
-1.0
1020
-1.0
1030
-1.0
1002
}
1040
0.699999988079071
1000

1040
0.0
1002
{
1002
}
1040
0.0
1002
{
1002
}
1040
0.0
1002
}
1002
{
1002
{
1010
-1.0
1020
-1.0
1030
-1.0
1002
}
1040
0.2000000029802322
1000

1040
0.0
1002
{
1002
}
1040
0.0
1002
{
1002
}
1040
0.0
1002
}
1002
{
1070
     0
1002
{
1070
     1
1002
{
1040
1.0
1040
1.0
1000

1040
0.0
1002
{
1002
}
1040
0.0
1002
{
1002
}
1040
0.0
1002
}
1002
}
1040
1.0
1040
0.0
1040
0.0
1002
}
1002
{
1040
1.0
1040
1.0
1000

1040
0.0
1002
{
1002
}
1040
0.0
1002
{
1002
}
1040
0.0
1002
}
1002
{
1040
0.5
1040
1.0
1000

1040
0.0
1002
{
1002
}
1040
0.0
1002
{
1002
}
1040
0.0
1002
}
1002
{
1070
     0
1040
0.0
1002
{
1002
}
1040
1.0
1002
{
1002
}
1040
0.0
1002
}
1002
{
1040
0.0
1002
{
1002
{
1010
0.0
1020
0.0
1030
0.0
1002
}
1040
1.0
1000

1040
0.0
1002
{
1002
}
1040
0.0
1002
{
1002
}
1040
0.0
1002
}
1002
}
1002
{
1002
{
1070
     1
1002
{
1040
0.0
1040
1.0
1000

1040
0.0
1002
{
1002
}
1040
0.0
1002
{
1002
}
1040
0.0
1002
}
1002
}
1040
0.0
1002
{
1002
}
1010
1.0
1020
0.0
1030
0.0
1010
0.0
1020
1.0
1030
0.0
1010
0.0
1020
0.0
1030
1.0
1070
     0
1002
}
1002
{
1002
{
1040
1.0
1040
1.0
1002
{
1070
     1
1002
{
1040
1.0
1040
1.0
1000

1040
0.0
1002
{
1002
}
1040
0.0
1002
{
1002
}
1040
0.0
1002
}
1002
}
1002
}
1070
     0
1040
0.0
1002
{
1002
}
1002
}
1002
{
1002
}
1002
}
1002
{
1071
        3
1070
     3
1070
     0
1002
{
1070
     2
1070
     0
1070
     0
1040
0.0
1002
}
1070
     0
1070
     2
1002
{
1002
}
1002
}
1002
{
1040
8030.0
1040
190.30000305175781
1040
0.3050000071525574
1040
228.0
1040
545.0
1040
14.0
1040
17.39999961853027
1040
0.4560000002384186
1002
}
1002
}
  0
INSERT
  5
1CA
  8
0
  2
*U2
 10
0.0
 20
0.0
 30
0.0
  0
INSERT
  5
1CD
  8
0
  2
*U3
 10
0.0
 20
0.0
 30
0.0
  0
INSERT
  5
1CF
  8
0
  2
*U4
 10
0.0
 20
0.0
 30
0.0
  0
INSERT
  5
1D2
  8
0
  2
*U5
 10
0.0
 20
0.0
 30
0.0
  0
INSERT
  5
1D8
  8
0
  2
*U6
 10
0.0
 20
0.0
 30
0.0
  0
INSERT
  5
1D9
  8
0
  2
*U7
 10
0.0
 20
0.0
 30
0.0
  0
INSERT
  5
1E0
  8
0
  2
*U8
 10
0.0
 20
0.0
 30
0.0
  0
INSERT
  5
1E1
  8
0
  2
*U9
 10
0.0
 20
0.0
 30
0.0
  0
INSERT
  5
1E2
  8
0
  2
*U10
 10
0.0
 20
0.0
 30
0.0
  0
INSERT
  5
1E3
  8
0
  2
*U11
 10
0.0
 20
0.0
 30
0.0
  0
INSERT
  5
1ED
  8
0
  2
*U12
 10
0.0
 20
0.0
 30
0.0
  0
INSERT
  5
1EE
  8
0
  2
*U13
 10
0.0
 20
0.0
 30
0.0
  0
INSERT
  5
1EF
  8
0
  2
*U14
 10
0.0
 20
0.0
 30
0.0
  0
INSERT
  5
1F0
  8
0
  2
*U15
 10
0.0
 20
0.0
 30
0.0
  0
INSERT
  5
1F1
  8
0
  2
*U16
 10
0.0
 20
0.0
 30
0.0
  0
INSERT
  5
1F2
  8
0
  2
*U17
 10
0.0
 20
0.0
 30
0.0
  0
ENDSEC
  0
EOF
