  0
SECTION
  2
HEADER
  9
$ACADVER
  1
AC1009
  9
$INSBASE
 10
0.0
 20
0.0
 30
0.0
  9
$EXTMIN
 10
-1.6000000000000001
 20
-0.8
 30
-0.3
  9
$EXTMAX
 10
2.0
 20
1.25
 30
0.8
  9
$LIMMIN
 10
0.0
 20
0.0
  9
$LIMMAX
 10
420.0
 20
297.0
  9
$ORTHOMODE
 70
     0
  9
$REGENMODE
 70
     1
  9
$FILLMODE
 70
     1
  9
$QTEXTMODE
 70
     0
  9
$MIRRTEXT
 70
     0
  9
$DRAGMODE
 70
     2
  9
$LTSCALE
 40
1.0
  9
$OSMODE
 70
  2295
  9
$ATTMODE
 70
     1
  9
$TEXTSIZE
 40
2.5
  9
$TRACEWID
 40
1.0
  9
$TEXTSTYLE
  7
STANDARD
  9
$CLAYER
  8
0
  9
$CELTYPE
  6
BYLAYER
  9
$CECOLOR
 62
   256
  9
$DIMSCALE
 40
1.0
  9
$DIMASZ
 40
2.5
  9
$DIMEXO
 40
0.625
  9
$DIMDLI
 40
3.75
  9
$DIMRND
 40
0.0
  9
$DIMDLE
 40
0.0
  9
$DIMEXE
 40
1.25
  9
$DIMTP
 40
0.0
  9
$DIMTM
 40
0.0
  9
$DIMTXT
 40
2.5
  9
$DIMCEN
 40
2.5
  9
$DIMTSZ
 40
0.0
  9
$DIMTOL
 70
     0
  9
$DIMLIM
 70
     0
  9
$DIMTIH
 70
     0
  9
$DIMTOH
 70
     0
  9
$DIMSE1
 70
     0
  9
$DIMSE2
 70
     0
  9
$DIMTAD
 70
     1
  9
$DIMZIN
 70
     8
  9
$DIMBLK
  1

  9
$DIMASO
 70
     1
  9
$DIMSHO
 70
     1
  9
$DIMPOST
  1

  9
$DIMAPOST
  1

  9
$DIMALT
 70
     0
  9
$DIMALTD
 70
     3
  9
$DIMALTF
 40
0.03937007874016
  9
$DIMLFAC
 40
1.0
  9
$DIMTOFL
 70
     1
  9
$DIMTVP
 40
0.0
  9
$DIMTIX
 70
     0
  9
$DIMSOXD
 70
     0
  9
$DIMSAH
 70
     0
  9
$DIMBLK1
  1

  9
$DIMBLK2
  1

  9
$DIMSTYLE
  2
ISO-25
  9
$DIMCLRD
 70
     0
  9
$DIMCLRE
 70
     0
  9
$DIMCLRT
 70
     0
  9
$DIMTFAC
 40
1.0
  9
$DIMGAP
 40
0.625
  9
$LUNITS
 70
     2
  9
$LUPREC
 70
     4
  9
$SKETCHINC
 40
1.0
  9
$FILLETRAD
 40
0.0
  9
$AUNITS
 70
     0
  9
$AUPREC
 70
     0
  9
$MENU
  1
.
  9
$ELEVATION
 40
0.0
  9
$PELEVATION
 40
0.0
  9
$THICKNESS
 40
0.0
  9
$LIMCHECK
 70
     0
  9
$BLIPMODE
 70
     0
  9
$CHAMFERA
 40
0.0
  9
$CHAMFERB
 40
0.0
  9
$SKPOLY
 70
     0
  9
$TDCREATE
 40
2458313.3831154401
  9
$TDUPDATE
 40
2458317.8078212729
  9
$TDINDWG
 40
0.0172193981
  9
$TDUSRTIMER
 40
0.0172190162
  9
$USRTIMER
 70
     1
  9
$ANGBASE
 50
0.0
  9
$ANGDIR
 70
     0
  9
$PDMODE
 70
     0
  9
$PDSIZE
 40
0.0
  9
$PLINEWID
 40
0.0
  9
$COORDS
 70
     1
  9
$SPLFRAME
 70
     0
  9
$SPLINETYPE
 70
     6
  9
$SPLINESEGS
 70
     8
  9
$ATTDIA
 70
     1
  9
$ATTREQ
 70
     1
  9
$HANDLING
 70
     1
  9
$HANDSEED
  5
768
  9
$SURFTAB1
 70
     6
  9
$SURFTAB2
 70
     6
  9
$SURFTYPE
 70
     6
  9
$SURFU
 70
     6
  9
$SURFV
 70
     6
  9
$UCSNAME
  2

  9
$UCSORG
 10
0.0
 20
0.0
 30
0.0
  9
$UCSXDIR
 10
1.0
 20
0.0
 30
0.0
  9
$UCSYDIR
 10
0.0
 20
1.0
 30
0.0
  9
$PUCSNAME
  2

  9
$PUCSORG
 10
0.0
 20
0.0
 30
0.0
  9
$PUCSXDIR
 10
1.0
 20
0.0
 30
0.0
  9
$PUCSYDIR
 10
0.0
 20
1.0
 30
0.0
  9
$USERI1
 70
     0
  9
$USERI2
 70
     0
  9
$USERI3
 70
     0
  9
$USERI4
 70
     0
  9
$USERI5
 70
     0
  9
$USERR1
 40
0.0
  9
$USERR2
 40
0.0
  9
$USERR3
 40
0.0
  9
$USERR4
 40
0.0
  9
$USERR5
 40
0.0
  9
$WORLDVIEW
 70
     1
  9
$SHADEDGE
 70
     3
  9
$SHADEDIF
 70
    70
  9
$TILEMODE
 70
     1
  9
$MAXACTVP
 70
    48
  9
$PLIMCHECK
 70
     0
  9
$PEXTMIN
 10
0.0
 20
0.0
 30
0.0
  9
$PEXTMAX
 10
0.0
 20
0.0
 30
0.0
  9
$PLIMMIN
 10
0.0
 20
0.0
  9
$PLIMMAX
 10
12.0
 20
9.0
  9
$UNITMODE
 70
     0
  9
$VISRETAIN
 70
     1
  9
$PLINEGEN
 70
     0
  9
$PSLTSCALE
 70
     1
  0
ENDSEC
  0
SECTION
  2
TABLES
  0
TABLE
  2
VPORT
 70
     1
  0
VPORT
  2
*ACTIVE
 70
     0
 10
0.0
 20
0.0
 11
1.0
 21
1.0
 12
0.0
 22
0.0
 13
0.0
 23
0.0
 14
10.0
 24
10.0
 15
10.0
 25
10.0
 16
-5.9121393929668411
 26
-5.912139392966842
 36
5.9121393929668411
 17
-0.0574346007615913
 27
-0.3407359047613854
 37
0.5668062533485569
 40
3.1036723171028062
 41
2.5847619047619039
 42
50.0
 43
0.0
 44
0.0
 50
0.0
 51
0.0
 71
     0
 72
  1000
 73
     1
 74
     3
 75
     0
 76
     1
 77
     0
 78
     0
  0
ENDTAB
  0
TABLE
  2
LTYPE
 70
     2
  0
LTYPE
  2
CONTINUOUS
 70
     0
  3
Solid line
 72
    65
 73
     0
 40
0.0
  0
ENDTAB
  0
TABLE
  2
LAYER
 70
     1
  0
LAYER
  2
0
 70
     0
 62
     7
  6
CONTINUOUS
  0
ENDTAB
  0
TABLE
  2
STYLE
 70
     2
  0
STYLE
  2
STANDARD
 70
     0
 40
0.0
 41
1.0
 50
0.0
 71
     0
 42
2.5
  3
txt
  4

  0
STYLE
  2
ANNOTATIVE
 70
     0
 40
0.0
 41
1.0
 50
0.0
 71
     0
 42
2.5
  3
txt
  4

  0
ENDTAB
  0
TABLE
  2
VIEW
 70
     2
  0
ENDTAB
  0
TABLE
  2
UCS
 70
     0
  0
ENDTAB
  0
TABLE
  2
APPID
 70
    10
  0
APPID
  2
ACAD
 70
     0
  0
APPID
  2
ACAD_PSEXT
 70
     0
  0
APPID
  2
ACADANNOPO
 70
     0
  0
APPID
  2
ACADANNOTATIVE
 70
     0
  0
APPID
  2
ACAD_DSTYLE_DIMJAG
 70
     0
  0
APPID
  2
ACAD_DSTYLE_DIMTALN
 70
     0
  0
APPID
  2
ACAD_MLEADERVER
 70
     0
  0
APPID
  2
ACAD_NAV_VCDISPLAY
 70
     0
  0
APPID
  2
ACAD_EXEMPT_FROM_CAD_STANDARDS
 70
     0
  0
APPID
  2
ACAD_OBJECT_CHANGE_GUID
 70
     0
  0
ENDTAB
  0
TABLE
  2
DIMSTYLE
 70
     4
  0
DIMSTYLE
  2
STANDARD
 70
     0
  3

  4

  5

  6

  7

 40
1.0
 41
0.18
 42
0.0625
 43
0.38
 44
0.18
 45
0.0
 46
0.0
 47
0.0
 48
0.0
140
0.18
141
0.09
142
0.0
143
25.399999999999999
144
1.0
145
0.0
146
1.0
147
0.09
 71
     0
 72
     0
 73
     1
 74
     1
 75
     0
 76
     0
 77
     0
 78
     0
170
     0
171
     2
172
     0
173
     0
174
     0
175
     0
176
     0
177
     0
178
     0
  0
DIMSTYLE
  2
ANNOTATIVE
 70
     0
  3

  4

  5

  6

  7

 40
0.0
 41
2.5
 42
0.625
 43
3.75
 44
1.25
 45
0.0
 46
0.0
 47
0.0
 48
0.0
140
2.5
141
2.5
142
0.0
143
0.03937007874016
144
1.0
145
0.0
146
1.0
147
0.625
 71
     0
 72
     0
 73
     0
 74
     0
 75
     0
 76
     0
 77
     1
 78
     8
170
     0
171
     3
172
     1
173
     0
174
     0
175
     0
176
     0
177
     0
178
     0
  0
DIMSTYLE
  2
ISO-25
 70
     0
  3

  4

  5

  6

  7

 40
1.0
 41
2.5
 42
0.625
 43
3.75
 44
1.25
 45
0.0
 46
0.0
 47
0.0
 48
0.0
140
2.5
141
2.5
142
0.0
143
0.03937007874016
144
1.0
145
0.0
146
1.0
147
0.625
 71
     0
 72
     0
 73
     0
 74
     0
 75
     0
 76
     0
 77
     1
 78
     8
170
     0
171
     3
172
     1
173
     0
174
     0
175
     0
176
     0
177
     0
178
     0
  0
ENDTAB
  0
ENDSEC
  0
SECTION
  2
BLOCKS
  0
BLOCK
  8
0
  2
$MODEL_SPACE
 70
     0
 10
0.0
 20
0.0
 30
0.0
  3
$MODEL_SPACE
  1

  0
ENDBLK
  5
21
  8
0
  0
BLOCK
 67
     1
  8
0
  2
$PAPER_SPACE
 70
     0
 10
0.0
 20
0.0
 30
0.0
  3
$PAPER_SPACE
  1

  0
ENDBLK
  5
D5
 67
     1
  8
0
  0
BLOCK
  8
0
  2
*U2
 70
     1
 10
0.0
 20
0.0
 30
0.0
  3
*U2
  1

  0
ARC
  5
6F2
  8
0
 62
   254
 10
1.0
 20
0.0
 30
0.0
 40
0.2500000000000002
210
0.0
220
0.0
230
-1.0
 50
90.0
 51
270.0
  0
LINE
  5
6F3
  8
0
 62
   254
 10
-1.0
 20
-0.2500000000000002
 30
0.0
 11
-1.0
 21
-0.2500000000000002
 31
0.3
  0
ARC
  5
6F4
  8
0
 62
   254
 10
1.0
 20
0.0
 30
-0.3
 40
0.2500000000000002
210
0.0
220
0.0
230
-1.0
 50
90.0
 51
270.0
  0
LINE
  5
6F5
  8
0
 62
   254
 10
-1.0
 20
0.2500000000000002
 30
0.0
 11
-1.0
 21
0.2500000000000002
 31
0.3
  0
LINE
  5
6F6
  8
0
 62
   254
 10
-1.0
 20
0.625
 30
0.0
 11
-1.0
 21
0.2500000000000002
 31
0.0
210
-1.0
220
0.0
230
0.0
  0
LINE
  5
6F7
  8
0
 62
   254
 10
-1.0
 20
0.2500000000000002
 30
0.0
 11
-1.0
 21
0.2500000000000002
 31
0.3
210
-1.0
220
0.0
230
0.0
  0
LINE
  5
6F8
  8
0
 62
   254
 10
-1.0
 20
0.625
 30
0.3
 11
-1.0
 21
0.2500000000000002
 31
0.3
210
-1.0
220
0.0
230
0.0
  0
LINE
  5
6F9
  8
0
 62
   254
 10
-1.0
 20
0.625
 30
0.0
 11
-1.0
 21
0.625
 31
0.3
210
-1.0
220
0.0
230
0.0
  0
LINE
  5
6FA
  8
0
 62
   254
 10
-0.65
 20
0.625
 30
0.0
 11
-1.0
 21
0.625
 31
0.0
210
0.0
220
1.0
230
0.0
  0
LINE
  5
6FB
  8
0
 62
   254
 10
-1.0
 20
0.625
 30
0.0
 11
-1.0
 21
0.625
 31
0.3
210
0.0
220
1.0
230
0.0
  0
LINE
  5
6FC
  8
0
 62
   254
 10
-0.65
 20
0.625
 30
0.3
 11
-1.0
 21
0.625
 31
0.3
210
0.0
220
1.0
230
0.0
  0
LINE
  5
6FD
  8
0
 62
   254
 10
-0.65
 20
0.625
 30
0.0
 11
-0.65
 21
0.625
 31
0.3
210
0.0
220
1.0
230
0.0
  0
LINE
  5
6FE
  8
0
 62
   254
 10
-0.65
 20
-0.6250000000000006
 30
0.0
 11
-0.65
 21
0.625
 31
0.0
210
1.0
220
0.0
230
0.0
  0
LINE
  5
6FF
  8
0
 62
   254
 10
-0.65
 20
0.625
 30
0.0
 11
-0.65
 21
0.625
 31
0.3
210
1.0
220
0.0
230
0.0
  0
LINE
  5
700
  8
0
 62
   254
 10
-0.65
 20
-0.6250000000000006
 30
0.3
 11
-0.65
 21
0.625
 31
0.3
210
1.0
220
0.0
230
0.0
  0
LINE
  5
701
  8
0
 62
   254
 10
-0.65
 20
-0.6250000000000006
 30
0.0
 11
-0.65
 21
-0.6250000000000006
 31
0.3
210
1.0
220
0.0
230
0.0
  0
LINE
  5
702
  8
0
 62
   254
 10
-1.0
 20
-0.625
 30
0.0
 11
-0.65
 21
-0.6250000000000006
 31
0.0
210
-0.0000000000000013
220
-1.0
230
0.0
  0
LINE
  5
703
  8
0
 62
   254
 10
-0.65
 20
-0.6250000000000006
 30
0.0
 11
-0.65
 21
-0.6250000000000006
 31
0.3
210
-0.0000000000000013
220
-1.0
230
0.0
  0
LINE
  5
704
  8
0
 62
   254
 10
-1.0
 20
-0.625
 30
0.3
 11
-0.65
 21
-0.6250000000000006
 31
0.3
210
-0.0000000000000013
220
-1.0
230
0.0
  0
LINE
  5
705
  8
0
 62
   254
 10
-1.0
 20
-0.625
 30
0.0
 11
-1.0
 21
-0.625
 31
0.3
210
-0.0000000000000013
220
-1.0
230
0.0
  0
LINE
  5
706
  8
0
 62
   254
 10
-1.0
 20
-0.2500000000000002
 30
0.0
 11
-1.0
 21
-0.625
 31
0.0
210
-1.0
220
0.0
230
0.0
  0
LINE
  5
707
  8
0
 62
   254
 10
-1.0
 20
-0.625
 30
0.0
 11
-1.0
 21
-0.625
 31
0.3
210
-1.0
220
0.0
230
0.0
  0
LINE
  5
708
  8
0
 62
   254
 10
-1.0
 20
-0.2500000000000002
 30
0.3
 11
-1.0
 21
-0.625
 31
0.3
210
-1.0
220
0.0
230
0.0
  0
LINE
  5
709
  8
0
 62
   254
 10
-1.0
 20
-0.2500000000000002
 30
0.0
 11
-1.0
 21
-0.2500000000000002
 31
0.3
210
-1.0
220
0.0
230
0.0
  0
LINE
  5
70A
  8
0
 62
   254
 10
-1.0
 20
-0.2500000000000002
 30
0.3
 11
-1.0
 21
-0.625
 31
0.3
  0
LINE
  5
70B
  8
0
 62
   254
 10
-1.0
 20
-0.625
 30
0.3
 11
-0.65
 21
-0.6250000000000006
 31
0.3
  0
LINE
  5
70C
  8
0
 62
   254
 10
-0.65
 20
-0.6250000000000006
 30
0.3
 11
-0.65
 21
0.625
 31
0.3
  0
LINE
  5
70D
  8
0
 62
   254
 10
-0.65
 20
0.625
 30
0.3
 11
-1.0
 21
0.625
 31
0.3
  0
LINE
  5
70E
  8
0
 62
   254
 10
-1.0
 20
0.625
 30
0.3
 11
-1.0
 21
0.2500000000000002
 31
0.3
  0
ARC
  5
70F
  8
0
 62
   254
 10
-1.0
 20
0.0
 30
0.3
 40
0.2500000000000002
 50
270.0
 51
90.0
  0
LINE
  5
710
  8
0
 62
   254
 10
-1.0
 20
-0.2500000000000002
 30
0.0
 11
-1.0
 21
-0.625
 31
0.0
210
0.0
220
0.0
230
-1.0
  0
ARC
  5
711
  8
0
 62
   254
 10
1.0
 20
0.0
 30
0.0
 40
0.2500000000000002
210
0.0
220
0.0
230
-1.0
 50
90.0
 51
270.0
  0
LINE
  5
712
  8
0
 62
   254
 10
-1.0
 20
0.625
 30
0.0
 11
-1.0
 21
0.2500000000000002
 31
0.0
210
0.0
220
0.0
230
-1.0
  0
LINE
  5
713
  8
0
 62
   254
 10
-0.65
 20
0.625
 30
0.0
 11
-1.0
 21
0.625
 31
0.0
210
0.0
220
0.0
230
-1.0
  0
LINE
  5
714
  8
0
 62
   254
 10
-0.65
 20
-0.6250000000000006
 30
0.0
 11
-0.65
 21
0.625
 31
0.0
210
0.0
220
0.0
230
-1.0
  0
LINE
  5
715
  8
0
 62
   254
 10
-1.0
 20
-0.625
 30
0.0
 11
-0.65
 21
-0.6250000000000006
 31
0.0
210
0.0
220
0.0
230
-1.0
  0
ENDBLK
  5
717
  8
0
  0
BLOCK
  8
0
  2
*U3
 70
     1
 10
0.0
 20
0.0
 30
0.0
  3
*U3
  1

  0
ARC
  5
721
  8
0
 62
   254
 10
-1.0
 20
0.0
 30
0.0
 40
0.2500000000000002
210
0.0
220
0.0
230
-1.0
 50
270.0
 51
90.0
  0
LINE
  5
722
  8
0
 62
   254
 10
1.0
 20
0.2500000000000002
 30
0.0
 11
1.0
 21
0.2500000000000002
 31
0.3
  0
ARC
  5
723
  8
0
 62
   254
 10
-1.0
 20
0.0
 30
-0.3
 40
0.2500000000000002
210
0.0
220
0.0
230
-1.0
 50
270.0
 51
90.0
  0
LINE
  5
724
  8
0
 62
   254
 10
1.0
 20
-0.2500000000000002
 30
0.0
 11
1.0
 21
-0.2500000000000002
 31
0.3
  0
LINE
  5
725
  8
0
 62
   254
 10
1.0
 20
-0.625
 30
0.0
 11
1.0
 21
-0.2500000000000002
 31
0.0
210
1.0
220
0.0
230
0.0
  0
LINE
  5
726
  8
0
 62
   254
 10
1.0
 20
-0.2500000000000002
 30
0.0
 11
1.0
 21
-0.2500000000000002
 31
0.3
210
1.0
220
0.0
230
0.0
  0
LINE
  5
727
  8
0
 62
   254
 10
1.0
 20
-0.625
 30
0.3
 11
1.0
 21
-0.2500000000000002
 31
0.3
210
1.0
220
0.0
230
0.0
  0
LINE
  5
728
  8
0
 62
   254
 10
1.0
 20
-0.625
 30
0.0
 11
1.0
 21
-0.625
 31
0.3
210
1.0
220
0.0
230
0.0
  0
LINE
  5
729
  8
0
 62
   254
 10
0.65
 20
-0.625
 30
0.0
 11
1.0
 21
-0.625
 31
0.0
210
0.0
220
-1.0
230
0.0
  0
LINE
  5
72A
  8
0
 62
   254
 10
1.0
 20
-0.625
 30
0.0
 11
1.0
 21
-0.625
 31
0.3
210
0.0
220
-1.0
230
0.0
  0
LINE
  5
72B
  8
0
 62
   254
 10
0.65
 20
-0.625
 30
0.3
 11
1.0
 21
-0.625
 31
0.3
210
0.0
220
-1.0
230
0.0
  0
LINE
  5
72C
  8
0
 62
   254
 10
0.65
 20
-0.625
 30
0.0
 11
0.65
 21
-0.625
 31
0.3
210
0.0
220
-1.0
230
0.0
  0
LINE
  5
72D
  8
0
 62
   254
 10
0.65
 20
0.625
 30
0.0
 11
0.65
 21
-0.625
 31
0.0
210
-1.0
220
0.0
230
0.0
  0
LINE
  5
72E
  8
0
 62
   254
 10
0.65
 20
-0.625
 30
0.0
 11
0.65
 21
-0.625
 31
0.3
210
-1.0
220
0.0
230
0.0
  0
LINE
  5
72F
  8
0
 62
   254
 10
0.65
 20
0.625
 30
0.3
 11
0.65
 21
-0.625
 31
0.3
210
-1.0
220
0.0
230
0.0
  0
LINE
  5
730
  8
0
 62
   254
 10
0.65
 20
0.625
 30
0.0
 11
0.65
 21
0.625
 31
0.3
210
-1.0
220
0.0
230
0.0
  0
LINE
  5
731
  8
0
 62
   254
 10
1.0
 20
0.625
 30
0.0
 11
0.65
 21
0.625
 31
0.0
210
0.0
220
1.0
230
0.0
  0
LINE
  5
732
  8
0
 62
   254
 10
0.65
 20
0.625
 30
0.0
 11
0.65
 21
0.625
 31
0.3
210
0.0
220
1.0
230
0.0
  0
LINE
  5
733
  8
0
 62
   254
 10
1.0
 20
0.625
 30
0.3
 11
0.65
 21
0.625
 31
0.3
210
0.0
220
1.0
230
0.0
  0
LINE
  5
734
  8
0
 62
   254
 10
1.0
 20
0.625
 30
0.0
 11
1.0
 21
0.625
 31
0.3
210
0.0
220
1.0
230
0.0
  0
LINE
  5
735
  8
0
 62
   254
 10
1.0
 20
0.2500000000000002
 30
0.0
 11
1.0
 21
0.625
 31
0.0
210
1.0
220
0.0
230
0.0
  0
LINE
  5
736
  8
0
 62
   254
 10
1.0
 20
0.625
 30
0.0
 11
1.0
 21
0.625
 31
0.3
210
1.0
220
0.0
230
0.0
  0
LINE
  5
737
  8
0
 62
   254
 10
1.0
 20
0.2500000000000002
 30
0.3
 11
1.0
 21
0.625
 31
0.3
210
1.0
220
0.0
230
0.0
  0
LINE
  5
738
  8
0
 62
   254
 10
1.0
 20
0.2500000000000002
 30
0.0
 11
1.0
 21
0.2500000000000002
 31
0.3
210
1.0
220
0.0
230
0.0
  0
LINE
  5
739
  8
0
 62
   254
 10
1.0
 20
0.2500000000000002
 30
0.3
 11
1.0
 21
0.625
 31
0.3
  0
LINE
  5
73A
  8
0
 62
   254
 10
1.0
 20
0.625
 30
0.3
 11
0.65
 21
0.625
 31
0.3
  0
LINE
  5
73B
  8
0
 62
   254
 10
0.65
 20
0.625
 30
0.3
 11
0.65
 21
-0.625
 31
0.3
  0
LINE
  5
73C
  8
0
 62
   254
 10
0.65
 20
-0.625
 30
0.3
 11
1.0
 21
-0.625
 31
0.3
  0
LINE
  5
73D
  8
0
 62
   254
 10
1.0
 20
-0.625
 30
0.3
 11
1.0
 21
-0.2500000000000002
 31
0.3
  0
ARC
  5
73E
  8
0
 62
   254
 10
1.0
 20
0.0
 30
0.3
 40
0.2500000000000002
 50
90.0
 51
270.0
  0
LINE
  5
73F
  8
0
 62
   254
 10
1.0
 20
0.2500000000000002
 30
0.0
 11
1.0
 21
0.625
 31
0.0
210
0.0
220
0.0
230
-1.0
  0
ARC
  5
740
  8
0
 62
   254
 10
-1.0
 20
0.0
 30
0.0
 40
0.2500000000000002
210
0.0
220
0.0
230
-1.0
 50
270.0
 51
90.0
  0
LINE
  5
741
  8
0
 62
   254
 10
1.0
 20
-0.625
 30
0.0
 11
1.0
 21
-0.2500000000000002
 31
0.0
210
0.0
220
0.0
230
-1.0
  0
LINE
  5
742
  8
0
 62
   254
 10
0.65
 20
-0.625
 30
0.0
 11
1.0
 21
-0.625
 31
0.0
210
0.0
220
0.0
230
-1.0
  0
LINE
  5
743
  8
0
 62
   254
 10
0.65
 20
0.625
 30
0.0
 11
0.65
 21
-0.625
 31
0.0
210
0.0
220
0.0
230
-1.0
  0
LINE
  5
744
  8
0
 62
   254
 10
1.0
 20
0.625
 30
0.0
 11
0.65
 21
0.625
 31
0.0
210
0.0
220
0.0
230
-1.0
  0
ENDBLK
  5
746
  8
0
  0
BLOCK
  8
0
  2
*U4
 70
     1
 10
0.0
 20
0.0
 30
0.0
  3
*U4
  1

  0
LINE
  5
74E
  8
0
 62
    71
 10
-0.65
 20
0.625
 30
0.0
 11
-0.65
 21
-0.6250000000000006
 31
0.0
210
-1.0
220
0.0
230
0.0
  0
LINE
  5
74F
  8
0
 62
    71
 10
-0.65
 20
-0.6250000000000006
 30
0.0
 11
-0.65
 21
-0.6250000000000006
 31
0.8
210
-1.0
220
0.0
230
0.0
  0
LINE
  5
750
  8
0
 62
    71
 10
-0.65
 20
0.625
 30
0.8
 11
-0.65
 21
-0.6250000000000006
 31
0.8
210
-1.0
220
0.0
230
0.0
  0
LINE
  5
751
  8
0
 62
    71
 10
-0.65
 20
0.625
 30
0.0
 11
-0.65
 21
0.625
 31
0.8
210
-1.0
220
0.0
230
0.0
  0
LINE
  5
752
  8
0
 62
    71
 10
0.65
 20
0.625
 30
0.0
 11
-0.65
 21
0.625
 31
0.0
210
0.0
220
1.0
230
0.0
  0
LINE
  5
753
  8
0
 62
    71
 10
-0.65
 20
0.625
 30
0.0
 11
-0.65
 21
0.625
 31
0.8
210
0.0
220
1.0
230
0.0
  0
LINE
  5
754
  8
0
 62
    71
 10
0.65
 20
0.625
 30
0.8
 11
-0.65
 21
0.625
 31
0.8
210
0.0
220
1.0
230
0.0
  0
LINE
  5
755
  8
0
 62
    71
 10
0.65
 20
0.625
 30
0.0
 11
0.65
 21
0.625
 31
0.8
210
0.0
220
1.0
230
0.0
  0
LINE
  5
756
  8
0
 62
    71
 10
0.65
 20
-0.6250000000000006
 30
0.0
 11
0.65
 21
0.625
 31
0.0
210
1.0
220
0.0
230
0.0
  0
LINE
  5
757
  8
0
 62
    71
 10
0.65
 20
0.625
 30
0.0
 11
0.65
 21
0.625
 31
0.8
210
1.0
220
0.0
230
0.0
  0
LINE
  5
758
  8
0
 62
    71
 10
0.65
 20
-0.6250000000000006
 30
0.8
 11
0.65
 21
0.625
 31
0.8
210
1.0
220
0.0
230
0.0
  0
LINE
  5
759
  8
0
 62
    71
 10
0.65
 20
-0.6250000000000006
 30
0.0
 11
0.65
 21
-0.6250000000000006
 31
0.8
210
1.0
220
0.0
230
0.0
  0
LINE
  5
75A
  8
0
 62
    71
 10
-0.65
 20
-0.6250000000000006
 30
0.0
 11
0.65
 21
-0.6250000000000006
 31
0.0
210
0.0
220
-1.0
230
0.0
  0
LINE
  5
75B
  8
0
 62
    71
 10
0.65
 20
-0.6250000000000006
 30
0.0
 11
0.65
 21
-0.6250000000000006
 31
0.8
210
0.0
220
-1.0
230
0.0
  0
LINE
  5
75C
  8
0
 62
    71
 10
-0.65
 20
-0.6250000000000006
 30
0.8
 11
0.65
 21
-0.6250000000000006
 31
0.8
210
0.0
220
-1.0
230
0.0
  0
LINE
  5
75D
  8
0
 62
    71
 10
-0.65
 20
-0.6250000000000006
 30
0.0
 11
-0.65
 21
-0.6250000000000006
 31
0.8
210
0.0
220
-1.0
230
0.0
  0
LINE
  5
75E
  8
0
 62
    71
 10
-0.65
 20
-0.6250000000000006
 30
0.8
 11
0.65
 21
-0.6250000000000006
 31
0.8
  0
LINE
  5
75F
  8
0
 62
    71
 10
0.65
 20
-0.6250000000000006
 30
0.8
 11
0.65
 21
0.625
 31
0.8
  0
LINE
  5
760
  8
0
 62
    71
 10
0.65
 20
0.625
 30
0.8
 11
-0.65
 21
0.625
 31
0.8
  0
LINE
  5
761
  8
0
 62
    71
 10
-0.65
 20
0.625
 30
0.8
 11
-0.65
 21
-0.6250000000000006
 31
0.8
  0
LINE
  5
762
  8
0
 62
    71
 10
-0.65
 20
-0.6250000000000006
 30
0.0
 11
0.65
 21
-0.6250000000000006
 31
0.0
210
0.0
220
0.0
230
-1.0
  0
LINE
  5
763
  8
0
 62
    71
 10
-0.65
 20
0.625
 30
0.0
 11
-0.65
 21
-0.6250000000000006
 31
0.0
210
0.0
220
0.0
230
-1.0
  0
LINE
  5
764
  8
0
 62
    71
 10
0.65
 20
0.625
 30
0.0
 11
-0.65
 21
0.625
 31
0.0
210
0.0
220
0.0
230
-1.0
  0
LINE
  5
765
  8
0
 62
    71
 10
0.65
 20
-0.6250000000000006
 30
0.0
 11
0.65
 21
0.625
 31
0.0
210
0.0
220
0.0
230
-1.0
  0
ENDBLK
  5
767
  8
0
  0
ENDSEC
  0
SECTION
  2
ENTITIES
  0
INSERT
  5
4E8
  8
0
  2
*U2
 10
0.0
 20
0.0
 30
0.0
  0
INSERT
  5
4EC
  8
0
  2
*U3
 10
0.0
 20
0.0
 30
0.0
  0
INSERT
  5
4F0
  8
0
  2
*U4
 10
0.0
 20
0.0
 30
0.0
  0
ENDSEC
  0
EOF
